  0
SECTION
  2
HEADER
  9
$ACADVER
  1
AC1032
  9
$ACADMAINTVER
 90
4
  9
$DWGCODEPAGE
  3
ANSI_1252
  9
$LASTSAVEDBY
  1
ezdxf
  9
$REQUIREDVERSIONS
160
0
  9
$INSBASE
 10
0.0
 20
0.0
 30
0.0
  9
$EXTMIN
 10
1e+20
 20
1e+20
 30
1e+20
  9
$EXTMAX
 10
-1e+20
 20
-1e+20
 30
-1e+20
  9
$LIMMIN
 10
0.0
 20
0.0
  9
$LIMMAX
 10
420.0
 20
297.0
  9
$ORTHOMODE
 70
0
  9
$REGENMODE
 70
1
  9
$FILLMODE
 70
1
  9
$QTEXTMODE
 70
0
  9
$MIRRTEXT
 70
1
  9
$LTSCALE
 40
1.0
  9
$ATTMODE
 70
1
  9
$TEXTSIZE
 40
2.5
  9
$TRACEWID
 40
1.0
  9
$TEXTSTYLE
  7
OpenSans
  9
$CLAYER
  8
0
  9
$CELTYPE
  6
ByLayer
  9
$CECOLOR
 62
256
  9
$CELTSCALE
 40
1.0
  9
$DISPSILH
 70
0
  9
$DIMSCALE
 40
1.0
  9
$DIMASZ
 40
0.175
  9
$DIMEXO
 40
0.125
  9
$DIMDLI
 40
3.75
  9
$DIMRND
 40
0.0
  9
$DIMDLE
 40
0.0
  9
$DIMEXE
 40
0.375
  9
$DIMTP
 40
0.0
  9
$DIMTM
 40
0.0
  9
$DIMTXT
 40
0.25
  9
$DIMCEN
 40
2.5
  9
$DIMTSZ
 40
0.0
  9
$DIMTOL
 70
0
  9
$DIMLIM
 70
0
  9
$DIMTIH
 70
0
  9
$DIMTOH
 70
0
  9
$DIMSE1
 70
0
  9
$DIMSE2
 70
0
  9
$DIMTAD
 70
1
  9
$DIMZIN
 70
12
  9
$DIMBLK
  1
ARCHTICK
  9
$DIMASO
 70
1
  9
$DIMSHO
 70
1
  9
$DIMPOST
  1

  9
$DIMAPOST
  1

  9
$DIMALT
 70
0
  9
$DIMALTD
 70
3
  9
$DIMALTF
 40
0.03937007874
  9
$DIMLFAC
 40
100.0
  9
$DIMTOFL
 70
1
  9
$DIMTVP
 40
0.0
  9
$DIMTIX
 70
0
  9
$DIMSOXD
 70
0
  9
$DIMSAH
 70
0
  9
$DIMBLK1
  1

  9
$DIMBLK2
  1

  9
$DIMSTYLE
  2
EZDXF
  9
$DIMCLRD
 70
0
  9
$DIMCLRE
 70
0
  9
$DIMCLRT
 70
0
  9
$DIMTFAC
 40
0.5
  9
$DIMGAP
 40
0.1
  9
$DIMJUST
 70
0
  9
$DIMSD1
 70
0
  9
$DIMSD2
 70
0
  9
$DIMTOLJ
 70
0
  9
$DIMTZIN
 70
8
  9
$DIMALTZ
 70
0
  9
$DIMALTTZ
 70
0
  9
$DIMUPT
 70
1
  9
$DIMDEC
 70
2
  9
$DIMTDEC
 70
2
  9
$DIMALTU
 70
2
  9
$DIMALTTD
 70
3
  9
$DIMTXSTY
  7
OpenSansCondensed-Light
  9
$DIMAUNIT
 70
0
  9
$DIMADEC
 70
2
  9
$DIMALTRND
 40
0.0
  9
$DIMAZIN
 70
3
  9
$DIMDSEP
 70
46
  9
$DIMATFIT
 70
3
  9
$DIMFRAC
 70
0
  9
$DIMLDRBLK
  1

  9
$DIMLUNIT
 70
2
  9
$DIMLWD
 70
-2
  9
$DIMLWE
 70
-2
  9
$DIMTMOVE
 70
2
  9
$DIMFXL
 40
1.0
  9
$DIMFXLON
 70
0
  9
$DIMJOGANG
 40
0.785398163397
  9
$DIMTFILL
 70
0
  9
$DIMTFILLCLR
 70
0
  9
$DIMARCSYM
 70
0
  9
$DIMLTYPE
  6

  9
$DIMLTEX1
  6

  9
$DIMLTEX2
  6

  9
$DIMTXTDIRECTION
 70
0
  9
$LUNITS
 70
2
  9
$LUPREC
 70
4
  9
$SKETCHINC
 40
1.0
  9
$FILLETRAD
 40
10.0
  9
$AUNITS
 70
0
  9
$AUPREC
 70
2
  9
$MENU
  1
.
  9
$ELEVATION
 40
0.0
  9
$PELEVATION
 40
0.0
  9
$THICKNESS
 40
0.0
  9
$LIMCHECK
 70
0
  9
$CHAMFERA
 40
0.0
  9
$CHAMFERB
 40
0.0
  9
$CHAMFERC
 40
0.0
  9
$CHAMFERD
 40
0.0
  9
$SKPOLY
 70
0
  9
$TDCREATE
 40
2461312.1750694443
  9
$TDUCREATE
 40
2458532.153996898
  9
$TDUPDATE
 40
2461312.1750694443
  9
$TDUUPDATE
 40
2458532.1544311
  9
$TDINDWG
 40
0.0
  9
$TDUSRTIMER
 40
0.0
  9
$USRTIMER
 70
1
  9
$ANGBASE
 50
0.0
  9
$ANGDIR
 70
0
  9
$PDMODE
 70
0
  9
$PDSIZE
 40
0.0
  9
$PLINEWID
 40
0.0
  9
$SPLFRAME
 70
0
  9
$SPLINETYPE
 70
6
  9
$SPLINESEGS
 70
8
  9
$HANDSEED
  5
193
  9
$SURFTAB1
 70
6
  9
$SURFTAB2
 70
6
  9
$SURFTYPE
 70
6
  9
$SURFU
 70
6
  9
$SURFV
 70
6
  9
$UCSBASE
  2

  9
$UCSNAME
  2

  9
$UCSORG
 10
0.0
 20
0.0
 30
0.0
  9
$UCSXDIR
 10
1.0
 20
0.0
 30
0.0
  9
$UCSYDIR
 10
0.0
 20
1.0
 30
0.0
  9
$UCSORTHOREF
  2

  9
$UCSORTHOVIEW
 70
0
  9
$UCSORGTOP
 10
0.0
 20
0.0
 30
0.0
  9
$UCSORGBOTTOM
 10
0.0
 20
0.0
 30
0.0
  9
$UCSORGLEFT
 10
0.0
 20
0.0
 30
0.0
  9
$UCSORGRIGHT
 10
0.0
 20
0.0
 30
0.0
  9
$UCSORGFRONT
 10
0.0
 20
0.0
 30
0.0
  9
$UCSORGBACK
 10
0.0
 20
0.0
 30
0.0
  9
$PUCSBASE
  2

  9
$PUCSNAME
  2

  9
$PUCSORG
 10
0.0
 20
0.0
 30
0.0
  9
$PUCSXDIR
 10
1.0
 20
0.0
 30
0.0
  9
$PUCSYDIR
 10
0.0
 20
1.0
 30
0.0
  9
$PUCSORTHOREF
  2

  9
$PUCSORTHOVIEW
 70
0
  9
$PUCSORGTOP
 10
0.0
 20
0.0
 30
0.0
  9
$PUCSORGBOTTOM
 10
0.0
 20
0.0
 30
0.0
  9
$PUCSORGLEFT
 10
0.0
 20
0.0
 30
0.0
  9
$PUCSORGRIGHT
 10
0.0
 20
0.0
 30
0.0
  9
$PUCSORGFRONT
 10
0.0
 20
0.0
 30
0.0
  9
$PUCSORGBACK
 10
0.0
 20
0.0
 30
0.0
  9
$USERI1
 70
0
  9
$USERI2
 70
0
  9
$USERI3
 70
0
  9
$USERI4
 70
0
  9
$USERI5
 70
0
  9
$USERR1
 40
0.0
  9
$USERR2
 40
0.0
  9
$USERR3
 40
0.0
  9
$USERR4
 40
0.0
  9
$USERR5
 40
0.0
  9
$WORLDVIEW
 70
1
  9
$SHADEDGE
 70
3
  9
$SHADEDIF
 70
70
  9
$TILEMODE
 70
1
  9
$MAXACTVP
 70
64
  9
$PINSBASE
 10
0.0
 20
0.0
 30
0.0
  9
$PLIMCHECK
 70
0
  9
$PEXTMIN
 10
1e+20
 20
1e+20
 30
1e+20
  9
$PEXTMAX
 10
-1e+20
 20
-1e+20
 30
-1e+20
  9
$PLIMMIN
 10
0.0
 20
0.0
  9
$PLIMMAX
 10
420.0
 20
297.0
  9
$UNITMODE
 70
0
  9
$VISRETAIN
 70
1
  9
$PLINEGEN
 70
0
  9
$PSLTSCALE
 70
1
  9
$TREEDEPTH
 70
3020
  9
$CMLSTYLE
  2
Standard
  9
$CMLJUST
 70
0
  9
$CMLSCALE
 40
20.0
  9
$PROXYGRAPHICS
 70
1
  9
$MEASUREMENT
 70
1
  9
$CELWEIGHT
370
-1
  9
$ENDCAPS
280
0
  9
$JOINSTYLE
280
0
  9
$LWDISPLAY
290
0
  9
$INSUNITS
 70
6
  9
$HYPERLINKBASE
  1

  9
$STYLESHEET
  1

  9
$XEDIT
290
1
  9
$CEPSNTYPE
380
0
  9
$PSTYLEMODE
290
1
  9
$FINGERPRINTGUID
  2
{D8438FF6-A766-4AD0-B9B6-BD4DAC2C7746}
  9
$VERSIONGUID
  2
{4DA5BBD2-E497-434C-A418-13B4F82B5CF4}
  9
$EXTNAMES
290
1
  9
$PSVPSCALE
 40
0.0
  9
$OLESTARTUP
290
0
  9
$SORTENTS
280
127
  9
$INDEXCTL
280
0
  9
$HIDETEXT
280
1
  9
$XCLIPFRAME
280
1
  9
$HALOGAP
280
0
  9
$OBSCOLOR
 70
257
  9
$OBSLTYPE
280
0
  9
$INTERSECTIONDISPLAY
280
0
  9
$INTERSECTIONCOLOR
 70
257
  9
$DIMASSOC
280
2
  9
$PROJECTNAME
  1

  9
$CAMERADISPLAY
290
0
  9
$LENSLENGTH
 40
50.0
  9
$CAMERAHEIGHT
 40
0.0
  9
$STEPSPERSEC
 40
24.0
  9
$STEPSIZE
 40
100.0
  9
$3DDWFPREC
 40
2.0
  9
$PSOLWIDTH
 40
0.005
  9
$PSOLHEIGHT
 40
0.08
  9
$LOFTANG1
 40
1.570796326795
  9
$LOFTANG2
 40
1.570796326795
  9
$LOFTMAG1
 40
0.0
  9
$LOFTMAG2
 40
0.0
  9
$LOFTPARAM
 70
7
  9
$LOFTNORMALS
280
1
  9
$LATITUDE
 40
37.795
  9
$LONGITUDE
 40
-122.394
  9
$NORTHDIRECTION
 40
0.0
  9
$TIMEZONE
 70
-8000
  9
$LIGHTGLYPHDISPLAY
280
1
  9
$TILEMODELIGHTSYNCH
280
1
  9
$CMATERIAL
347
20
  9
$SOLIDHIST
280
0
  9
$SHOWHIST
280
1
  9
$DWFFRAME
280
2
  9
$DGNFRAME
280
2
  9
$REALWORLDSCALE
290
1
  9
$INTERFERECOLOR
 62
256
  9
$CSHADOW
280
0
  9
$SHADOWPLANELOCATION
 40
0.0
  0
ENDSEC
  0
SECTION
  2
CLASSES
  0
CLASS
  1
ACDBDICTIONARYWDFLT
  2
AcDbDictionaryWithDefault
  3
ObjectDBX Classes
 90
0
 91
0
280
0
281
0
  0
CLASS
  1
SUN
  2
AcDbSun
  3
SCENEOE
 90
1153
 91
0
280
0
281
0
  0
CLASS
  1
VISUALSTYLE
  2
AcDbVisualStyle
  3
ObjectDBX Classes
 90
4095
 91
0
280
0
281
0
  0
CLASS
  1
MATERIAL
  2
AcDbMaterial
  3
ObjectDBX Classes
 90
1153
 91
0
280
0
281
0
  0
CLASS
  1
SCALE
  2
AcDbScale
  3
ObjectDBX Classes
 90
1153
 91
0
280
0
281
0
  0
CLASS
  1
TABLESTYLE
  2
AcDbTableStyle
  3
ObjectDBX Classes
 90
4095
 91
0
280
0
281
0
  0
CLASS
  1
MLEADERSTYLE
  2
AcDbMLeaderStyle
  3
ACDB_MLEADERSTYLE_CLASS
 90
4095
 91
0
280
0
281
0
  0
CLASS
  1
DICTIONARYVAR
  2
AcDbDictionaryVar
  3
ObjectDBX Classes
 90
0
 91
0
280
0
281
0
  0
CLASS
  1
CELLSTYLEMAP
  2
AcDbCellStyleMap
  3
ObjectDBX Classes
 90
1152
 91
0
280
0
281
0
  0
CLASS
  1
MENTALRAYRENDERSETTINGS
  2
AcDbMentalRayRenderSettings
  3
SCENEOE
 90
1024
 91
0
280
0
281
0
  0
CLASS
  1
ACDBDETAILVIEWSTYLE
  2
AcDbDetailViewStyle
  3
ObjectDBX Classes
 90
1025
 91
0
280
0
281
0
  0
CLASS
  1
ACDBSECTIONVIEWSTYLE
  2
AcDbSectionViewStyle
  3
ObjectDBX Classes
 90
1025
 91
0
280
0
281
0
  0
CLASS
  1
RASTERVARIABLES
  2
AcDbRasterVariables
  3
ISM
 90
0
 91
0
280
0
281
0
  0
CLASS
  1
ACDBPLACEHOLDER
  2
AcDbPlaceHolder
  3
ObjectDBX Classes
 90
0
 91
0
280
0
281
0
  0
CLASS
  1
LAYOUT
  2
AcDbLayout
  3
ObjectDBX Classes
 90
0
 91
0
280
0
281
0
  0
ENDSEC
  0
SECTION
  2
TABLES
  0
TABLE
  2
VPORT
  5
8
330
0
100
AcDbSymbolTable
 70
1
  0
VPORT
  5
23
330
8
100
AcDbSymbolTableRecord
100
AcDbViewportTableRecord
  2
*Active
 70
0
 10
0.0
 20
0.0
 11
1.0
 21
1.0
 12
0.0
 22
0.0
 13
0.0
 23
0.0
 14
0.5
 24
0.5
 15
0.5
 25
0.5
 16
0.0
 26
0.0
 36
1.0
 17
0.0
 27
0.0
 37
0.0
 40
1000.0
 41
1.34
 42
50.0
 43
0.0
 44
0.0
 50
0.0
 51
0.0
 71
0
 72
1000
 73
1
 74
3
 75
0
 76
0
 77
0
 78
0
281
0
 65
0
146
0.0
  0
ENDTAB
  0
TABLE
  2
LTYPE
  5
2
330
0
100
AcDbSymbolTable
 70
21
  0
LTYPE
  5
24
330
2
100
AcDbSymbolTableRecord
100
AcDbLinetypeTableRecord
  2
ByBlock
 70
0
  3

 72
65
 73
0
 40
0.0
  0
LTYPE
  5
25
330
2
100
AcDbSymbolTableRecord
100
AcDbLinetypeTableRecord
  2
ByLayer
 70
0
  3

 72
65
 73
0
 40
0.0
  0
LTYPE
  5
26
330
2
100
AcDbSymbolTableRecord
100
AcDbLinetypeTableRecord
  2
Continuous
 70
0
  3

 72
65
 73
0
 40
0.0
  0
LTYPE
  5
2F
330
2
100
AcDbSymbolTableRecord
100
AcDbLinetypeTableRecord
  2
CENTER
 70
0
  3
Center ____ _ ____ _ ____ _ ____ _ ____ _ ____
 72
65
 73
4
 40
5.08
 49
3.175
 74
0
 49
-0.635
 74
0
 49
0.635
 74
0
 49
-0.635
 74
0
  0
LTYPE
  5
30
330
2
100
AcDbSymbolTableRecord
100
AcDbLinetypeTableRecord
  2
CENTERX2
 70
0
  3
Center (2x) ________  __  ________  __  ________
 72
65
 73
4
 40
8.89
 49
6.35
 74
0
 49
-0.635
 74
0
 49
1.27
 74
0
 49
-0.635
 74
0
  0
LTYPE
  5
31
330
2
100
AcDbSymbolTableRecord
100
AcDbLinetypeTableRecord
  2
CENTER2
 70
0
  3
Center (.5x) ____ _ ____ _ ____ _ ____ _ ____
 72
65
 73
4
 40
2.54
 49
1.587
 74
0
 49
-0.318
 74
0
 49
0.318
 74
0
 49
-0.318
 74
0
  0
LTYPE
  5
32
330
2
100
AcDbSymbolTableRecord
100
AcDbLinetypeTableRecord
  2
DASHED
 70
0
  3
Dashed __ __ __ __ __ __ __ __ __ __ __ __ __ _
 72
65
 73
2
 40
1.524
 49
1.27
 74
0
 49
-0.254
 74
0
  0
LTYPE
  5
33
330
2
100
AcDbSymbolTableRecord
100
AcDbLinetypeTableRecord
  2
DASHEDX2
 70
0
  3
Dashed (2x) ____  ____  ____  ____  ____  ____
 72
65
 73
2
 40
3.048
 49
2.54
 74
0
 49
-0.508
 74
0
  0
LTYPE
  5
34
330
2
100
AcDbSymbolTableRecord
100
AcDbLinetypeTableRecord
  2
DASHED2
 70
0
  3
Dashed (.5x) _ _ _ _ _ _ _ _ _ _ _ _ _ _
 72
65
 73
2
 40
0.762
 49
0.635
 74
0
 49
-0.127
 74
0
  0
LTYPE
  5
35
330
2
100
AcDbSymbolTableRecord
100
AcDbLinetypeTableRecord
  2
PHANTOM
 70
0
  3
Phantom ______  __  __  ______  __  __  ______
 72
65
 73
6
 40
6.35
 49
3.175
 74
0
 49
-0.635
 74
0
 49
0.635
 74
0
 49
-0.635
 74
0
 49
0.635
 74
0
 49
-0.635
 74
0
  0
LTYPE
  5
36
330
2
100
AcDbSymbolTableRecord
100
AcDbLinetypeTableRecord
  2
PHANTOMX2
 70
0
  3
Phantom (2x)____________    ____    ____    ____________
 72
65
 73
6
 40
10.795
 49
6.35
 74
0
 49
-0.635
 74
0
 49
1.27
 74
0
 49
-0.635
 74
0
 49
1.27
 74
0
 49
-0.635
 74
0
  0
LTYPE
  5
37
330
2
100
AcDbSymbolTableRecord
100
AcDbLinetypeTableRecord
  2
PHANTOM2
 70
0
  3
Phantom (.5x) ___ _ _ ___ _ _ ___ _ _ ___ _ _ ___
 72
65
 73
6
 40
3.175
 49
1.587
 74
0
 49
-0.318
 74
0
 49
0.318
 74
0
 49
-0.318
 74
0
 49
0.318
 74
0
 49
-0.318
 74
0
  0
LTYPE
  5
38
330
2
100
AcDbSymbolTableRecord
100
AcDbLinetypeTableRecord
  2
DASHDOT
 70
0
  3
Dash dot __ . __ . __ . __ . __ . __ . __ . __
 72
65
 73
4
 40
3.556
 49
2.54
 74
0
 49
-0.508
 74
0
 49
0.0
 74
0
 49
-0.508
 74
0
  0
LTYPE
  5
39
330
2
100
AcDbSymbolTableRecord
100
AcDbLinetypeTableRecord
  2
DASHDOTX2
 70
0
  3
Dash dot (2x) ____  .  ____  .  ____  .  ____
 72
65
 73
4
 40
6.096
 49
5.08
 74
0
 49
-0.508
 74
0
 49
0.0
 74
0
 49
-0.508
 74
0
  0
LTYPE
  5
3A
330
2
100
AcDbSymbolTableRecord
100
AcDbLinetypeTableRecord
  2
DASHDOT2
 70
0
  3
Dash dot (.5x) _ . _ . _ . _ . _ . _ . _ . _
 72
65
 73
4
 40
1.778
 49
1.27
 74
0
 49
-0.254
 74
0
 49
0.0
 74
0
 49
-0.254
 74
0
  0
LTYPE
  5
3B
330
2
100
AcDbSymbolTableRecord
100
AcDbLinetypeTableRecord
  2
DOT
 70
0
  3
Dot .  .  .  .  .  .  .  .  .  .  .  .  .  .  .  .
 72
65
 73
2
 40
0.508
 49
0.0
 74
0
 49
-0.508
 74
0
  0
LTYPE
  5
3C
330
2
100
AcDbSymbolTableRecord
100
AcDbLinetypeTableRecord
  2
DOTX2
 70
0
  3
Dot (2x) .    .    .    .    .    .    .    . 
 72
65
 73
2
 40
1.016
 49
0.0
 74
0
 49
-1.016
 74
0
  0
LTYPE
  5
3D
330
2
100
AcDbSymbolTableRecord
100
AcDbLinetypeTableRecord
  2
DOT2
 70
0
  3
Dot (.5) . . . . . . . . . . . . . . . . . . . 
 72
65
 73
2
 40
0.254
 49
0.0
 74
0
 49
-0.254
 74
0
  0
LTYPE
  5
3E
330
2
100
AcDbSymbolTableRecord
100
AcDbLinetypeTableRecord
  2
DIVIDE
 70
0
  3
Divide __ . . __ . . __ . . __ . . __ . . __
 72
65
 73
6
 40
4.064
 49
2.54
 74
0
 49
-0.508
 74
0
 49
0.0
 74
0
 49
-0.508
 74
0
 49
0.0
 74
0
 49
-0.508
 74
0
  0
LTYPE
  5
3F
330
2
100
AcDbSymbolTableRecord
100
AcDbLinetypeTableRecord
  2
DIVIDEX2
 70
0
  3
Divide (2x) ____  . .  ____  . .  ____  . .  ____
 72
65
 73
6
 40
6.604
 49
5.08
 74
0
 49
-0.508
 74
0
 49
0.0
 74
0
 49
-0.508
 74
0
 49
0.0
 74
0
 49
-0.508
 74
0
  0
LTYPE
  5
40
330
2
100
AcDbSymbolTableRecord
100
AcDbLinetypeTableRecord
  2
DIVIDE2
 70
0
  3
Divide(.5x) _ . _ . _ . _ . _ . _ . _ . _
 72
65
 73
6
 40
2.032
 49
1.27
 74
0
 49
-0.254
 74
0
 49
0.0
 74
0
 49
-0.254
 74
0
 49
0.0
 74
0
 49
-0.254
 74
0
  0
ENDTAB
  0
TABLE
  2
LAYER
  5
1
330
0
100
AcDbSymbolTable
 70
17
  0
LAYER
  5
27
330
1
100
AcDbSymbolTableRecord
100
AcDbLayerTableRecord
  2
0
 70
0
 62
7
  6
Continuous
370
-3
390
13
347
21
  0
LAYER
  5
28
330
1
100
AcDbSymbolTableRecord
100
AcDbLayerTableRecord
  2
Defpoints
 70
0
 62
7
  6
Continuous
290
0
370
-3
390
13
347
21
  0
LAYER
  5
8A
330
1
100
AcDbSymbolTableRecord
100
AcDbLayerTableRecord
  2
IEC
 70
0
 62
7
  6
Continuous
370
-3
390
13
347
21
  0
LAYER
  5
8B
330
1
100
AcDbSymbolTableRecord
100
AcDbLayerTableRecord
  2
EPC
 70
0
 62
8
  6
Continuous
370
-3
390
13
347
21
  0
LAYER
  5
8C
330
1
100
AcDbSymbolTableRecord
100
AcDbLayerTableRecord
  2
MAINT
 70
0
 62
6
  6
Continuous
370
-3
390
13
347
21
  0
LAYER
  5
8D
330
1
100
AcDbSymbolTableRecord
100
AcDbLayerTableRecord
  2
LAYDOWN
 70
0
 62
3
  6
Continuous
370
-3
390
13
347
21
  0
LAYER
  5
8E
330
1
100
AcDbSymbolTableRecord
100
AcDbLayerTableRecord
  2
CRANE
 70
0
 62
5
  6
Continuous
370
-3
390
13
347
21
  0
LAYER
  5
8F
330
1
100
AcDbSymbolTableRecord
100
AcDbLayerTableRecord
  2
PAD
 70
0
 62
30
  6
Continuous
370
-3
390
13
347
21
  0
LAYER
  5
90
330
1
100
AcDbSymbolTableRecord
100
AcDbLayerTableRecord
  2
ACCESS
 70
0
 62
1
  6
Continuous
370
-3
390
13
347
21
  0
LAYER
  5
91
330
1
100
AcDbSymbolTableRecord
100
AcDbLayerTableRecord
  2
DIM
 70
0
 62
1
  6
Continuous
370
-3
390
13
347
21
  0
LAYER
  5
92
330
1
100
AcDbSymbolTableRecord
100
AcDbLayerTableRecord
  2
ANNO
 70
0
 62
7
  6
Continuous
370
-3
390
13
347
21
  0
LAYER
  5
93
330
1
100
AcDbSymbolTableRecord
100
AcDbLayerTableRecord
  2
TITLE
 70
0
 62
7
  6
Continuous
370
-3
390
13
347
21
  0
LAYER
  5
94
330
1
100
AcDbSymbolTableRecord
100
AcDbLayerTableRecord
  2
PLOT
 70
0
 62
8
  6
Continuous
370
-3
390
13
347
21
  0
LAYER
  5
95
330
1
100
AcDbSymbolTableRecord
100
AcDbLayerTableRecord
  2
TIEIN
 70
0
 62
6
  6
Continuous
370
-3
390
13
347
21
  0
LAYER
  5
96
330
1
100
AcDbSymbolTableRecord
100
AcDbLayerTableRecord
  2
HIDDEN
 70
0
 62
8
  6
Continuous
370
-3
390
13
347
21
  0
LAYER
  5
97
330
1
100
AcDbSymbolTableRecord
100
AcDbLayerTableRecord
  2
SEA
 70
0
 62
4
  6
Continuous
370
-3
390
13
347
21
  0
LAYER
  5
98
330
1
100
AcDbSymbolTableRecord
100
AcDbLayerTableRecord
  2
EXCL
 70
0
 62
1
  6
Continuous
370
-3
390
13
347
21
  0
ENDTAB
  0
TABLE
  2
STYLE
  5
5
330
0
100
AcDbSymbolTable
 70
28
  0
STYLE
  5
29
330
5
100
AcDbSymbolTableRecord
100
AcDbTextStyleTableRecord
  2
Standard
 70
0
 40
0.0
 41
1.0
 50
0.0
 71
0
 42
2.5
  3
txt
  4

  0
STYLE
  5
41
330
5
100
AcDbSymbolTableRecord
100
AcDbTextStyleTableRecord
  2
OpenSans-Light
 70
0
 40
0.0
 41
1.0
 50
0.0
 71
0
 42
2.5
  3
OpenSans-Light.ttf
  4

  0
STYLE
  5
42
330
5
100
AcDbSymbolTableRecord
100
AcDbTextStyleTableRecord
  2
OpenSans-Light-Italic
 70
0
 40
0.0
 41
1.0
 50
0.0
 71
0
 42
2.5
  3
OpenSans-LightItalic.ttf
  4

  0
STYLE
  5
43
330
5
100
AcDbSymbolTableRecord
100
AcDbTextStyleTableRecord
  2
OpenSans
 70
0
 40
0.0
 41
1.0
 50
0.0
 71
0
 42
2.5
  3
OpenSans-Regular.ttf
  4

  0
STYLE
  5
44
330
5
100
AcDbSymbolTableRecord
100
AcDbTextStyleTableRecord
  2
OpenSans-Italic
 70
0
 40
0.0
 41
1.0
 50
0.0
 71
0
 42
2.5
  3
OpenSans-Italic.ttf
  4

  0
STYLE
  5
45
330
5
100
AcDbSymbolTableRecord
100
AcDbTextStyleTableRecord
  2
OpenSans-SemiBold
 70
0
 40
0.0
 41
1.0
 50
0.0
 71
0
 42
2.5
  3
OpenSans-SemiBold.ttf
  4

  0
STYLE
  5
46
330
5
100
AcDbSymbolTableRecord
100
AcDbTextStyleTableRecord
  2
OpenSans-SemiBoldItalic
 70
0
 40
0.0
 41
1.0
 50
0.0
 71
0
 42
2.5
  3
OpenSans-SemiBoldItalic.ttf
  4

  0
STYLE
  5
47
330
5
100
AcDbSymbolTableRecord
100
AcDbTextStyleTableRecord
  2
OpenSans-Bold
 70
0
 40
0.0
 41
1.0
 50
0.0
 71
0
 42
2.5
  3
OpenSans-Bold.ttf
  4

  0
STYLE
  5
48
330
5
100
AcDbSymbolTableRecord
100
AcDbTextStyleTableRecord
  2
OpenSans-BoldItalic
 70
0
 40
0.0
 41
1.0
 50
0.0
 71
0
 42
2.5
  3
OpenSans-BoldItalic.ttf
  4

  0
STYLE
  5
49
330
5
100
AcDbSymbolTableRecord
100
AcDbTextStyleTableRecord
  2
OpenSans-ExtraBold
 70
0
 40
0.0
 41
1.0
 50
0.0
 71
0
 42
2.5
  3
OpenSans-ExtraBold.ttf
  4

  0
STYLE
  5
4A
330
5
100
AcDbSymbolTableRecord
100
AcDbTextStyleTableRecord
  2
OpenSans-ExtraBoldItalic
 70
0
 40
0.0
 41
1.0
 50
0.0
 71
0
 42
2.5
  3
OpenSans-ExtraBoldItalic.ttf
  4

  0
STYLE
  5
4B
330
5
100
AcDbSymbolTableRecord
100
AcDbTextStyleTableRecord
  2
OpenSansCondensed-Bold
 70
0
 40
0.0
 41
1.0
 50
0.0
 71
0
 42
2.5
  3
OpenSansCondensed-Bold.ttf
  4

  0
STYLE
  5
4C
330
5
100
AcDbSymbolTableRecord
100
AcDbTextStyleTableRecord
  2
OpenSansCondensed-Light
 70
0
 40
0.0
 41
1.0
 50
0.0
 71
0
 42
2.5
  3
OpenSansCondensed-Light.ttf
  4

  0
STYLE
  5
4D
330
5
100
AcDbSymbolTableRecord
100
AcDbTextStyleTableRecord
  2
OpenSansCondensed-Italic
 70
0
 40
0.0
 41
1.0
 50
0.0
 71
0
 42
2.5
  3
OpenSansCondensed-LightItalic.ttf
  4

  0
STYLE
  5
4E
330
5
100
AcDbSymbolTableRecord
100
AcDbTextStyleTableRecord
  2
LiberationSans
 70
0
 40
0.0
 41
1.0
 50
0.0
 71
0
 42
2.5
  3
LiberationSans-Regular.ttf
  4

  0
STYLE
  5
4F
330
5
100
AcDbSymbolTableRecord
100
AcDbTextStyleTableRecord
  2
LiberationSans-Bold
 70
0
 40
0.0
 41
1.0
 50
0.0
 71
0
 42
2.5
  3
LiberationSans-Bold.ttf
  4

  0
STYLE
  5
50
330
5
100
AcDbSymbolTableRecord
100
AcDbTextStyleTableRecord
  2
LiberationSans-BoldItalic
 70
0
 40
0.0
 41
1.0
 50
0.0
 71
0
 42
2.5
  3
LiberationSans-BoldItalic.ttf
  4

  0
STYLE
  5
51
330
5
100
AcDbSymbolTableRecord
100
AcDbTextStyleTableRecord
  2
LiberationSans-Italic
 70
0
 40
0.0
 41
1.0
 50
0.0
 71
0
 42
2.5
  3
LiberationSans-Italic.ttf
  4

  0
STYLE
  5
52
330
5
100
AcDbSymbolTableRecord
100
AcDbTextStyleTableRecord
  2
LiberationSerif
 70
0
 40
0.0
 41
1.0
 50
0.0
 71
0
 42
2.5
  3
LiberationSerif-Regular.ttf
  4

  0
STYLE
  5
53
330
5
100
AcDbSymbolTableRecord
100
AcDbTextStyleTableRecord
  2
LiberationSerif-Bold
 70
0
 40
0.0
 41
1.0
 50
0.0
 71
0
 42
2.5
  3
LiberationSerif-Bold.ttf
  4

  0
STYLE
  5
54
330
5
100
AcDbSymbolTableRecord
100
AcDbTextStyleTableRecord
  2
LiberationSerif-BoldItalic
 70
0
 40
0.0
 41
1.0
 50
0.0
 71
0
 42
2.5
  3
LiberationSerif-BoldItalic.ttf
  4

  0
STYLE
  5
55
330
5
100
AcDbSymbolTableRecord
100
AcDbTextStyleTableRecord
  2
LiberationSerif-Italic
 70
0
 40
0.0
 41
1.0
 50
0.0
 71
0
 42
2.5
  3
LiberationSerif-Italic.ttf
  4

  0
STYLE
  5
56
330
5
100
AcDbSymbolTableRecord
100
AcDbTextStyleTableRecord
  2
LiberationMono
 70
0
 40
0.0
 41
1.0
 50
0.0
 71
0
 42
2.5
  3
LiberationMono-Regular.ttf
  4

  0
STYLE
  5
57
330
5
100
AcDbSymbolTableRecord
100
AcDbTextStyleTableRecord
  2
LiberationMono-Bold
 70
0
 40
0.0
 41
1.0
 50
0.0
 71
0
 42
2.5
  3
LiberationMono-Bold.ttf
  4

  0
STYLE
  5
58
330
5
100
AcDbSymbolTableRecord
100
AcDbTextStyleTableRecord
  2
LiberationMono-BoldItalic
 70
0
 40
0.0
 41
1.0
 50
0.0
 71
0
 42
2.5
  3
LiberationMono-BoldItalic.ttf
  4

  0
STYLE
  5
59
330
5
100
AcDbSymbolTableRecord
100
AcDbTextStyleTableRecord
  2
LiberationMono-Italic
 70
0
 40
0.0
 41
1.0
 50
0.0
 71
0
 42
2.5
  3
LiberationMono-Italic.ttf
  4

  0
STYLE
  5
99
330
5
100
AcDbSymbolTableRecord
100
AcDbTextStyleTableRecord
  2
IEC
 70
0
 40
0.0
 41
1.0
 50
0.0
 71
0
 42
2.5
  3
DejaVuSans.ttf
  4

  0
STYLE
  5
9A
330
5
100
AcDbSymbolTableRecord
100
AcDbTextStyleTableRecord
  2
ALPILLA
 70
0
 40
0.0
 41
1.0
 50
0.0
 71
0
 42
2.5
  3
DejaVuSans.ttf
  4

  0
ENDTAB
  0
TABLE
  2
VIEW
  5
7
330
0
100
AcDbSymbolTable
 70
0
  0
ENDTAB
  0
TABLE
  2
UCS
  5
6
330
0
100
AcDbSymbolTable
 70
0
  0
ENDTAB
  0
TABLE
  2
APPID
  5
3
330
0
100
AcDbSymbolTable
 70
3
  0
APPID
  5
2A
330
3
100
AcDbSymbolTableRecord
100
AcDbRegAppTableRecord
  2
ACAD
 70
0
  0
APPID
  5
190
330
3
100
AcDbSymbolTableRecord
100
AcDbRegAppTableRecord
  2
HATCHBACKGROUNDCOLOR
 70
0
  0
APPID
  5
191
330
3
100
AcDbSymbolTableRecord
100
AcDbRegAppTableRecord
  2
EZDXF
 70
0
  0
ENDTAB
  0
TABLE
  2
DIMSTYLE
  5
4
330
0
100
AcDbSymbolTable
 70
12
100
AcDbDimStyleTable
  0
DIMSTYLE
105
2B
330
4
100
AcDbSymbolTableRecord
100
AcDbDimStyleTableRecord
  2
Standard
 70
0
 40
1.0
 41
2.5
 42
0.625
 43
3.75
 44
1.25
 45
0.0
 46
0.0
 47
0.0
 48
0.0
 49
2.5
140
2.5
141
2.5
142
0.0
143
0.03937007874
144
1.0
145
0.0
146
1.0
147
0.625
148
0.0
 69
0
 70
0
 71
0
 72
0
 73
0
 74
0
 75
0
 76
0
 77
1
 78
8
 79
3
170
0
171
3
172
1
173
0
174
0
175
0
176
0
177
0
178
0
179
2
271
2
272
2
273
2
274
3
275
0
276
0
277
2
278
44
279
0
280
0
281
0
282
0
283
0
284
8
285
0
286
0
288
0
289
3
290
0
371
-2
372
-2
  0
DIMSTYLE
105
73
330
4
100
AcDbSymbolTableRecord
100
AcDbDimStyleTableRecord
  2
EZDXF
 70
0
 40
1.0
 41
0.175
 42
0.125
 43
3.75
 44
0.375
 45
0.0
 46
0.0
 47
0.0
 48
0.0
 49
2.5
140
0.25
141
2.5
142
0.0
143
0.03937007874
144
100.0
145
0.0
146
0.5
147
0.1
148
0.0
 69
0
 70
0
 71
0
 72
0
 73
0
 74
0
 75
0
 76
0
 77
1
 78
12
 79
3
170
0
171
3
172
1
173
0
174
0
175
0
176
0
177
0
178
0
179
2
271
2
272
2
273
2
274
3
275
0
276
0
277
2
278
46
279
2
280
0
281
0
282
0
283
0
284
8
285
0
286
0
288
1
289
3
290
0
340
4C
342
74
371
-2
372
-2
  0
DIMSTYLE
105
7C
330
4
100
AcDbSymbolTableRecord
100
AcDbDimStyleTableRecord
  2
EZ_M_100_H25_CM
 70
0
 40
1.0
 41
0.25
 42
0.125
 43
3.75
 44
0.375
 45
0.0
 46
0.0
 47
0.0
 48
0.0
 49
2.5
140
0.25
141
2.5
142
0.125
143
0.03937007874
144
100.0
145
0.0
146
0.5
147
0.1
148
0.0
 69
0
 70
0
 71
0
 72
0
 73
0
 74
0
 75
0
 76
0
 77
1
 78
12
 79
3
170
0
171
3
172
1
173
0
174
0
175
0
176
0
177
0
178
0
179
2
271
2
272
2
273
2
274
3
275
0
276
0
277
2
278
46
279
2
280
0
281
0
282
0
283
0
284
8
285
0
286
0
288
1
289
3
290
0
340
4C
371
-2
372
-2
  0
DIMSTYLE
105
7D
330
4
100
AcDbSymbolTableRecord
100
AcDbDimStyleTableRecord
  2
EZ_M_50_H25_CM
 70
0
 40
1.0
 41
0.125
 42
0.0625
 43
3.75
 44
0.1875
 45
0.0
 46
0.0
 47
0.0
 48
0.0
 49
2.5
140
0.125
141
2.5
142
0.0625
143
0.03937007874
144
100.0
145
0.0
146
0.5
147
0.05
148
0.0
 69
0
 70
0
 71
0
 72
0
 73
0
 74
0
 75
0
 76
0
 77
1
 78
12
 79
3
170
0
171
3
172
1
173
0
174
0
175
0
176
0
177
0
178
0
179
2
271
2
272
2
273
2
274
3
275
0
276
0
277
2
278
46
279
2
280
0
281
0
282
0
283
0
284
8
285
0
286
0
288
1
289
3
290
0
340
4C
371
-2
372
-2
  0
DIMSTYLE
105
7E
330
4
100
AcDbSymbolTableRecord
100
AcDbDimStyleTableRecord
  2
EZ_M_25_H25_CM
 70
0
 40
1.0
 41
0.0625
 42
0.03125
 43
3.75
 44
0.09375
 45
0.0
 46
0.0
 47
0.0
 48
0.0
 49
2.5
140
0.0625
141
2.5
142
0.03125
143
0.03937007874
144
100.0
145
0.0
146
0.5
147
0.025
148
0.0
 69
0
 70
0
 71
0
 72
0
 73
0
 74
0
 75
0
 76
0
 77
1
 78
12
 79
3
170
0
171
3
172
1
173
0
174
0
175
0
176
0
177
0
178
0
179
2
271
2
272
2
273
2
274
3
275
0
276
0
277
2
278
46
279
2
280
0
281
0
282
0
283
0
284
8
285
0
286
0
288
1
289
3
290
0
340
4C
371
-2
372
-2
  0
DIMSTYLE
105
7F
330
4
100
AcDbSymbolTableRecord
100
AcDbDimStyleTableRecord
  2
EZ_M_20_H25_CM
 70
0
 40
1.0
 41
0.05
 42
0.025
 43
3.75
 44
0.07500000000000001
 45
0.0
 46
0.0
 47
0.0
 48
0.0
 49
2.5
140
0.05
141
2.5
142
0.025
143
0.03937007874
144
100.0
145
0.0
146
0.5
147
0.020000000000000004
148
0.0
 69
0
 70
0
 71
0
 72
0
 73
0
 74
0
 75
0
 76
0
 77
1
 78
12
 79
3
170
0
171
3
172
1
173
0
174
0
175
0
176
0
177
0
178
0
179
2
271
2
272
2
273
2
274
3
275
0
276
0
277
2
278
46
279
2
280
0
281
0
282
0
283
0
284
8
285
0
286
0
288
1
289
3
290
0
340
4C
371
-2
372
-2
  0
DIMSTYLE
105
80
330
4
100
AcDbSymbolTableRecord
100
AcDbDimStyleTableRecord
  2
EZ_M_10_H25_CM
 70
0
 40
1.0
 41
0.025
 42
0.0125
 43
3.75
 44
0.037500000000000006
 45
0.0
 46
0.0
 47
0.0
 48
0.0
 49
2.5
140
0.025
141
2.5
142
0.0125
143
0.03937007874
144
100.0
145
0.0
146
0.5
147
0.010000000000000002
148
0.0
 69
0
 70
0
 71
0
 72
0
 73
0
 74
0
 75
0
 76
0
 77
1
 78
12
 79
3
170
0
171
3
172
1
173
0
174
0
175
0
176
0
177
0
178
0
179
2
271
2
272
2
273
2
274
3
275
0
276
0
277
2
278
46
279
2
280
0
281
0
282
0
283
0
284
8
285
0
286
0
288
1
289
3
290
0
340
4C
371
-2
372
-2
  0
DIMSTYLE
105
81
330
4
100
AcDbSymbolTableRecord
100
AcDbDimStyleTableRecord
  2
EZ_M_5_H25_CM
 70
0
 40
1.0
 41
0.0125
 42
0.00625
 43
3.75
 44
0.018750000000000003
 45
0.0
 46
0.0
 47
0.0
 48
0.0
 49
2.5
140
0.0125
141
2.5
142
0.00625
143
0.03937007874
144
100.0
145
0.0
146
0.5
147
0.005000000000000001
148
0.0
 69
0
 70
0
 71
0
 72
0
 73
0
 74
0
 75
0
 76
0
 77
1
 78
12
 79
3
170
0
171
3
172
1
173
0
174
0
175
0
176
0
177
0
178
0
179
2
271
2
272
2
273
2
274
3
275
0
276
0
277
2
278
46
279
2
280
0
281
0
282
0
283
0
284
8
285
0
286
0
288
1
289
3
290
0
340
4C
371
-2
372
-2
  0
DIMSTYLE
105
82
330
4
100
AcDbSymbolTableRecord
100
AcDbDimStyleTableRecord
  2
EZ_M_1_H25_CM
 70
0
 40
1.0
 41
0.0025
 42
0.00125
 43
3.75
 44
0.00375
 45
0.0
 46
0.0
 47
0.0
 48
0.0
 49
2.5
140
0.0025
141
2.5
142
0.00125
143
0.03937007874
144
100.0
145
0.0
146
0.5
147
0.001
148
0.0
 69
0
 70
0
 71
0
 72
0
 73
0
 74
0
 75
0
 76
0
 77
1
 78
12
 79
3
170
0
171
3
172
1
173
0
174
0
175
0
176
0
177
0
178
0
179
2
271
2
272
2
273
2
274
3
275
0
276
0
277
2
278
46
279
2
280
0
281
0
282
0
283
0
284
8
285
0
286
0
288
1
289
3
290
0
340
4C
371
-2
372
-2
  0
DIMSTYLE
105
83
330
4
100
AcDbSymbolTableRecord
100
AcDbDimStyleTableRecord
  2
EZ_RADIUS
 70
0
 40
1.0
 41
0.25
 42
0.125
 43
3.75
 44
0.375
 45
0.0
 46
0.0
 47
0.0
 48
0.0
 49
2.5
140
0.25
141
0.0
142
0.0
143
0.03937007874
144
100.0
145
0.0
146
0.5
147
0.1
148
0.0
 69
0
 70
0
 71
0
 72
0
 73
0
 74
0
 75
0
 76
0
 77
1
 78
12
 79
3
170
0
171
3
172
0
173
0
174
0
175
0
176
0
177
0
178
0
179
2
271
2
272
2
273
2
274
3
275
0
276
0
277
2
278
46
279
1
280
0
281
0
282
0
283
0
284
8
285
0
286
0
288
1
289
3
290
0
340
4C
342
84
371
-2
372
-2
  0
DIMSTYLE
105
88
330
4
100
AcDbSymbolTableRecord
100
AcDbDimStyleTableRecord
  2
EZ_RADIUS_INSIDE
 70
0
 40
1.0
 41
0.25
 42
0.125
 43
3.75
 44
0.375
 45
0.0
 46
0.0
 47
0.0
 48
0.0
 49
2.5
140
0.25
141
0.0
142
0.0
143
0.03937007874
144
100.0
145
0.0
146
0.5
147
0.1
148
0.0
 69
0
 70
0
 71
0
 72
0
 73
0
 74
0
 75
0
 76
0
 77
0
 78
12
 79
3
170
0
171
3
172
0
173
0
174
1
175
0
176
0
177
0
178
0
179
2
271
2
272
2
273
2
274
3
275
0
276
0
277
2
278
46
279
0
280
0
281
0
282
0
283
0
284
8
285
0
286
0
288
1
289
0
290
0
340
4C
342
84
371
-2
372
-2
  0
DIMSTYLE
105
89
330
4
100
AcDbSymbolTableRecord
100
AcDbDimStyleTableRecord
  2
EZ_CURVED
 70
0
 40
1.0
 41
0.25
 42
0.125
 43
3.75
 44
0.375
 45
0.0
 46
0.0
 47
0.0
 48
0.0
 49
2.5
140
0.25
141
2.5
142
0.0
143
0.03937007874
144
100.0
145
0.0
146
0.5
147
0.1
148
0.0
 69
0
 70
0
 71
0
 72
0
 73
0
 74
0
 75
0
 76
0
 77
1
 78
12
 79
2
 90
2
170
0
171
3
172
1
173
0
174
0
175
0
176
0
177
0
178
0
179
2
271
2
272
2
273
2
274
3
275
0
276
0
277
2
278
46
279
2
280
0
281
0
282
0
283
0
284
8
285
0
286
0
288
1
289
3
290
0
340
4C
371
-2
372
-2
  0
ENDTAB
  0
TABLE
  2
BLOCK_RECORD
  5
9
330
0
100
AcDbSymbolTable
 70
5
  0
BLOCK_RECORD
  5
17
330
9
100
AcDbSymbolTableRecord
100
AcDbBlockTableRecord
  2
*Model_Space
340
1A
 70
0
280
1
281
0
  0
BLOCK_RECORD
  5
1B
330
9
100
AcDbSymbolTableRecord
100
AcDbBlockTableRecord
  2
*Paper_Space
340
1E
 70
0
280
1
281
0
  0
BLOCK_RECORD
  5
74
330
9
100
AcDbSymbolTableRecord
100
AcDbBlockTableRecord
  2
_ARCHTICK
340
0
 70
0
280
1
281
0
  0
BLOCK_RECORD
  5
78
330
9
100
AcDbSymbolTableRecord
100
AcDbBlockTableRecord
  2
_CLOSEDFILLED
340
0
 70
0
280
1
281
0
  0
BLOCK_RECORD
  5
84
330
9
100
AcDbSymbolTableRecord
100
AcDbBlockTableRecord
  2
_CLOSEDBLANK
340
0
 70
0
280
1
281
0
  0
ENDTAB
  0
ENDSEC
  0
SECTION
  2
BLOCKS
  0
BLOCK
  5
18
330
17
100
AcDbEntity
  8
0
100
AcDbBlockBegin
  2
*Model_Space
 70
0
 10
0.0
 20
0.0
 30
0.0
  3
*Model_Space
  1

  0
ENDBLK
  5
19
330
17
100
AcDbEntity
  8
0
100
AcDbBlockEnd
  0
BLOCK
  5
1C
330
1B
100
AcDbEntity
  8
0
100
AcDbBlockBegin
  2
*Paper_Space
 70
0
 10
0.0
 20
0.0
 30
0.0
  3
*Paper_Space
  1

  0
ENDBLK
  5
1D
330
1B
100
AcDbEntity
  8
0
100
AcDbBlockEnd
  0
BLOCK
  5
75
330
74
100
AcDbEntity
  8
0
100
AcDbBlockBegin
  2
_ARCHTICK
 70
0
 10
0.0
 20
0.0
 30
0.0
  3
_ARCHTICK
  1

  0
LWPOLYLINE
  5
77
330
74
100
AcDbEntity
  8
0
  6
BYBLOCK
 62
0
100
AcDbPolyline
 90
2
 70
0
 43
0.15
 10
-0.5
 20
-0.5
 10
0.5
 20
0.5
  0
ENDBLK
  5
76
330
74
100
AcDbEntity
  8
0
100
AcDbBlockEnd
  0
BLOCK
  5
79
330
78
100
AcDbEntity
  8
0
100
AcDbBlockBegin
  2
_CLOSEDFILLED
 70
0
 10
0.0
 20
0.0
 30
0.0
  3
_CLOSEDFILLED
  1

  0
SOLID
  5
7B
330
78
100
AcDbEntity
  8
0
  6
BYBLOCK
 62
0
100
AcDbTrace
 10
-1.0
 20
0.16439898372402537
 30
0.0
 11
0.0
 21
0.0
 31
0.0
 12
-1.0
 22
-0.16439898372402537
 32
0.0
 13
-1.0
 23
-0.16439898372402537
 33
0.0
  0
ENDBLK
  5
7A
330
78
100
AcDbEntity
  8
0
100
AcDbBlockEnd
  0
BLOCK
  5
85
330
84
100
AcDbEntity
  8
0
100
AcDbBlockBegin
  2
_CLOSEDBLANK
 70
0
 10
0.0
 20
0.0
 30
0.0
  3
_CLOSEDBLANK
  1

  0
LWPOLYLINE
  5
87
330
84
100
AcDbEntity
  8
0
  6
BYBLOCK
 62
0
100
AcDbPolyline
 90
3
 70
1
 10
-1.0
 20
0.16439898372402537
 10
0.0
 20
0.0
 10
-1.0
 20
-0.16439898372402537
  0
ENDBLK
  5
86
330
84
100
AcDbEntity
  8
0
100
AcDbBlockEnd
  0
ENDSEC
  0
SECTION
  2
ENTITIES
  0
LWPOLYLINE
  5
9B
330
17
100
AcDbEntity
  8
TITLE
100
AcDbPolyline
 90
4
 70
1
 10
75.0
 20
-20.0
 10
327.29999999999995
 20
-20.0
 10
327.29999999999995
 20
158.2
 10
75.0
 20
158.2
  0
LWPOLYLINE
  5
9C
330
17
100
AcDbEntity
  8
TITLE
370
70
100
AcDbPolyline
 90
4
 70
1
 10
78.0
 20
-17.0
 10
324.29999999999995
 20
-17.0
 10
324.29999999999995
 20
155.2
 10
78.0
 20
155.2
  0
LWPOLYLINE
  5
9D
330
17
100
AcDbEntity
  8
TITLE
100
AcDbPolyline
 90
4
 70
1
 10
267.29999999999995
 20
-17.0
 10
324.29999999999995
 20
-17.0
 10
324.29999999999995
 20
0.5500000000000007
 10
267.29999999999995
 20
0.5500000000000007
  0
TEXT
  5
9E
330
17
100
AcDbEntity
  8
TITLE
100
AcDbText
 10
267.9
 20
-16.025
 30
0.0
 40
0.6
  1
NOTE
  7
ALPILLA
 11
267.9
 21
-16.025
 31
0.0
100
AcDbText
 73
2
  0
TEXT
  5
9F
330
17
100
AcDbEntity
  8
TITLE
100
AcDbText
 10
275.69999999999993
 20
-16.025
 30
0.0
 40
0.78
  1
CASE STUDY - fictional; IEC proprietary
  7
ALPILLA
 11
275.69999999999993
 21
-16.025
 31
0.0
100
AcDbText
 73
2
  0
LINE
  5
A0
330
17
100
AcDbEntity
  8
TITLE
100
AcDbLine
 10
267.29999999999995
 20
-15.05
 30
0.0
 11
324.29999999999995
 21
-15.05
 31
0.0
  0
TEXT
  5
A1
330
17
100
AcDbEntity
  8
TITLE
100
AcDbText
 10
267.9
 20
-14.075000000000001
 30
0.0
 40
0.6
  1
DATE / STATUS
  7
ALPILLA
 11
267.9
 21
-14.075000000000001
 31
0.0
100
AcDbText
 73
2
  0
TEXT
  5
A2
330
17
100
AcDbEntity
  8
TITLE
100
AcDbText
 10
275.69999999999993
 20
-14.075000000000001
 30
0.0
 40
0.78
  1
2026-09-28  issued for EPC layout (reference)
  7
ALPILLA
 11
275.69999999999993
 21
-14.075000000000001
 31
0.0
100
AcDbText
 73
2
  0
LINE
  5
A3
330
17
100
AcDbEntity
  8
TITLE
100
AcDbLine
 10
267.29999999999995
 20
-13.1
 30
0.0
 11
324.29999999999995
 21
-13.1
 31
0.0
  0
TEXT
  5
A4
330
17
100
AcDbEntity
  8
TITLE
100
AcDbText
 10
267.9
 20
-12.125
 30
0.0
 40
0.6
  1
COORDINATES
  7
ALPILLA
 11
267.9
 21
-12.125
 31
0.0
100
AcDbText
 73
2
  0
TEXT
  5
A5
330
17
100
AcDbEntity
  8
TITLE
100
AcDbText
 10
275.69999999999993
 20
-12.125
 30
0.0
 40
0.78
  1
plant grid m; levels EL m (grade EL +15.0)
  7
ALPILLA
 11
275.69999999999993
 21
-12.125
 31
0.0
100
AcDbText
 73
2
  0
LINE
  5
A6
330
17
100
AcDbEntity
  8
TITLE
100
AcDbLine
 10
267.29999999999995
 20
-11.15
 30
0.0
 11
324.29999999999995
 21
-11.15
 31
0.0
  0
TEXT
  5
A7
330
17
100
AcDbEntity
  8
TITLE
100
AcDbText
 10
267.9
 20
-10.175
 30
0.0
 40
0.6
  1
SCALE / SHEET
  7
ALPILLA
 11
267.9
 21
-10.175
 31
0.0
100
AcDbText
 73
2
  0
TEXT
  5
A8
330
17
100
AcDbEntity
  8
TITLE
100
AcDbText
 10
275.69999999999993
 20
-10.175
 30
0.0
 40
0.78
  1
1:300 on A1 / 1 of 1
  7
ALPILLA
 11
275.69999999999993
 21
-10.175
 31
0.0
100
AcDbText
 73
2
  0
LINE
  5
A9
330
17
100
AcDbEntity
  8
TITLE
100
AcDbLine
 10
267.29999999999995
 20
-9.2
 30
0.0
 11
324.29999999999995
 21
-9.2
 31
0.0
  0
TEXT
  5
AA
330
17
100
AcDbEntity
  8
TITLE
100
AcDbText
 10
267.9
 20
-8.225
 30
0.0
 40
0.6
  1
DWG NO / REV
  7
ALPILLA
 11
267.9
 21
-8.225
 31
0.0
100
AcDbText
 73
2
  0
TEXT
  5
AB
330
17
100
AcDbEntity
  8
TITLE
100
AcDbText
 10
275.69999999999993
 20
-8.225
 30
0.0
 40
0.78
  1
IEC-ALP-GA-102  Rev 0
  7
ALPILLA
 11
275.69999999999993
 21
-8.225
 31
0.0
100
AcDbText
 73
2
  0
LINE
  5
AC
330
17
100
AcDbEntity
  8
TITLE
100
AcDbLine
 10
267.29999999999995
 20
-7.25
 30
0.0
 11
324.29999999999995
 21
-7.25
 31
0.0
  0
TEXT
  5
AD
330
17
100
AcDbEntity
  8
TITLE
100
AcDbText
 10
267.9
 20
-6.275
 30
0.0
 40
0.6
  1
TITLE
  7
ALPILLA
 11
267.9
 21
-6.275
 31
0.0
100
AcDbText
 73
2
  0
TEXT
  5
AE
330
17
100
AcDbEntity
  8
TITLE
100
AcDbText
 10
275.69999999999993
 20
-6.275
 30
0.0
 40
0.78
  1
STEAM TURBINE, GENERATOR AND CONDENSER - GA, MAINTENANCE
  7
ALPILLA
 11
275.69999999999993
 21
-6.275
 31
0.0
100
AcDbText
 73
2
  0
LINE
  5
AF
330
17
100
AcDbEntity
  8
TITLE
100
AcDbLine
 10
267.29999999999995
 20
-5.300000000000001
 30
0.0
 11
324.29999999999995
 21
-5.300000000000001
 31
0.0
  0
TEXT
  5
B0
330
17
100
AcDbEntity
  8
TITLE
100
AcDbText
 10
267.9
 20
-4.325000000000001
 30
0.0
 40
0.6
  1
CLIENT
  7
ALPILLA
 11
267.9
 21
-4.325000000000001
 31
0.0
100
AcDbText
 73
2
  0
TEXT
  5
B1
330
17
100
AcDbEntity
  8
TITLE
100
AcDbText
 10
275.69999999999993
 20
-4.325000000000001
 30
0.0
 40
0.78
  1
Istanbul EPC (consortium leader) - EPC engineering
  7
ALPILLA
 11
275.69999999999993
 21
-4.325000000000001
 31
0.0
100
AcDbText
 73
2
  0
LINE
  5
B2
330
17
100
AcDbEntity
  8
TITLE
100
AcDbLine
 10
267.29999999999995
 20
-3.3499999999999996
 30
0.0
 11
324.29999999999995
 21
-3.3499999999999996
 31
0.0
  0
TEXT
  5
B3
330
17
100
AcDbEntity
  8
TITLE
100
AcDbText
 10
267.9
 20
-2.3749999999999996
 30
0.0
 40
0.6
  1
PROJECT
  7
ALPILLA
 11
267.9
 21
-2.3749999999999996
 31
0.0
100
AcDbText
 73
2
  0
TEXT
  5
B4
330
17
100
AcDbEntity
  8
TITLE
100
AcDbText
 10
275.69999999999993
 20
-2.3749999999999996
 30
0.0
 40
0.78
  1
Alpilla 600 MW CCGT - 1 x IE-9H.02 multi-shaft power island
  7
ALPILLA
 11
275.69999999999993
 21
-2.3749999999999996
 31
0.0
100
AcDbText
 73
2
  0
LINE
  5
B5
330
17
100
AcDbEntity
  8
TITLE
100
AcDbLine
 10
267.29999999999995
 20
-1.4000000000000004
 30
0.0
 11
324.29999999999995
 21
-1.4000000000000004
 31
0.0
  0
TEXT
  5
B6
330
17
100
AcDbEntity
  8
TITLE
100
AcDbText
 10
267.9
 20
-0.4250000000000004
 30
0.0
 40
0.6
  1
VENDOR
  7
ALPILLA
 11
267.9
 21
-0.4250000000000004
 31
0.0
100
AcDbText
 73
2
  0
TEXT
  5
B7
330
17
100
AcDbEntity
  8
TITLE
100
AcDbText
 10
275.69999999999993
 20
-0.4250000000000004
 30
0.0
 40
0.78
  1
Imaginary Electric Company - Power Generation Division (fictional)
  7
ALPILLA
 11
275.69999999999993
 21
-0.4250000000000004
 31
0.0
100
AcDbText
 73
2
  0
LINE
  5
B8
330
17
100
AcDbEntity
  8
TITLE
100
AcDbLine
 10
275.09999999999997
 20
-17.0
 30
0.0
 11
275.09999999999997
 21
0.5500000000000007
 31
0.0
  0
TEXT
  5
B9
330
17
100
AcDbEntity
  8
ANNO
100
AcDbText
 10
85.0
 20
133.0
 30
0.0
 40
0.8999999999999999
  1
PLAN (grid E/N m)
  7
IEC
 11
85.0
 21
133.0
 31
0.0
100
AcDbText
  0
LWPOLYLINE
  5
BA
330
17
100
AcDbEntity
  8
EPC
  6
DASHED
370
50
100
AcDbPolyline
 90
4
 70
1
 10
85.0
 20
60.0
 10
170.0
 20
60.0
 10
170.0
 20
110.0
 10
85.0
 20
110.0
  0
TEXT
  5
BB
330
17
100
AcDbEntity
  8
EPC
100
AcDbText
 10
127.5
 20
111.2
 30
0.0
 40
0.675
  1
ST HALL (EPC) 85 x 50 m
  7
IEC
 72
1
 11
127.5
 21
111.2
 31
0.0
100
AcDbText
  0
LWPOLYLINE
  5
BC
330
17
100
AcDbEntity
  8
CRANE
  6
DASHDOT
100
AcDbPolyline
 90
4
 70
1
 10
87.0
 20
62.0
 10
168.0
 20
62.0
 10
168.0
 20
108.0
 10
87.0
 20
108.0
  0
TEXT
  5
BD
330
17
100
AcDbEntity
  8
CRANE
100
AcDbText
 10
88.0
 20
63.0
 30
0.0
 40
0.5700000000000001
  1
100 t EOT hook coverage
  7
IEC
 11
88.0
 21
63.0
 31
0.0
100
AcDbText
  0
LWPOLYLINE
  5
BE
330
17
100
AcDbEntity
  8
IEC
370
50
100
AcDbPolyline
 90
4
 70
1
 10
105.0
 20
92.95
 10
113.6
 20
92.95
 10
113.6
 20
97.05
 10
105.0
 20
97.05
  0
LWPOLYLINE
  5
BF
330
17
100
AcDbEntity
  8
IEC
370
50
100
AcDbPolyline
 90
4
 70
1
 10
122.0
 20
92.5
 10
130.0
 20
92.5
 10
130.0
 20
97.5
 10
122.0
 20
97.5
  0
LWPOLYLINE
  5
C0
330
17
100
AcDbEntity
  8
IEC
370
50
100
AcDbPolyline
 90
4
 70
1
 10
134.0
 20
90.5
 10
150.0
 20
90.5
 10
150.0
 20
99.5
 10
134.0
 20
99.5
  0
LWPOLYLINE
  5
C1
330
17
100
AcDbEntity
  8
IEC
370
50
100
AcDbPolyline
 90
4
 70
1
 10
132.0
 20
64.0
 10
152.0
 20
64.0
 10
152.0
 20
84.0
 10
132.0
 20
84.0
  0
LWPOLYLINE
  5
C2
330
17
100
AcDbEntity
  8
IEC
370
50
100
AcDbPolyline
 90
4
 70
1
 10
89.0
 20
116.0
 10
103.2
 20
116.0
 10
103.2
 20
119.8
 10
89.0
 20
119.8
  0
TEXT
  5
C3
330
17
100
AcDbEntity
  8
IEC
100
AcDbText
 10
109.3
 20
98.0
 30
0.0
 40
0.5700000000000001
  1
ST GENERATOR 270 MVA
  7
IEC
 72
1
 11
109.3
 21
98.0
 31
0.0
100
AcDbText
  0
TEXT
  5
C4
330
17
100
AcDbEntity
  8
IEC
100
AcDbText
 10
126.0
 20
98.2
 30
0.0
 40
0.5700000000000001
  1
HP 92 t
  7
IEC
 72
1
 11
126.0
 21
98.2
 31
0.0
100
AcDbText
  0
TEXT
  5
C5
330
17
100
AcDbEntity
  8
IEC
100
AcDbText
 10
142.0
 20
100.2
 30
0.0
 40
0.5700000000000001
  1
IP/LP (rotor 86 t)
  7
IEC
 72
1
 11
142.0
 21
100.2
 31
0.0
100
AcDbText
  0
TEXT
  5
C6
330
17
100
AcDbEntity
  8
IEC
100
AcDbText
 10
142.0
 20
75.5
 30
0.0
 40
0.5700000000000001
  1
CONDENSER (side exhaust)
  7
IEC
 72
1
 11
142.0
 21
75.5
 31
0.0
100
AcDbText
  0
TEXT
  5
C7
330
17
100
AcDbEntity
  8
IEC
100
AcDbText
 10
142.0
 20
72.5
 30
0.0
 40
0.5700000000000001
  1
4 modules x 95 t, Ti tubes 9.35 m
  7
IEC
 72
1
 11
142.0
 21
72.5
 31
0.0
100
AcDbText
  0
TEXT
  5
C8
330
17
100
AcDbEntity
  8
IEC
100
AcDbText
 10
131.5
 20
65.5
 30
0.0
 40
0.5700000000000001
  1
inlet/outlet water boxes (west)
  7
IEC
 72
2
 11
131.5
 21
65.5
 31
0.0
100
AcDbText
  0
TEXT
  5
C9
330
17
100
AcDbEntity
  8
IEC
100
AcDbText
 10
96.1
 20
120.8
 30
0.0
 40
0.5700000000000001
  1
ST GSU (GA-104)
  7
IEC
 72
1
 11
96.1
 21
120.8
 31
0.0
100
AcDbText
  0
LWPOLYLINE
  5
CA
330
17
100
AcDbEntity
  8
EPC
  6
DASHED
100
AcDbPolyline
 90
4
 70
1
 10
87.5
 20
114.5
 10
104.7
 20
114.5
 10
104.7
 20
121.3
 10
87.5
 20
121.3
  0
LINE
  5
CB
330
17
100
AcDbEntity
  8
EPC
370
100
100
AcDbLine
 10
89.0
 20
111.0
 30
0.0
 11
103.2
 21
111.0
 31
0.0
  0
LWPOLYLINE
  5
CC
330
17
100
AcDbEntity
  8
MAINT
  6
DASHED
100
AcDbPolyline
 90
4
 70
1
 10
93.0
 20
94.1
 10
105.0
 20
94.1
 10
105.0
 20
95.9
 10
93.0
 20
95.9
  0
TEXT
  5
CD
330
17
100
AcDbEntity
  8
MAINT
100
AcDbText
 10
99.0
 20
95.1938
 30
0.0
 40
0.5700000000000001
  1
ROTOR WITHDRAWAL
  7
IEC
 72
1
 11
99.0
 21
95.1938
 31
0.0
100
AcDbText
  0
TEXT
  5
CE
330
17
100
AcDbEntity
  8
MAINT
100
AcDbText
 10
99.0
 20
94.2248
 30
0.0
 40
0.5700000000000001
  1
46 t, 12 m
  7
IEC
 72
1
 11
99.0
 21
94.2248
 31
0.0
100
AcDbText
  0
HATCH
  5
CF
330
17
100
AcDbEntity
  8
MAINT
100
AcDbHatch
 10
0.0
 20
0.0
 30
0.0
210
0.0
220
0.0
230
1.0
  2
ANSI31
 70
0
 71
0
 91
3
 92
3
 72
0
 73
1
 93
4
 10
93.0
 20
94.1
 10
105.0
 20
94.1
 10
105.0
 20
95.9
 10
93.0
 20
95.9
 97
0
 92
18
 72
0
 73
1
 93
4
 10
95.3292
 20
95.0513
 10
102.67080000000001
 20
95.0513
 10
102.67080000000001
 20
95.8493
 10
95.3292
 20
95.8493
 97
0
 92
18
 72
0
 73
1
 93
4
 10
96.663
 20
94.1
 10
101.337
 20
94.1
 10
101.337
 20
94.8803
 10
96.663
 20
94.8803
 97
0
 75
0
 76
1
 52
0.0
 41
1.2
 77
0
 78
1
 53
45.0
 43
0.0
 44
0.0
 45
-2.6940768364
 46
2.6940768364
 79
0
 98
0
  0
LWPOLYLINE
  5
D0
330
17
100
AcDbEntity
  8
MAINT
  6
DASHED
100
AcDbPolyline
 90
4
 70
1
 10
152.0
 20
66.0
 10
163.0
 20
66.0
 10
163.0
 20
82.0
 10
152.0
 20
82.0
  0
TEXT
  5
D1
330
17
100
AcDbEntity
  8
MAINT
100
AcDbText
 10
157.5
 20
74.6783
 30
0.0
 40
0.5700000000000001
  1
TUBE PULL
  7
IEC
 72
1
 11
157.5
 21
74.6783
 31
0.0
100
AcDbText
  0
TEXT
  5
D2
330
17
100
AcDbEntity
  8
MAINT
100
AcDbText
 10
157.5
 20
73.7093
 30
0.0
 40
0.5700000000000001
  1
11 m clear
  7
IEC
 72
1
 11
157.5
 21
73.7093
 31
0.0
100
AcDbText
  0
TEXT
  5
D3
330
17
100
AcDbEntity
  8
MAINT
100
AcDbText
 10
157.5
 20
72.7403
 30
0.0
 40
0.5700000000000001
  1
(return box end)
  7
IEC
 72
1
 11
157.5
 21
72.7403
 31
0.0
100
AcDbText
  0
HATCH
  5
D4
330
17
100
AcDbEntity
  8
MAINT
100
AcDbHatch
 10
0.0
 20
0.0
 30
0.0
210
0.0
220
0.0
230
1.0
  2
ANSI31
 70
0
 71
0
 91
4
 92
3
 72
0
 73
1
 93
4
 10
152.0
 20
66.0
 10
163.0
 20
66.0
 10
163.0
 20
82.0
 10
152.0
 20
82.0
 97
0
 92
18
 72
0
 73
1
 93
4
 10
155.3853
 20
74.5358
 10
159.6147
 20
74.5358
 10
159.6147
 20
75.3338
 10
155.3853
 20
75.3338
 97
0
 92
18
 72
0
 73
1
 93
4
 10
155.16299999999998
 20
73.5668
 10
159.837
 20
73.5668
 10
159.837
 20
74.3648
 10
155.16299999999998
 20
74.3648
 97
0
 92
18
 72
0
 73
1
 93
4
 10
153.8292
 20
72.5978
 10
161.17079999999999
 20
72.5978
 10
161.17079999999999
 20
73.39580000000001
 10
153.8292
 20
73.39580000000001
 97
0
 75
0
 76
1
 52
0.0
 41
1.2
 77
0
 78
1
 53
45.0
 43
0.0
 44
0.0
 45
-2.6940768364
 46
2.6940768364
 79
0
 98
0
  0
LWPOLYLINE
  5
D5
330
17
100
AcDbEntity
  8
LAYDOWN
  6
DASHED
100
AcDbPolyline
 90
4
 70
1
 10
118.0
 20
101.0
 10
166.0
 20
101.0
 10
166.0
 20
108.5
 10
118.0
 20
108.5
  0
TEXT
  5
D6
330
17
100
AcDbEntity
  8
LAYDOWN
100
AcDbText
 10
142.0
 20
104.4593
 30
0.0
 40
0.5700000000000001
  1
ST LAYDOWN 48 x 7.5 = 360 m2 - rotor stands 86 t / 46 t
  7
IEC
 72
1
 11
142.0
 21
104.4593
 31
0.0
100
AcDbText
  0
HATCH
  5
D7
330
17
100
AcDbEntity
  8
LAYDOWN
100
AcDbHatch
 10
0.0
 20
0.0
 30
0.0
210
0.0
220
0.0
230
1.0
  2
ANSI31
 70
0
 71
0
 91
2
 92
3
 72
0
 73
1
 93
4
 10
118.0
 20
101.0
 10
166.0
 20
101.0
 10
166.0
 20
108.5
 10
118.0
 20
108.5
 97
0
 92
18
 72
0
 73
1
 93
4
 10
129.6595
 20
104.3168
 10
154.34050000000002
 20
104.3168
 10
154.34050000000002
 20
105.1148
 10
129.6595
 20
105.1148
 97
0
 75
0
 76
1
 52
0.0
 41
1.2
 77
0
 78
1
 53
45.0
 43
0.0
 44
0.0
 45
-2.6940768364
 46
2.6940768364
 79
0
 98
0
  0
LWPOLYLINE
  5
D8
330
17
100
AcDbEntity
  8
ACCESS
370
50
100
AcDbPolyline
 90
2
 70
0
 10
80.0
 20
95.0
 10
92.5
 20
95.0
  0
LWPOLYLINE
  5
D9
330
17
100
AcDbEntity
  8
ACCESS
370
50
100
AcDbPolyline
 90
3
 70
0
 10
91.45
 20
94.475
 10
92.5
 20
95.0
 10
91.45
 20
95.525
  0
TEXT
  5
DA
330
17
100
AcDbEntity
  8
ACCESS
100
AcDbText
 10
86.7
 20
95.3
 30
0.0
 40
0.5700000000000001
  1
SPMT
  7
IEC
 11
86.7
 21
95.3
 31
0.0
100
AcDbText
  0
TEXT
  5
DB
330
17
100
AcDbEntity
  8
ACCESS
100
AcDbText
 10
86.0
 20
89.0
 30
0.0
 40
0.5700000000000001
  1
west door 7 x 8 m
  7
IEC
 11
86.0
 21
89.0
 31
0.0
100
AcDbText
  0
LWPOLYLINE
  5
DC
330
17
100
AcDbEntity
  8
EPC
  6
DASHED
100
AcDbPolyline
 90
4
 70
0
 10
136.0
 20
64.0
 10
136.0
 20
40.0
 10
148.0
 20
40.0
 10
148.0
 20
64.0
  0
TEXT
  5
DD
330
17
100
AcDbEntity
  8
EPC
100
AcDbText
 10
150.0
 20
45.0
 30
0.0
 40
0.5700000000000001
  1
CW pipes to the pump house (EPC)
  7
IEC
 11
150.0
 21
45.0
 31
0.0
100
AcDbText
  0
CIRCLE
  5
DE
330
17
100
AcDbEntity
  8
TIEIN
100
AcDbCircle
 10
124.0
 20
92.5
 30
0.0
 40
0.6000000000000001
  0
TEXT
  5
DF
330
17
100
AcDbEntity
  8
TIEIN
100
AcDbText
 10
124.75
 20
92.875
 30
0.0
 40
0.5700000000000001
  1
IF-06
  7
IEC
 11
124.75
 21
92.875
 31
0.0
100
AcDbText
  0
CIRCLE
  5
E0
330
17
100
AcDbEntity
  8
TIEIN
100
AcDbCircle
 10
134.0
 20
90.5
 30
0.0
 40
0.6000000000000001
  0
TEXT
  5
E1
330
17
100
AcDbEntity
  8
TIEIN
100
AcDbText
 10
134.75
 20
90.875
 30
0.0
 40
0.5700000000000001
  1
IF-10
  7
IEC
 11
134.75
 21
90.875
 31
0.0
100
AcDbText
  0
CIRCLE
  5
E2
330
17
100
AcDbEntity
  8
TIEIN
100
AcDbCircle
 10
132.0
 20
68.0
 30
0.0
 40
0.6000000000000001
  0
TEXT
  5
E3
330
17
100
AcDbEntity
  8
TIEIN
100
AcDbText
 10
132.75
 20
68.375
 30
0.0
 40
0.5700000000000001
  1
IF-27
  7
IEC
 11
132.75
 21
68.375
 31
0.0
100
AcDbText
  0
CIRCLE
  5
E4
330
17
100
AcDbEntity
  8
TIEIN
100
AcDbCircle
 10
140.0
 20
64.0
 30
0.0
 40
0.6000000000000001
  0
TEXT
  5
E5
330
17
100
AcDbEntity
  8
TIEIN
100
AcDbText
 10
140.75
 20
64.375
 30
0.0
 40
0.5700000000000001
  1
IF-15
  7
IEC
 11
140.75
 21
64.375
 31
0.0
100
AcDbText
  0
CIRCLE
  5
E6
330
17
100
AcDbEntity
  8
TIEIN
100
AcDbCircle
 10
103.2
 20
118.0
 30
0.0
 40
0.6000000000000001
  0
TEXT
  5
E7
330
17
100
AcDbEntity
  8
TIEIN
100
AcDbText
 10
103.95
 20
118.375
 30
0.0
 40
0.5700000000000001
  1
IF-35
  7
IEC
 11
103.95
 21
118.375
 31
0.0
100
AcDbText
  0
LINE
  5
E8
330
17
100
AcDbEntity
  8
DIM
100
AcDbLine
 10
85.0
 20
60.0
 30
0.0
 11
85.0
 21
55.55
 31
0.0
  0
LINE
  5
E9
330
17
100
AcDbEntity
  8
DIM
100
AcDbLine
 10
170.0
 20
60.0
 30
0.0
 11
170.0
 21
55.55
 31
0.0
  0
LINE
  5
EA
330
17
100
AcDbEntity
  8
DIM
100
AcDbLine
 10
85.0
 20
56.0
 30
0.0
 11
170.0
 21
56.0
 31
0.0
  0
LINE
  5
EB
330
17
100
AcDbEntity
  8
DIM
100
AcDbLine
 10
84.7
 20
55.7
 30
0.0
 11
85.3
 21
56.3
 31
0.0
  0
LINE
  5
EC
330
17
100
AcDbEntity
  8
DIM
100
AcDbLine
 10
169.7
 20
55.7
 30
0.0
 11
170.3
 21
56.3
 31
0.0
  0
TEXT
  5
ED
330
17
100
AcDbEntity
  8
DIM
100
AcDbText
 10
127.5
 20
56.225
 30
0.0
 40
0.6000000000000001
  1
85.0
  7
IEC
 72
1
 11
127.5
 21
56.225
 31
0.0
100
AcDbText
  0
LINE
  5
EE
330
17
100
AcDbEntity
  8
DIM
100
AcDbLine
 10
170.0
 20
60.0
 30
0.0
 11
174.45
 21
60.0
 31
0.0
  0
LINE
  5
EF
330
17
100
AcDbEntity
  8
DIM
100
AcDbLine
 10
170.0
 20
110.0
 30
0.0
 11
174.45
 21
110.0
 31
0.0
  0
LINE
  5
F0
330
17
100
AcDbEntity
  8
DIM
100
AcDbLine
 10
174.0
 20
60.0
 30
0.0
 11
174.0
 21
110.0
 31
0.0
  0
LINE
  5
F1
330
17
100
AcDbEntity
  8
DIM
100
AcDbLine
 10
173.7
 20
59.7
 30
0.0
 11
174.3
 21
60.3
 31
0.0
  0
LINE
  5
F2
330
17
100
AcDbEntity
  8
DIM
100
AcDbLine
 10
173.7
 20
109.7
 30
0.0
 11
174.3
 21
110.3
 31
0.0
  0
TEXT
  5
F3
330
17
100
AcDbEntity
  8
DIM
100
AcDbText
 10
173.7
 20
85.0
 30
0.0
 40
0.6000000000000001
  1
50.0
 50
90.0
  7
IEC
 72
1
 11
173.7
 21
85.0
 31
0.0
100
AcDbText
  0
LINE
  5
F4
330
17
100
AcDbEntity
  8
DIM
100
AcDbLine
 10
93.0
 20
95.0
 30
0.0
 11
93.0
 21
88.05
 31
0.0
  0
LINE
  5
F5
330
17
100
AcDbEntity
  8
DIM
100
AcDbLine
 10
105.0
 20
95.0
 30
0.0
 11
105.0
 21
88.05
 31
0.0
  0
LINE
  5
F6
330
17
100
AcDbEntity
  8
DIM
100
AcDbLine
 10
93.0
 20
88.5
 30
0.0
 11
105.0
 21
88.5
 31
0.0
  0
LINE
  5
F7
330
17
100
AcDbEntity
  8
DIM
100
AcDbLine
 10
92.7
 20
88.2
 30
0.0
 11
93.3
 21
88.8
 31
0.0
  0
LINE
  5
F8
330
17
100
AcDbEntity
  8
DIM
100
AcDbLine
 10
104.7
 20
88.2
 30
0.0
 11
105.3
 21
88.8
 31
0.0
  0
TEXT
  5
F9
330
17
100
AcDbEntity
  8
DIM
100
AcDbText
 10
99.0
 20
88.725
 30
0.0
 40
0.6000000000000001
  1
12.0
  7
IEC
 72
1
 11
99.0
 21
88.725
 31
0.0
100
AcDbText
  0
LINE
  5
FA
330
17
100
AcDbEntity
  8
DIM
100
AcDbLine
 10
152.0
 20
66.0
 30
0.0
 11
152.0
 21
62.55
 31
0.0
  0
LINE
  5
FB
330
17
100
AcDbEntity
  8
DIM
100
AcDbLine
 10
163.0
 20
66.0
 30
0.0
 11
163.0
 21
62.55
 31
0.0
  0
LINE
  5
FC
330
17
100
AcDbEntity
  8
DIM
100
AcDbLine
 10
152.0
 20
63.0
 30
0.0
 11
163.0
 21
63.0
 31
0.0
  0
LINE
  5
FD
330
17
100
AcDbEntity
  8
DIM
100
AcDbLine
 10
151.7
 20
62.7
 30
0.0
 11
152.3
 21
63.3
 31
0.0
  0
LINE
  5
FE
330
17
100
AcDbEntity
  8
DIM
100
AcDbLine
 10
162.7
 20
62.7
 30
0.0
 11
163.3
 21
63.3
 31
0.0
  0
TEXT
  5
FF
330
17
100
AcDbEntity
  8
DIM
100
AcDbText
 10
157.5
 20
63.225
 30
0.0
 40
0.6000000000000001
  1
11.0
  7
IEC
 72
1
 11
157.5
 21
63.225
 31
0.0
100
AcDbText
  0
TEXT
  5
100
330
17
100
AcDbEntity
  8
ANNO
100
AcDbText
 10
85.6
 20
92.8
 30
0.0
 40
0.5700000000000001
  1
ST axis N 95.0
  7
IEC
 11
85.6
 21
92.8
 31
0.0
100
AcDbText
  0
TEXT
  5
101
330
17
100
AcDbEntity
  8
ANNO
100
AcDbText
 10
85.0
 20
26.9
 30
0.0
 40
0.8999999999999999
  1
SECTION ON ST AXIS (looking north), EL m
  7
IEC
 11
85.0
 21
26.9
 31
0.0
100
AcDbText
  0
LINE
  5
102
330
17
100
AcDbEntity
  8
ANNO
370
50
100
AcDbLine
 10
83.0
 20
-5.6
 30
0.0
 11
172.0
 21
-5.6
 31
0.0
  0
TEXT
  5
103
330
17
100
AcDbEntity
  8
ANNO
100
AcDbText
 10
172.5
 20
-5.8999999999999995
 30
0.0
 40
0.5700000000000001
  1
GRADE EL +15.0
  7
IEC
 11
172.5
 21
-5.8999999999999995
 31
0.0
100
AcDbText
  0
LWPOLYLINE
  5
104
330
17
100
AcDbEntity
  8
EPC
  6
DASHED
100
AcDbPolyline
 90
4
 70
1
 10
85.0
 20
-5.6
 10
170.0
 20
-5.6
 10
170.0
 20
24.4
 10
85.0
 20
24.4
  0
LWPOLYLINE
  5
105
330
17
100
AcDbEntity
  8
EPC
  6
DASHED
100
AcDbPolyline
 90
4
 70
1
 10
100.0
 20
-5.6
 10
155.0
 20
-5.6
 10
155.0
 20
3.3999999999999986
 10
100.0
 20
3.3999999999999986
  0
TEXT
  5
106
330
17
100
AcDbEntity
  8
EPC
100
AcDbText
 10
101.0
 20
-0.5999999999999996
 30
0.0
 40
0.5700000000000001
  1
spring-mounted table-top, operating deck EL +24.0 (EPC)
  7
IEC
 11
101.0
 21
-0.5999999999999996
 31
0.0
100
AcDbText
  0
LINE
  5
107
330
17
100
AcDbEntity
  8
CRANE
  6
DASHDOT
100
AcDbLine
 10
85.0
 20
20.4
 30
0.0
 11
170.0
 21
20.4
 31
0.0
  0
TEXT
  5
108
330
17
100
AcDbEntity
  8
CRANE
100
AcDbText
 10
86.0
 20
20.799999999999997
 30
0.0
 40
0.5700000000000001
  1
crane rail EL +41.0
  7
IEC
 11
86.0
 21
20.799999999999997
 31
0.0
100
AcDbText
  0
LINE
  5
109
330
17
100
AcDbEntity
  8
CRANE
  6
DASHDOT
100
AcDbLine
 10
85.0
 20
18.4
 30
0.0
 11
170.0
 21
18.4
 31
0.0
  0
TEXT
  5
10A
330
17
100
AcDbEntity
  8
CRANE
100
AcDbText
 10
86.0
 20
18.799999999999997
 30
0.0
 40
0.5700000000000001
  1
hook max EL +39.0 (15 m above deck)
  7
IEC
 11
86.0
 21
18.799999999999997
 31
0.0
100
AcDbText
  0
LWPOLYLINE
  5
10B
330
17
100
AcDbEntity
  8
IEC
370
50
100
AcDbPolyline
 90
4
 70
1
 10
105.0
 20
3.3999999999999986
 10
113.6
 20
3.3999999999999986
 10
113.6
 20
8.600000000000001
 10
105.0
 20
8.600000000000001
  0
LWPOLYLINE
  5
10C
330
17
100
AcDbEntity
  8
IEC
370
50
100
AcDbPolyline
 90
4
 70
1
 10
122.0
 20
3.3999999999999986
 10
130.0
 20
3.3999999999999986
 10
130.0
 20
9.399999999999999
 10
122.0
 20
9.399999999999999
  0
LWPOLYLINE
  5
10D
330
17
100
AcDbEntity
  8
IEC
370
50
100
AcDbPolyline
 90
4
 70
1
 10
134.0
 20
3.3999999999999986
 10
150.0
 20
3.3999999999999986
 10
150.0
 20
10.399999999999999
 10
134.0
 20
10.399999999999999
  0
LWPOLYLINE
  5
10E
330
17
100
AcDbEntity
  8
HIDDEN
  6
DASHED
100
AcDbPolyline
 90
4
 70
1
 10
132.0
 20
-5.6
 10
152.0
 20
-5.6
 10
152.0
 20
7.399999999999999
 10
132.0
 20
7.399999999999999
  0
TEXT
  5
10F
330
17
100
AcDbEntity
  8
HIDDEN
100
AcDbText
 10
132.5
 20
-4.6
 30
0.0
 40
0.5700000000000001
  1
condenser behind (south), top EL +28.0
  7
IEC
 11
132.5
 21
-4.6
 31
0.0
100
AcDbText
  0
LWPOLYLINE
  5
110
330
17
100
AcDbEntity
  8
MAINT
  6
DASHED
100
AcDbPolyline
 90
4
 70
1
 10
134.0
 20
10.899999999999999
 10
150.0
 20
10.899999999999999
 10
150.0
 20
15.899999999999999
 10
134.0
 20
15.899999999999999
  0
TEXT
  5
111
330
17
100
AcDbEntity
  8
MAINT
100
AcDbText
 10
142.0
 20
13.593799999999998
 30
0.0
 40
0.5700000000000001
  1
ROTOR / CASING LIFT
  7
IEC
 72
1
 11
142.0
 21
13.593799999999998
 31
0.0
100
AcDbText
  0
TEXT
  5
112
330
17
100
AcDbEntity
  8
MAINT
100
AcDbText
 10
142.0
 20
12.624799999999999
 30
0.0
 40
0.5700000000000001
  1
86 t over the lower half
  7
IEC
 72
1
 11
142.0
 21
12.624799999999999
 31
0.0
100
AcDbText
  0
HATCH
  5
113
330
17
100
AcDbEntity
  8
MAINT
100
AcDbHatch
 10
0.0
 20
0.0
 30
0.0
210
0.0
220
0.0
230
1.0
  2
ANSI31
 70
0
 71
0
 91
3
 92
3
 72
0
 73
1
 93
4
 10
134.0
 20
10.899999999999999
 10
150.0
 20
10.899999999999999
 10
150.0
 20
15.899999999999999
 10
134.0
 20
15.899999999999999
 97
0
 92
18
 72
0
 73
1
 93
4
 10
137.6623
 20
13.451299999999998
 10
146.3377
 20
13.451299999999998
 10
146.3377
 20
14.249299999999998
 10
137.6623
 20
14.249299999999998
 97
0
 92
18
 72
0
 73
1
 93
4
 10
136.5508
 20
12.482299999999999
 10
147.44920000000002
 20
12.482299999999999
 10
147.44920000000002
 20
13.280299999999999
 10
136.5508
 20
13.280299999999999
 97
0
 75
0
 76
1
 52
0.0
 41
1.2
 77
0
 78
1
 53
45.0
 43
0.0
 44
0.0
 45
-2.6940768364
 46
2.6940768364
 79
0
 98
0
  0
LINE
  5
114
330
17
100
AcDbEntity
  8
DIM
100
AcDbLine
 10
168.0
 20
3.3999999999999986
 30
0.0
 11
165.55
 21
3.3999999999999986
 31
0.0
  0
LINE
  5
115
330
17
100
AcDbEntity
  8
DIM
100
AcDbLine
 10
168.0
 20
18.4
 30
0.0
 11
165.55
 21
18.4
 31
0.0
  0
LINE
  5
116
330
17
100
AcDbEntity
  8
DIM
100
AcDbLine
 10
166.0
 20
3.3999999999999986
 30
0.0
 11
166.0
 21
18.4
 31
0.0
  0
LINE
  5
117
330
17
100
AcDbEntity
  8
DIM
100
AcDbLine
 10
165.7
 20
3.0999999999999988
 30
0.0
 11
166.3
 21
3.6999999999999984
 31
0.0
  0
LINE
  5
118
330
17
100
AcDbEntity
  8
DIM
100
AcDbLine
 10
165.7
 20
18.099999999999998
 30
0.0
 11
166.3
 21
18.7
 31
0.0
  0
TEXT
  5
119
330
17
100
AcDbEntity
  8
DIM
100
AcDbText
 10
165.7
 20
10.899999999999999
 30
0.0
 40
0.6000000000000001
  1
15.0
 50
90.0
  7
IEC
 72
1
 11
165.7
 21
10.899999999999999
 31
0.0
100
AcDbText
  0
TEXT
  5
11A
330
17
100
AcDbEntity
  8
ANNO
100
AcDbText
 10
226.5
 20
152.05599999999998
 30
0.0
 40
0.7875000000000001
  1
1. WEIGHTS AND LIFTS
  7
IEC
 11
226.5
 21
152.05599999999998
 31
0.0
100
AcDbText
  0
LWPOLYLINE
  5
11B
330
17
100
AcDbEntity
  8
ANNO
100
AcDbPolyline
 90
4
 70
1
 10
226.5
 20
150.26049999999998
 10
245.1
 20
150.26049999999998
 10
245.1
 20
151.486
 10
226.5
 20
151.486
  0
TEXT
  5
11C
330
17
100
AcDbEntity
  8
ANNO
100
AcDbText
 10
226.842
 20
150.65949999999998
 30
0.0
 40
0.5814
  1
Item
  7
IEC
 11
226.842
 21
150.65949999999998
 31
0.0
100
AcDbText
  0
LWPOLYLINE
  5
11D
330
17
100
AcDbEntity
  8
ANNO
100
AcDbPolyline
 90
4
 70
1
 10
245.1
 20
150.26049999999998
 10
251.7
 20
150.26049999999998
 10
251.7
 20
151.486
 10
245.1
 20
151.486
  0
TEXT
  5
11E
330
17
100
AcDbEntity
  8
ANNO
100
AcDbText
 10
245.442
 20
150.65949999999998
 30
0.0
 40
0.5814
  1
t
  7
IEC
 11
245.442
 21
150.65949999999998
 31
0.0
100
AcDbText
  0
LWPOLYLINE
  5
11F
330
17
100
AcDbEntity
  8
ANNO
100
AcDbPolyline
 90
4
 70
1
 10
251.7
 20
150.26049999999998
 10
263.09999999999997
 20
150.26049999999998
 10
263.09999999999997
 20
151.486
 10
251.7
 20
151.486
  0
TEXT
  5
120
330
17
100
AcDbEntity
  8
ANNO
100
AcDbText
 10
252.042
 20
150.65949999999998
 30
0.0
 40
0.5814
  1
L x W x H m
  7
IEC
 11
252.042
 21
150.65949999999998
 31
0.0
100
AcDbText
  0
LWPOLYLINE
  5
121
330
17
100
AcDbEntity
  8
ANNO
100
AcDbPolyline
 90
4
 70
1
 10
263.09999999999997
 20
150.26049999999998
 10
295.49999999999994
 20
150.26049999999998
 10
295.49999999999994
 20
151.486
 10
263.09999999999997
 20
151.486
  0
TEXT
  5
122
330
17
100
AcDbEntity
  8
ANNO
100
AcDbText
 10
263.44199999999995
 20
150.65949999999998
 30
0.0
 40
0.5814
  1
Remark
  7
IEC
 11
263.44199999999995
 21
150.65949999999998
 31
0.0
100
AcDbText
  0
LWPOLYLINE
  5
123
330
17
100
AcDbEntity
  8
ANNO
100
AcDbPolyline
 90
4
 70
1
 10
226.5
 20
149.03499999999997
 10
245.1
 20
149.03499999999997
 10
245.1
 20
150.26049999999998
 10
226.5
 20
150.26049999999998
  0
TEXT
  5
124
330
17
100
AcDbEntity
  8
ANNO
100
AcDbText
 10
226.842
 20
149.43399999999997
 30
0.0
 40
0.5700000000000001
  1
HP turbine (shipped assembled)
  7
IEC
 11
226.842
 21
149.43399999999997
 31
0.0
100
AcDbText
  0
LWPOLYLINE
  5
125
330
17
100
AcDbEntity
  8
ANNO
100
AcDbPolyline
 90
4
 70
1
 10
245.1
 20
149.03499999999997
 10
251.7
 20
149.03499999999997
 10
251.7
 20
150.26049999999998
 10
245.1
 20
150.26049999999998
  0
TEXT
  5
126
330
17
100
AcDbEntity
  8
ANNO
100
AcDbText
 10
245.442
 20
149.43399999999997
 30
0.0
 40
0.5700000000000001
  1
92
  7
IEC
 11
245.442
 21
149.43399999999997
 31
0.0
100
AcDbText
  0
LWPOLYLINE
  5
127
330
17
100
AcDbEntity
  8
ANNO
100
AcDbPolyline
 90
4
 70
1
 10
251.7
 20
149.03499999999997
 10
263.09999999999997
 20
149.03499999999997
 10
263.09999999999997
 20
150.26049999999998
 10
251.7
 20
150.26049999999998
  0
TEXT
  5
128
330
17
100
AcDbEntity
  8
ANNO
100
AcDbText
 10
252.042
 20
149.43399999999997
 30
0.0
 40
0.5700000000000001
  1
per DS-103
  7
IEC
 11
252.042
 21
149.43399999999997
 31
0.0
100
AcDbText
  0
LWPOLYLINE
  5
129
330
17
100
AcDbEntity
  8
ANNO
100
AcDbPolyline
 90
4
 70
1
 10
263.09999999999997
 20
149.03499999999997
 10
295.49999999999994
 20
149.03499999999997
 10
295.49999999999994
 20
150.26049999999998
 10
263.09999999999997
 20
150.26049999999998
  0
TEXT
  5
12A
330
17
100
AcDbEntity
  8
ANNO
100
AcDbText
 10
263.44199999999995
 20
149.43399999999997
 30
0.0
 40
0.5700000000000001
  1
hall crane
  7
IEC
 11
263.44199999999995
 21
149.43399999999997
 31
0.0
100
AcDbText
  0
LWPOLYLINE
  5
12B
330
17
100
AcDbEntity
  8
ANNO
100
AcDbPolyline
 90
4
 70
1
 10
226.5
 20
147.80949999999996
 10
245.1
 20
147.80949999999996
 10
245.1
 20
149.03499999999997
 10
226.5
 20
149.03499999999997
  0
TEXT
  5
12C
330
17
100
AcDbEntity
  8
ANNO
100
AcDbText
 10
226.842
 20
148.20849999999996
 30
0.0
 40
0.5700000000000001
  1
IP/LP outer casing lower half
  7
IEC
 11
226.842
 21
148.20849999999996
 31
0.0
100
AcDbText
  0
LWPOLYLINE
  5
12D
330
17
100
AcDbEntity
  8
ANNO
100
AcDbPolyline
 90
4
 70
1
 10
245.1
 20
147.80949999999996
 10
251.7
 20
147.80949999999996
 10
251.7
 20
149.03499999999997
 10
245.1
 20
149.03499999999997
  0
TEXT
  5
12E
330
17
100
AcDbEntity
  8
ANNO
100
AcDbText
 10
245.442
 20
148.20849999999996
 30
0.0
 40
0.5700000000000001
  1
2 x 78
  7
IEC
 11
245.442
 21
148.20849999999996
 31
0.0
100
AcDbText
  0
LWPOLYLINE
  5
12F
330
17
100
AcDbEntity
  8
ANNO
100
AcDbPolyline
 90
4
 70
1
 10
251.7
 20
147.80949999999996
 10
263.09999999999997
 20
147.80949999999996
 10
263.09999999999997
 20
149.03499999999997
 10
251.7
 20
149.03499999999997
  0
TEXT
  5
130
330
17
100
AcDbEntity
  8
ANNO
100
AcDbText
 10
252.042
 20
148.20849999999996
 30
0.0
 40
0.5700000000000001
  1
-
  7
IEC
 11
252.042
 21
148.20849999999996
 31
0.0
100
AcDbText
  0
LWPOLYLINE
  5
131
330
17
100
AcDbEntity
  8
ANNO
100
AcDbPolyline
 90
4
 70
1
 10
263.09999999999997
 20
147.80949999999996
 10
295.49999999999994
 20
147.80949999999996
 10
295.49999999999994
 20
149.03499999999997
 10
263.09999999999997
 20
149.03499999999997
  0
TEXT
  5
132
330
17
100
AcDbEntity
  8
ANNO
100
AcDbText
 10
263.44199999999995
 20
148.20849999999996
 30
0.0
 40
0.5700000000000001
  1
hall crane, 2 pieces
  7
IEC
 11
263.44199999999995
 21
148.20849999999996
 31
0.0
100
AcDbText
  0
LWPOLYLINE
  5
133
330
17
100
AcDbEntity
  8
ANNO
100
AcDbPolyline
 90
4
 70
1
 10
226.5
 20
146.58399999999995
 10
245.1
 20
146.58399999999995
 10
245.1
 20
147.80949999999996
 10
226.5
 20
147.80949999999996
  0
TEXT
  5
134
330
17
100
AcDbEntity
  8
ANNO
100
AcDbText
 10
226.842
 20
146.98299999999995
 30
0.0
 40
0.5700000000000001
  1
IP/LP rotor
  7
IEC
 11
226.842
 21
146.98299999999995
 31
0.0
100
AcDbText
  0
LWPOLYLINE
  5
135
330
17
100
AcDbEntity
  8
ANNO
100
AcDbPolyline
 90
4
 70
1
 10
245.1
 20
146.58399999999995
 10
251.7
 20
146.58399999999995
 10
251.7
 20
147.80949999999996
 10
245.1
 20
147.80949999999996
  0
TEXT
  5
136
330
17
100
AcDbEntity
  8
ANNO
100
AcDbText
 10
245.442
 20
146.98299999999995
 30
0.0
 40
0.5700000000000001
  1
86
  7
IEC
 11
245.442
 21
146.98299999999995
 31
0.0
100
AcDbText
  0
LWPOLYLINE
  5
137
330
17
100
AcDbEntity
  8
ANNO
100
AcDbPolyline
 90
4
 70
1
 10
251.7
 20
146.58399999999995
 10
263.09999999999997
 20
146.58399999999995
 10
263.09999999999997
 20
147.80949999999996
 10
251.7
 20
147.80949999999996
  0
TEXT
  5
138
330
17
100
AcDbEntity
  8
ANNO
100
AcDbText
 10
252.042
 20
146.98299999999995
 30
0.0
 40
0.5700000000000001
  1
about 9 long
  7
IEC
 11
252.042
 21
146.98299999999995
 31
0.0
100
AcDbText
  0
LWPOLYLINE
  5
139
330
17
100
AcDbEntity
  8
ANNO
100
AcDbPolyline
 90
4
 70
1
 10
263.09999999999997
 20
146.58399999999995
 10
295.49999999999994
 20
146.58399999999995
 10
295.49999999999994
 20
147.80949999999996
 10
263.09999999999997
 20
147.80949999999996
  0
TEXT
  5
13A
330
17
100
AcDbEntity
  8
ANNO
100
AcDbText
 10
263.44199999999995
 20
146.98299999999995
 30
0.0
 40
0.5700000000000001
  1
heaviest maintenance lift; 100 t hook
  7
IEC
 11
263.44199999999995
 21
146.98299999999995
 31
0.0
100
AcDbText
  0
LWPOLYLINE
  5
13B
330
17
100
AcDbEntity
  8
ANNO
100
AcDbPolyline
 90
4
 70
1
 10
226.5
 20
145.35849999999994
 10
245.1
 20
145.35849999999994
 10
245.1
 20
146.58399999999995
 10
226.5
 20
146.58399999999995
  0
TEXT
  5
13C
330
17
100
AcDbEntity
  8
ANNO
100
AcDbText
 10
226.842
 20
145.75749999999994
 30
0.0
 40
0.5700000000000001
  1
ST generator stator
  7
IEC
 11
226.842
 21
145.75749999999994
 31
0.0
100
AcDbText
  0
LWPOLYLINE
  5
13D
330
17
100
AcDbEntity
  8
ANNO
100
AcDbPolyline
 90
4
 70
1
 10
245.1
 20
145.35849999999994
 10
251.7
 20
145.35849999999994
 10
251.7
 20
146.58399999999995
 10
245.1
 20
146.58399999999995
  0
TEXT
  5
13E
330
17
100
AcDbEntity
  8
ANNO
100
AcDbText
 10
245.442
 20
145.75749999999994
 30
0.0
 40
0.5700000000000001
  1
185
  7
IEC
 11
245.442
 21
145.75749999999994
 31
0.0
100
AcDbText
  0
LWPOLYLINE
  5
13F
330
17
100
AcDbEntity
  8
ANNO
100
AcDbPolyline
 90
4
 70
1
 10
251.7
 20
145.35849999999994
 10
263.09999999999997
 20
145.35849999999994
 10
263.09999999999997
 20
146.58399999999995
 10
251.7
 20
146.58399999999995
  0
TEXT
  5
140
330
17
100
AcDbEntity
  8
ANNO
100
AcDbText
 10
252.042
 20
145.75749999999994
 30
0.0
 40
0.5700000000000001
  1
8.6 x 4.1 x 4.2
  7
IEC
 11
252.042
 21
145.75749999999994
 31
0.0
100
AcDbText
  0
LWPOLYLINE
  5
141
330
17
100
AcDbEntity
  8
ANNO
100
AcDbPolyline
 90
4
 70
1
 10
263.09999999999997
 20
145.35849999999994
 10
295.49999999999994
 20
145.35849999999994
 10
295.49999999999994
 20
146.58399999999995
 10
263.09999999999997
 20
146.58399999999995
  0
TEXT
  5
142
330
17
100
AcDbEntity
  8
ANNO
100
AcDbText
 10
263.44199999999995
 20
145.75749999999994
 30
0.0
 40
0.5700000000000001
  1
DS-102; jacking / skidding onto the deck
  7
IEC
 11
263.44199999999995
 21
145.75749999999994
 31
0.0
100
AcDbText
  0
LWPOLYLINE
  5
143
330
17
100
AcDbEntity
  8
ANNO
100
AcDbPolyline
 90
4
 70
1
 10
226.5
 20
144.13299999999992
 10
245.1
 20
144.13299999999992
 10
245.1
 20
145.35849999999994
 10
226.5
 20
145.35849999999994
  0
TEXT
  5
144
330
17
100
AcDbEntity
  8
ANNO
100
AcDbText
 10
226.842
 20
144.53199999999993
 30
0.0
 40
0.5700000000000001
  1
ST generator rotor
  7
IEC
 11
226.842
 21
144.53199999999993
 31
0.0
100
AcDbText
  0
LWPOLYLINE
  5
145
330
17
100
AcDbEntity
  8
ANNO
100
AcDbPolyline
 90
4
 70
1
 10
245.1
 20
144.13299999999992
 10
251.7
 20
144.13299999999992
 10
251.7
 20
145.35849999999994
 10
245.1
 20
145.35849999999994
  0
TEXT
  5
146
330
17
100
AcDbEntity
  8
ANNO
100
AcDbText
 10
245.442
 20
144.53199999999993
 30
0.0
 40
0.5700000000000001
  1
46
  7
IEC
 11
245.442
 21
144.53199999999993
 31
0.0
100
AcDbText
  0
LWPOLYLINE
  5
147
330
17
100
AcDbEntity
  8
ANNO
100
AcDbPolyline
 90
4
 70
1
 10
251.7
 20
144.13299999999992
 10
263.09999999999997
 20
144.13299999999992
 10
263.09999999999997
 20
145.35849999999994
 10
251.7
 20
145.35849999999994
  0
TEXT
  5
148
330
17
100
AcDbEntity
  8
ANNO
100
AcDbText
 10
252.042
 20
144.53199999999993
 30
0.0
 40
0.5700000000000001
  1
about 10 long
  7
IEC
 11
252.042
 21
144.53199999999993
 31
0.0
100
AcDbText
  0
LWPOLYLINE
  5
149
330
17
100
AcDbEntity
  8
ANNO
100
AcDbPolyline
 90
4
 70
1
 10
263.09999999999997
 20
144.13299999999992
 10
295.49999999999994
 20
144.13299999999992
 10
295.49999999999994
 20
145.35849999999994
 10
263.09999999999997
 20
145.35849999999994
  0
TEXT
  5
14A
330
17
100
AcDbEntity
  8
ANNO
100
AcDbText
 10
263.44199999999995
 20
144.53199999999993
 30
0.0
 40
0.5700000000000001
  1
withdrawn west, 12 m clear
  7
IEC
 11
263.44199999999995
 21
144.53199999999993
 31
0.0
100
AcDbText
  0
LWPOLYLINE
  5
14B
330
17
100
AcDbEntity
  8
ANNO
100
AcDbPolyline
 90
4
 70
1
 10
226.5
 20
142.9074999999999
 10
245.1
 20
142.9074999999999
 10
245.1
 20
144.13299999999992
 10
226.5
 20
144.13299999999992
  0
TEXT
  5
14C
330
17
100
AcDbEntity
  8
ANNO
100
AcDbText
 10
226.842
 20
143.30649999999991
 30
0.0
 40
0.5700000000000001
  1
Condenser modules
  7
IEC
 11
226.842
 21
143.30649999999991
 31
0.0
100
AcDbText
  0
LWPOLYLINE
  5
14D
330
17
100
AcDbEntity
  8
ANNO
100
AcDbPolyline
 90
4
 70
1
 10
245.1
 20
142.9074999999999
 10
251.7
 20
142.9074999999999
 10
251.7
 20
144.13299999999992
 10
245.1
 20
144.13299999999992
  0
TEXT
  5
14E
330
17
100
AcDbEntity
  8
ANNO
100
AcDbText
 10
245.442
 20
143.30649999999991
 30
0.0
 40
0.5700000000000001
  1
4 x 95
  7
IEC
 11
245.442
 21
143.30649999999991
 31
0.0
100
AcDbText
  0
LWPOLYLINE
  5
14F
330
17
100
AcDbEntity
  8
ANNO
100
AcDbPolyline
 90
4
 70
1
 10
251.7
 20
142.9074999999999
 10
263.09999999999997
 20
142.9074999999999
 10
263.09999999999997
 20
144.13299999999992
 10
251.7
 20
144.13299999999992
  0
TEXT
  5
150
330
17
100
AcDbEntity
  8
ANNO
100
AcDbText
 10
252.042
 20
143.30649999999991
 30
0.0
 40
0.5700000000000001
  1
per DS-105
  7
IEC
 11
252.042
 21
143.30649999999991
 31
0.0
100
AcDbText
  0
LWPOLYLINE
  5
151
330
17
100
AcDbEntity
  8
ANNO
100
AcDbPolyline
 90
4
 70
1
 10
263.09999999999997
 20
142.9074999999999
 10
295.49999999999994
 20
142.9074999999999
 10
295.49999999999994
 20
144.13299999999992
 10
263.09999999999997
 20
144.13299999999992
  0
TEXT
  5
152
330
17
100
AcDbEntity
  8
ANNO
100
AcDbText
 10
263.44199999999995
 20
143.30649999999991
 30
0.0
 40
0.5700000000000001
  1
set on the condenser foundation before the ST
  7
IEC
 11
263.44199999999995
 21
143.30649999999991
 31
0.0
100
AcDbText
  0
TEXT
  5
153
330
17
100
AcDbEntity
  8
ANNO
100
AcDbText
 10
226.5
 20
140.3634999999999
 30
0.0
 40
0.7875000000000001
  1
2. MAINTENANCE AND INSTALLATION REQUIREMENTS
  7
IEC
 11
226.5
 21
140.3634999999999
 31
0.0
100
AcDbText
  0
LWPOLYLINE
  5
154
330
17
100
AcDbEntity
  8
ANNO
100
AcDbPolyline
 90
4
 70
1
 10
226.5
 20
138.5679999999999
 10
245.1
 20
138.5679999999999
 10
245.1
 20
139.7934999999999
 10
226.5
 20
139.7934999999999
  0
TEXT
  5
155
330
17
100
AcDbEntity
  8
ANNO
100
AcDbText
 10
226.842
 20
138.9669999999999
 30
0.0
 40
0.5814
  1
Requirement
  7
IEC
 11
226.842
 21
138.9669999999999
 31
0.0
100
AcDbText
  0
LWPOLYLINE
  5
156
330
17
100
AcDbEntity
  8
ANNO
100
AcDbPolyline
 90
4
 70
1
 10
245.1
 20
138.5679999999999
 10
295.5
 20
138.5679999999999
 10
295.5
 20
139.7934999999999
 10
245.1
 20
139.7934999999999
  0
TEXT
  5
157
330
17
100
AcDbEntity
  8
ANNO
100
AcDbText
 10
245.442
 20
138.9669999999999
 30
0.0
 40
0.5814
  1
IEC requirement (EPC to provide)
  7
IEC
 11
245.442
 21
138.9669999999999
 31
0.0
100
AcDbText
  0
LWPOLYLINE
  5
158
330
17
100
AcDbEntity
  8
ANNO
100
AcDbPolyline
 90
4
 70
1
 10
226.5
 20
136.5159999999999
 10
245.1
 20
136.5159999999999
 10
245.1
 20
138.5679999999999
 10
226.5
 20
138.5679999999999
  0
TEXT
  5
159
330
17
100
AcDbEntity
  8
ANNO
100
AcDbText
 10
226.842
 20
137.7414999999999
 30
0.0
 40
0.5700000000000001
  1
Crane
  7
IEC
 11
226.842
 21
137.7414999999999
 31
0.0
100
AcDbText
  0
LWPOLYLINE
  5
15A
330
17
100
AcDbEntity
  8
ANNO
100
AcDbPolyline
 90
4
 70
1
 10
245.1
 20
136.5159999999999
 10
295.5
 20
136.5159999999999
 10
295.5
 20
138.5679999999999
 10
245.1
 20
138.5679999999999
  0
TEXT
  5
15B
330
17
100
AcDbEntity
  8
ANNO
100
AcDbText
 10
245.442
 20
137.7414999999999
 30
0.0
 40
0.5700000000000001
  1
EOT 100 t; hook max >= EL +39.0 (15 m above the operating deck); coverage over ST, generator, laydown and
  7
IEC
 11
245.442
 21
137.7414999999999
 31
0.0
100
AcDbText
  0
TEXT
  5
15C
330
17
100
AcDbEntity
  8
ANNO
100
AcDbText
 10
245.442
 20
136.9149999999999
 30
0.0
 40
0.5700000000000001
  1
the condenser tube pull area.
  7
IEC
 11
245.442
 21
136.9149999999999
 31
0.0
100
AcDbText
  0
LWPOLYLINE
  5
15D
330
17
100
AcDbEntity
  8
ANNO
100
AcDbPolyline
 90
4
 70
1
 10
226.5
 20
134.4639999999999
 10
245.1
 20
134.4639999999999
 10
245.1
 20
136.5159999999999
 10
226.5
 20
136.5159999999999
  0
TEXT
  5
15E
330
17
100
AcDbEntity
  8
ANNO
100
AcDbText
 10
226.842
 20
135.6894999999999
 30
0.0
 40
0.5700000000000001
  1
Tube pull
  7
IEC
 11
226.842
 21
135.6894999999999
 31
0.0
100
AcDbText
  0
LWPOLYLINE
  5
15F
330
17
100
AcDbEntity
  8
ANNO
100
AcDbPolyline
 90
4
 70
1
 10
245.1
 20
134.4639999999999
 10
295.5
 20
134.4639999999999
 10
295.5
 20
136.5159999999999
 10
245.1
 20
136.5159999999999
  0
TEXT
  5
160
330
17
100
AcDbEntity
  8
ANNO
100
AcDbText
 10
245.442
 20
135.6894999999999
 30
0.0
 40
0.5700000000000001
  1
11 m clear at the condenser return water box end (east) inside the hall; removable wall panel if the hall is
  7
IEC
 11
245.442
 21
135.6894999999999
 31
0.0
100
AcDbText
  0
TEXT
  5
161
330
17
100
AcDbEntity
  8
ANNO
100
AcDbText
 10
245.442
 20
134.86299999999991
 30
0.0
 40
0.5700000000000001
  1
shortened. Water box removal 2 x 12 t.
  7
IEC
 11
245.442
 21
134.86299999999991
 31
0.0
100
AcDbText
  0
LWPOLYLINE
  5
162
330
17
100
AcDbEntity
  8
ANNO
100
AcDbPolyline
 90
4
 70
1
 10
226.5
 20
133.2384999999999
 10
245.1
 20
133.2384999999999
 10
245.1
 20
134.4639999999999
 10
226.5
 20
134.4639999999999
  0
TEXT
  5
163
330
17
100
AcDbEntity
  8
ANNO
100
AcDbText
 10
226.842
 20
133.6374999999999
 30
0.0
 40
0.5700000000000001
  1
Laydown
  7
IEC
 11
226.842
 21
133.6374999999999
 31
0.0
100
AcDbText
  0
LWPOLYLINE
  5
164
330
17
100
AcDbEntity
  8
ANNO
100
AcDbPolyline
 90
4
 70
1
 10
245.1
 20
133.2384999999999
 10
295.5
 20
133.2384999999999
 10
295.5
 20
134.4639999999999
 10
245.1
 20
134.4639999999999
  0
TEXT
  5
165
330
17
100
AcDbEntity
  8
ANNO
100
AcDbText
 10
245.442
 20
133.6374999999999
 30
0.0
 40
0.5700000000000001
  1
360 m2 on the operating deck level for rotor stands (86 t, 46 t) and casing halves, 5 t/m2.
  7
IEC
 11
245.442
 21
133.6374999999999
 31
0.0
100
AcDbText
  0
LWPOLYLINE
  5
166
330
17
100
AcDbEntity
  8
ANNO
100
AcDbPolyline
 90
4
 70
1
 10
226.5
 20
132.0129999999999
 10
245.1
 20
132.0129999999999
 10
245.1
 20
133.2384999999999
 10
226.5
 20
133.2384999999999
  0
TEXT
  5
167
330
17
100
AcDbEntity
  8
ANNO
100
AcDbText
 10
226.842
 20
132.4119999999999
 30
0.0
 40
0.5700000000000001
  1
Access
  7
IEC
 11
226.842
 21
132.4119999999999
 31
0.0
100
AcDbText
  0
LWPOLYLINE
  5
168
330
17
100
AcDbEntity
  8
ANNO
100
AcDbPolyline
 90
4
 70
1
 10
245.1
 20
132.0129999999999
 10
295.5
 20
132.0129999999999
 10
295.5
 20
133.2384999999999
 10
245.1
 20
133.2384999999999
  0
TEXT
  5
169
330
17
100
AcDbEntity
  8
ANNO
100
AcDbText
 10
245.442
 20
132.4119999999999
 30
0.0
 40
0.5700000000000001
  1
west door 7 x 8 m for SPMT; hatch in the deck over the condenser neck expansion joint.
  7
IEC
 11
245.442
 21
132.4119999999999
 31
0.0
100
AcDbText
  0
LWPOLYLINE
  5
16A
330
17
100
AcDbEntity
  8
ANNO
100
AcDbPolyline
 90
4
 70
1
 10
226.5
 20
130.78749999999988
 10
245.1
 20
130.78749999999988
 10
245.1
 20
132.0129999999999
 10
226.5
 20
132.0129999999999
  0
TEXT
  5
16B
330
17
100
AcDbEntity
  8
ANNO
100
AcDbText
 10
226.842
 20
131.18649999999988
 30
0.0
 40
0.5700000000000001
  1
Foundations
  7
IEC
 11
226.842
 21
131.18649999999988
 31
0.0
100
AcDbText
  0
LWPOLYLINE
  5
16C
330
17
100
AcDbEntity
  8
ANNO
100
AcDbPolyline
 90
4
 70
1
 10
245.1
 20
130.78749999999988
 10
295.5
 20
130.78749999999988
 10
295.5
 20
132.0129999999999
 10
245.1
 20
132.0129999999999
  0
TEXT
  5
16D
330
17
100
AcDbEntity
  8
ANNO
100
AcDbText
 10
245.442
 20
131.18649999999988
 30
0.0
 40
0.5700000000000001
  1
ST + generator spring-mounted table-top 980 t (REQ-001 section 9); spring elements by EPC.
  7
IEC
 11
245.442
 21
131.18649999999988
 31
0.0
100
AcDbText
  0
LWPOLYLINE
  5
16E
330
17
100
AcDbEntity
  8
ANNO
100
AcDbPolyline
 90
4
 70
1
 10
226.5
 20
129.56199999999987
 10
245.1
 20
129.56199999999987
 10
245.1
 20
130.78749999999988
 10
226.5
 20
130.78749999999988
  0
TEXT
  5
16F
330
17
100
AcDbEntity
  8
ANNO
100
AcDbText
 10
226.842
 20
129.96099999999987
 30
0.0
 40
0.5700000000000001
  1
CW
  7
IEC
 11
226.842
 21
129.96099999999987
 31
0.0
100
AcDbText
  0
LWPOLYLINE
  5
170
330
17
100
AcDbEntity
  8
ANNO
100
AcDbPolyline
 90
4
 70
1
 10
245.1
 20
129.56199999999987
 10
295.5
 20
129.56199999999987
 10
295.5
 20
130.78749999999988
 10
245.1
 20
130.78749999999988
  0
TEXT
  5
171
330
17
100
AcDbEntity
  8
ANNO
100
AcDbText
 10
245.442
 20
129.96099999999987
 30
0.0
 40
0.5700000000000001
  1
4 x DN1800 at the west water boxes (IF-27); ball injection nozzles (IF-44).
  7
IEC
 11
245.442
 21
129.96099999999987
 31
0.0
100
AcDbText
  0
TEXT
  5
172
330
17
100
AcDbEntity
  8
ANNO
100
AcDbText
 10
226.5
 20
126.56199999999987
 30
0.0
 40
0.8250000000000001
  1
LEGEND
  7
IEC
 11
226.5
 21
126.56199999999987
 31
0.0
100
AcDbText
  0
LINE
  5
173
330
17
100
AcDbEntity
  8
IEC
  6
CONTINUOUS
370
60
100
AcDbLine
 10
226.5
 20
125.13699999999987
 30
0.0
 11
229.5
 21
125.13699999999987
 31
0.0
  0
TEXT
  5
174
330
17
100
AcDbEntity
  8
ANNO
100
AcDbText
 10
230.4
 20
124.83699999999988
 30
0.0
 40
0.6000000000000001
  1
IEC supply (equipment outline)
  7
IEC
 11
230.4
 21
124.83699999999988
 31
0.0
100
AcDbText
  0
LINE
  5
175
330
17
100
AcDbEntity
  8
EPC
  6
DASHED
370
60
100
AcDbLine
 10
226.5
 20
123.41199999999986
 30
0.0
 11
229.5
 21
123.41199999999986
 31
0.0
  0
TEXT
  5
176
330
17
100
AcDbEntity
  8
ANNO
100
AcDbText
 10
230.4
 20
123.11199999999987
 30
0.0
 40
0.6000000000000001
  1
EPC item, shown as IEC space requirement
  7
IEC
 11
230.4
 21
123.11199999999987
 31
0.0
100
AcDbText
  0
LINE
  5
177
330
17
100
AcDbEntity
  8
MAINT
  6
DASHED
370
60
100
AcDbLine
 10
226.5
 20
121.68699999999987
 30
0.0
 11
229.5
 21
121.68699999999987
 31
0.0
  0
TEXT
  5
178
330
17
100
AcDbEntity
  8
ANNO
100
AcDbText
 10
230.4
 20
121.38699999999987
 30
0.0
 40
0.6000000000000001
  1
maintenance / withdrawal space (keep free)
  7
IEC
 11
230.4
 21
121.38699999999987
 31
0.0
100
AcDbText
  0
LINE
  5
179
330
17
100
AcDbEntity
  8
LAYDOWN
  6
DASHED
370
60
100
AcDbLine
 10
226.5
 20
119.96199999999986
 30
0.0
 11
229.5
 21
119.96199999999986
 31
0.0
  0
TEXT
  5
17A
330
17
100
AcDbEntity
  8
ANNO
100
AcDbText
 10
230.4
 20
119.66199999999986
 30
0.0
 40
0.6000000000000001
  1
laydown area
  7
IEC
 11
230.4
 21
119.66199999999986
 31
0.0
100
AcDbText
  0
LINE
  5
17B
330
17
100
AcDbEntity
  8
CRANE
  6
DASHDOT
370
60
100
AcDbLine
 10
226.5
 20
118.23699999999987
 30
0.0
 11
229.5
 21
118.23699999999987
 31
0.0
  0
TEXT
  5
17C
330
17
100
AcDbEntity
  8
ANNO
100
AcDbText
 10
230.4
 20
117.93699999999987
 30
0.0
 40
0.6000000000000001
  1
crane hook coverage / crane
  7
IEC
 11
230.4
 21
117.93699999999987
 31
0.0
100
AcDbText
  0
LINE
  5
17D
330
17
100
AcDbEntity
  8
PAD
  6
DASHED
370
60
100
AcDbLine
 10
226.5
 20
116.51199999999987
 30
0.0
 11
229.5
 21
116.51199999999987
 31
0.0
  0
TEXT
  5
17E
330
17
100
AcDbEntity
  8
ANNO
100
AcDbText
 10
230.4
 20
116.21199999999988
 30
0.0
 40
0.6000000000000001
  1
crane pad / pre-assembly area (temporary)
  7
IEC
 11
230.4
 21
116.21199999999988
 31
0.0
100
AcDbText
  0
LINE
  5
17F
330
17
100
AcDbEntity
  8
ACCESS
  6
CONTINUOUS
370
60
100
AcDbLine
 10
226.5
 20
114.78699999999986
 30
0.0
 11
229.5
 21
114.78699999999986
 31
0.0
  0
TEXT
  5
180
330
17
100
AcDbEntity
  8
ANNO
100
AcDbText
 10
230.4
 20
114.48699999999987
 30
0.0
 40
0.6000000000000001
  1
vehicle / heavy-haul access (SPMT)
  7
IEC
 11
230.4
 21
114.48699999999987
 31
0.0
100
AcDbText
  0
LINE
  5
181
330
17
100
AcDbEntity
  8
DIM
  6
CONTINUOUS
370
60
100
AcDbLine
 10
226.5
 20
113.06199999999987
 30
0.0
 11
229.5
 21
113.06199999999987
 31
0.0
  0
TEXT
  5
182
330
17
100
AcDbEntity
  8
ANNO
100
AcDbText
 10
230.4
 20
112.76199999999987
 30
0.0
 40
0.6000000000000001
  1
dimension (m)
  7
IEC
 11
230.4
 21
112.76199999999987
 31
0.0
100
AcDbText
  0
LWPOLYLINE
  5
183
330
17
100
AcDbEntity
  8
ANNO
100
AcDbPolyline
 90
4
 70
1
 10
165.0
 20
132.0
 10
164.1
 20
129.12
 10
165.0
 20
129.84
 10
165.9
 20
129.12
  0
TEXT
  5
184
330
17
100
AcDbEntity
  8
ANNO
100
AcDbText
 10
165.0
 20
132.54
 30
0.0
 40
1.0499999999999998
  1
N
  7
IEC
 72
1
 11
165.0
 21
132.54
 31
0.0
100
AcDbText
  0
LWPOLYLINE
  5
185
330
17
100
AcDbEntity
  8
ANNO
100
AcDbPolyline
 90
4
 70
1
 10
85.0
 20
-14.0
 10
90.0
 20
-14.0
 10
90.0
 20
-13.625
 10
85.0
 20
-13.625
  0
HATCH
  5
186
330
17
100
AcDbEntity
  8
ANNO
100
AcDbHatch
 10
0.0
 20
0.0
 30
0.0
210
0.0
220
0.0
230
1.0
  2
SOLID
 70
1
 71
0
 91
1
 92
3
 72
0
 73
1
 93
4
 10
85.0
 20
-14.0
 10
90.0
 20
-14.0
 10
90.0
 20
-13.625
 10
85.0
 20
-13.625
 97
0
 75
1
 76
1
 98
0
  0
TEXT
  5
187
330
17
100
AcDbEntity
  8
ANNO
100
AcDbText
 10
85.0
 20
-15.125
 30
0.0
 40
0.6000000000000001
  1
0
  7
IEC
 72
1
 11
85.0
 21
-15.125
 31
0.0
100
AcDbText
  0
LWPOLYLINE
  5
188
330
17
100
AcDbEntity
  8
ANNO
100
AcDbPolyline
 90
4
 70
1
 10
90.0
 20
-14.0
 10
95.0
 20
-14.0
 10
95.0
 20
-13.625
 10
90.0
 20
-13.625
  0
TEXT
  5
189
330
17
100
AcDbEntity
  8
ANNO
100
AcDbText
 10
90.0
 20
-15.125
 30
0.0
 40
0.6000000000000001
  1
5
  7
IEC
 72
1
 11
90.0
 21
-15.125
 31
0.0
100
AcDbText
  0
LWPOLYLINE
  5
18A
330
17
100
AcDbEntity
  8
ANNO
100
AcDbPolyline
 90
4
 70
1
 10
95.0
 20
-14.0
 10
100.0
 20
-14.0
 10
100.0
 20
-13.625
 10
95.0
 20
-13.625
  0
HATCH
  5
18B
330
17
100
AcDbEntity
  8
ANNO
100
AcDbHatch
 10
0.0
 20
0.0
 30
0.0
210
0.0
220
0.0
230
1.0
  2
SOLID
 70
1
 71
0
 91
1
 92
3
 72
0
 73
1
 93
4
 10
95.0
 20
-14.0
 10
100.0
 20
-14.0
 10
100.0
 20
-13.625
 10
95.0
 20
-13.625
 97
0
 75
1
 76
1
 98
0
  0
TEXT
  5
18C
330
17
100
AcDbEntity
  8
ANNO
100
AcDbText
 10
95.0
 20
-15.125
 30
0.0
 40
0.6000000000000001
  1
10
  7
IEC
 72
1
 11
95.0
 21
-15.125
 31
0.0
100
AcDbText
  0
LWPOLYLINE
  5
18D
330
17
100
AcDbEntity
  8
ANNO
100
AcDbPolyline
 90
4
 70
1
 10
100.0
 20
-14.0
 10
105.0
 20
-14.0
 10
105.0
 20
-13.625
 10
100.0
 20
-13.625
  0
TEXT
  5
18E
330
17
100
AcDbEntity
  8
ANNO
100
AcDbText
 10
100.0
 20
-15.125
 30
0.0
 40
0.6000000000000001
  1
15
  7
IEC
 72
1
 11
100.0
 21
-15.125
 31
0.0
100
AcDbText
  0
TEXT
  5
18F
330
17
100
AcDbEntity
  8
ANNO
100
AcDbText
 10
105.0
 20
-15.125
 30
0.0
 40
0.6000000000000001
  1
20 m
  7
IEC
 72
1
 11
105.0
 21
-15.125
 31
0.0
100
AcDbText
  0
ENDSEC
  0
SECTION
  2
OBJECTS
  0
DICTIONARY
  5
A
330
0
100
AcDbDictionary
281
1
  3
ACAD_COLOR
350
B
  3
ACAD_GROUP
350
C
  3
ACAD_LAYOUT
350
D
  3
ACAD_MATERIAL
350
E
  3
ACAD_MLEADERSTYLE
350
F
  3
ACAD_MLINESTYLE
350
10
  3
ACAD_PLOTSETTINGS
350
11
  3
ACAD_PLOTSTYLENAME
350
12
  3
ACAD_SCALELIST
350
14
  3
ACAD_TABLESTYLE
350
15
  3
ACAD_VISUALSTYLE
350
16
  3
EZDXF_META
350
2D
  0
DICTIONARY
  5
B
330
A
100
AcDbDictionary
281
1
  0
DICTIONARY
  5
C
330
A
100
AcDbDictionary
281
1
  0
DICTIONARY
  5
D
330
A
100
AcDbDictionary
281
1
  3
Model
350
1A
  3
Layout1
350
1E
  0
DICTIONARY
  5
E
330
A
100
AcDbDictionary
281
1
  3
ByBlock
350
1F
  3
ByLayer
350
20
  3
Global
350
21
  0
DICTIONARY
  5
F
330
A
100
AcDbDictionary
281
1
  3
Standard
350
2C
  0
DICTIONARY
  5
10
330
A
100
AcDbDictionary
281
1
  3
Standard
350
22
  0
DICTIONARY
  5
11
330
A
100
AcDbDictionary
281
1
  0
ACDBDICTIONARYWDFLT
  5
12
330
A
100
AcDbDictionary
281
1
  3
Normal
350
13
100
AcDbDictionaryWithDefault
340
13
  0
ACDBPLACEHOLDER
  5
13
330
12
  0
DICTIONARY
  5
14
330
A
100
AcDbDictionary
281
1
  0
DICTIONARY
  5
15
330
A
100
AcDbDictionary
281
1
  0
DICTIONARY
  5
16
330
A
100
AcDbDictionary
281
1
  3
2dWireframe
350
5A
  3
Basic
350
5B
  3
Brighten
350
5C
  3
ColorChange
350
5D
  3
Conceptual
350
5E
  3
Dim
350
5F
  3
EdgeColorOff
350
60
  3
Facepattern
350
61
  3
Flat
350
62
  3
FlatWithEdges
350
63
  3
Gouraud
350
64
  3
GouraudWithEdges
350
65
  3
Hidden
350
66
  3
JitterOff
350
67
  3
Linepattern
350
68
  3
Modeling
350
69
  3
OverhangOff
350
6A
  3
Realistic
350
6B
  3
Shaded
350
6C
  3
Shaded with edges
350
6D
  3
Shades of Gray
350
6E
  3
Sketchy
350
6F
  3
Thicken
350
70
  3
Wireframe
350
71
  3
X-Ray
350
72
  0
LAYOUT
  5
1A
330
D
100
AcDbPlotSettings
  1

  4
A3
  6

 40
7.5
 41
20.0
 42
7.5
 43
20.0
 44
420.0
 45
297.0
 46
0.0
 47
0.0
 48
0.0
 49
0.0
140
0.0
141
0.0
142
1.0
143
1.0
 70
1024
 72
1
 73
0
 74
5
  7

 75
16
 76
0
 77
2
 78
300
147
1.0
148
0.0
149
0.0
100
AcDbLayout
  1
Model
 70
1
 71
0
 10
0.0
 20
0.0
 11
420.0
 21
297.0
 12
0.0
 22
0.0
 32
0.0
 14
1e+20
 24
1e+20
 34
1e+20
 15
-1e+20
 25
-1e+20
 35
-1e+20
146
0.0
 13
0.0
 23
0.0
 33
0.0
 16
1.0
 26
0.0
 36
0.0
 17
0.0
 27
1.0
 37
0.0
 76
1
330
17
  0
LAYOUT
  5
1E
330
D
100
AcDbPlotSettings
  1

  4
A3
  6

 40
7.5
 41
20.0
 42
7.5
 43
20.0
 44
420.0
 45
297.0
 46
0.0
 47
0.0
 48
0.0
 49
0.0
140
0.0
141
0.0
142
1.0
143
1.0
 70
0
 72
1
 73
0
 74
5
  7

 75
16
 76
0
 77
2
 78
300
147
1.0
148
0.0
149
0.0
100
AcDbLayout
  1
Layout1
 70
1
 71
1
 10
0.0
 20
0.0
 11
420.0
 21
297.0
 12
0.0
 22
0.0
 32
0.0
 14
1e+20
 24
1e+20
 34
1e+20
 15
-1e+20
 25
-1e+20
 35
-1e+20
146
0.0
 13
0.0
 23
0.0
 33
0.0
 16
1.0
 26
0.0
 36
0.0
 17
0.0
 27
1.0
 37
0.0
 76
1
330
1B
  0
MATERIAL
  5
1F
102
{ACAD_REACTORS
330
E
102
}
330
E
100
AcDbMaterial
  1
ByBlock
  2

 70
0
 40
1.0
 71
1
 41
1.0
 91
-1023410177
 42
1.0
 72
1
  3

 73
1
 74
1
 75
1
 44
0.5
 73
0
 45
1.0
 46
1.0
 77
1
  4

 78
1
 79
1
170
1
 48
1.0
171
1
  6

172
1
173
1
174
1
140
1.0
141
1.0
175
1
  7

176
1
177
1
178
1
143
1.0
179
1
  8

270
1
271
1
272
1
145
1.0
146
1.0
273
1
  9

274
1
275
1
276
1
 42
1.0
 72
1
  3

 73
1
 74
1
 75
1
 94
63
  0
MATERIAL
  5
20
102
{ACAD_REACTORS
330
E
102
}
330
E
100
AcDbMaterial
  1
ByLayer
  2

 70
0
 40
1.0
 71
1
 41
1.0
 91
-1023410177
 42
1.0
 72
1
  3

 73
1
 74
1
 75
1
 44
0.5
 73
0
 45
1.0
 46
1.0
 77
1
  4

 78
1
 79
1
170
1
 48
1.0
171
1
  6

172
1
173
1
174
1
140
1.0
141
1.0
175
1
  7

176
1
177
1
178
1
143
1.0
179
1
  8

270
1
271
1
272
1
145
1.0
146
1.0
273
1
  9

274
1
275
1
276
1
 42
1.0
 72
1
  3

 73
1
 74
1
 75
1
 94
63
  0
MATERIAL
  5
21
102
{ACAD_REACTORS
330
E
102
}
330
E
100
AcDbMaterial
  1
Global
  2

 70
0
 40
1.0
 71
1
 41
1.0
 91
-1023410177
 42
1.0
 72
1
  3

 73
1
 74
1
 75
1
 44
0.5
 73
0
 45
1.0
 46
1.0
 77
1
  4

 78
1
 79
1
170
1
 48
1.0
171
1
  6

172
1
173
1
174
1
140
1.0
141
1.0
175
1
  7

176
1
177
1
178
1
143
1.0
179
1
  8

270
1
271
1
272
1
145
1.0
146
1.0
273
1
  9

274
1
275
1
276
1
 42
1.0
 72
1
  3

 73
1
 74
1
 75
1
 94
63
  0
MLINESTYLE
  5
22
102
{ACAD_REACTORS
330
10
102
}
330
10
100
AcDbMlineStyle
  2
Standard
 70
0
  3

 62
256
 51
90.0
 52
90.0
 71
2
 49
0.5
 62
256
  6
BYLAYER
 49
-0.5
 62
256
  6
BYLAYER
  0
MLEADERSTYLE
  5
2C
102
{ACAD_REACTORS
330
F
102
}
330
F
100
AcDbMLeaderStyle
179
2
170
2
171
1
172
0
 90
2
 40
0.0
 41
0.0
173
1
 91
-1056964608
 92
-2
290
1
 42
2.0
291
1
 43
8.0
  3
Standard
 44
4.0
300

342
29
174
1
175
1
176
0
178
1
 93
-1056964608
 45
4.0
292
0
297
0
 46
4.0
 94
-1056964608
 47
1.0
 49
1.0
140
1.0
294
1
141
0.0
177
0
142
1.0
295
0
296
0
143
3.75
271
0
272
9
273
9
  0
DICTIONARY
  5
2D
330
A
100
AcDbDictionary
280
1
281
1
  3
CREATED_BY_EZDXF
350
2E
  3
WRITTEN_BY_EZDXF
350
192
  0
DICTIONARYVAR
  5
2E
330
2D
100
DictionaryVariables
280
0
  1
1.4.4 @ 2026-09-28T04:12:06.872357+00:00
  0
VISUALSTYLE
  5
5A
102
{ACAD_REACTORS
330
16
102
}
330
16
100
AcDbVisualStyle
  2
2dWireframe
 70
4
177
3
291
0
 70
58
 90
2
176
1
 90
2
176
1
 90
0
176
1
 90
0
176
1
 40
0.6
176
1
 40
30.0
176
1
 62
7
420
16777215
176
1
 90
1
176
1
 90
4
176
1
 62
7
176
1
 62
257
176
1
 90
1
176
1
 90
1
176
1
 40
1.0
176
1
 90
8
176
1
 62
7
176
1
 40
1.0
176
1
 90
1
176
1
 90
6
176
1
 90
2
176
1
 62
7
176
1
 90
5
176
1
 90
0
176
1
 90
0
176
1
290
0
176
1
 90
1
176
1
 40
0.0
176
1
 90
0
176
1
290
1
176
1
290
1
176
1
290
0
176
1
290
0
176
1
290
0
176
1
290
0
176
1
290
0
176
1
290
0
176
1
290
0
176
1
 90
50
176
1
 40
0.0
176
1
 40
1.0
176
1
 90
0
176
1
 62
18
420
0
176
1
 90
50
176
1
 90
3
176
1
 62
5
420
255
176
1
290
0
176
1
 90
50
176
1
 90
50
176
1
 90
50
176
1
290
0
176
1
 90
50
176
1
 62
256
176
0
 40
1.0
176
0
 90
2
176
1
  1
strokes_ogs.tif
176
1
290
0
176
1
 40
1.0
176
1
 40
1.0
176
1
  0
VISUALSTYLE
  5
5B
102
{ACAD_REACTORS
330
16
102
}
330
16
100
AcDbVisualStyle
  2
Basic
 70
7
177
3
291
1
 70
58
 90
2
176
1
 90
2
176
1
 90
0
176
1
 90
1
176
1
 40
0.6
176
1
 40
30.0
176
1
 62
7
420
16777215
176
1
 90
1
176
1
 90
4
176
1
 62
7
176
1
 62
257
176
1
 90
1
176
1
 90
1
176
1
 40
1.0
176
1
 90
8
176
1
 62
7
176
1
 40
1.0
176
1
 90
1
176
1
 90
6
176
1
 90
2
176
1
 62
7
176
1
 90
5
176
1
 90
0
176
1
 90
0
176
1
290
0
176
1
 90
1
176
1
 40
0.0
176
1
 90
0
176
1
290
0
176
1
290
1
176
1
290
1
176
1
290
0
176
1
290
0
176
1
290
0
176
1
290
0
176
1
290
0
176
1
290
0
176
1
 90
50
176
1
 40
0.0
176
1
 40
1.0
176
1
 90
0
176
1
 62
18
420
0
176
1
 90
50
176
1
 90
3
176
1
 62
5
420
255
176
1
290
0
176
1
 90
50
176
1
 90
50
176
1
 90
50
176
1
290
0
176
1
 90
50
176
1
 62
256
176
0
 40
1.0
176
0
 90
2
176
1
  1
strokes_ogs.tif
176
1
290
0
176
1
 40
1.0
176
1
 40
1.0
176
1
  0
VISUALSTYLE
  5
5C
102
{ACAD_REACTORS
330
16
102
}
330
16
100
AcDbVisualStyle
  2
Brighten
 70
12
177
3
291
1
 70
58
 90
2
176
1
 90
2
176
1
 90
0
176
1
 90
2
176
1
 40
0.6
176
1
 40
30.0
176
1
 62
7
420
16777215
176
1
 90
1
176
1
 90
4
176
1
 62
7
176
1
 62
257
176
1
 90
1
176
1
 90
1
176
1
 40
1.0
176
1
 90
8
176
1
 62
7
176
1
 40
1.0
176
1
 90
1
176
1
 90
6
176
1
 90
2
176
1
 62
7
176
1
 90
5
176
1
 90
0
176
1
 90
0
176
1
290
0
176
1
 90
1
176
1
 40
0.0
176
1
 90
0
176
1
290
0
176
1
290
1
176
1
290
1
176
1
290
0
176
1
290
0
176
1
290
0
176
1
290
0
176
1
290
0
176
1
290
0
176
1
 90
50
176
1
 40
0.0
176
1
 40
1.0
176
1
 90
0
176
1
 62
18
420
0
176
1
 90
50
176
1
 90
3
176
1
 62
5
420
255
176
1
290
0
176
1
 90
50
176
1
 90
50
176
1
 90
50
176
1
290
0
176
1
 90
50
176
1
 62
256
176
0
 40
1.0
176
0
 90
2
176
1
  1
strokes_ogs.tif
176
1
290
0
176
1
 40
1.0
176
1
 40
1.0
176
1
  0
VISUALSTYLE
  5
5D
102
{ACAD_REACTORS
330
16
102
}
330
16
100
AcDbVisualStyle
  2
ColorChange
 70
16
177
3
291
1
 70
58
 90
2
176
1
 90
2
176
1
 90
0
176
1
 90
2
176
1
 40
0.6
176
1
 40
30.0
176
1
 62
7
420
16777215
176
1
 90
1
176
1
 90
4
176
1
 62
7
176
1
 62
257
176
1
 90
1
176
1
 90
1
176
1
 40
1.0
176
1
 90
8
176
1
 62
7
176
1
 40
1.0
176
1
 90
1
176
1
 90
6
176
1
 90
2
176
1
 62
7
176
1
 90
5
176
1
 90
0
176
1
 90
0
176
1
290
0
176
1
 90
1
176
1
 40
0.0
176
1
 90
0
176
1
290
0
176
1
290
1
176
1
290
1
176
1
290
0
176
1
290
0
176
1
290
0
176
1
290
0
176
1
290
0
176
1
290
0
176
1
 90
50
176
1
 40
0.0
176
1
 40
1.0
176
1
 90
0
176
1
 62
18
420
0
176
1
 90
50
176
1
 90
3
176
1
 62
5
420
255
176
1
290
0
176
1
 90
50
176
1
 90
50
176
1
 90
50
176
1
290
0
176
1
 90
50
176
1
 62
256
176
0
 40
1.0
176
0
 90
2
176
1
  1
strokes_ogs.tif
176
1
290
0
176
1
 40
1.0
176
1
 40
1.0
176
1
  0
VISUALSTYLE
  5
5E
102
{ACAD_REACTORS
330
16
102
}
330
16
100
AcDbVisualStyle
  2
Conceptual
 70
9
177
3
291
0
 70
58
 90
2
176
1
 90
2
176
1
 90
0
176
1
 90
3
176
1
 40
0.6
176
1
 40
30.0
176
1
 62
7
420
16777215
176
1
 90
1
176
1
 90
4
176
1
 62
7
176
1
 62
257
176
1
 90
1
176
1
 90
1
176
1
 40
1.0
176
1
 90
8
176
1
 62
7
176
1
 40
1.0
176
1
 90
1
176
1
 90
6
176
1
 90
2
176
1
 62
7
176
1
 90
5
176
1
 90
0
176
1
 90
0
176
1
290
0
176
1
 90
1
176
1
 40
0.0
176
1
 90
0
176
1
290
0
176
1
290
1
176
1
290
1
176
1
290
0
176
1
290
0
176
1
290
0
176
1
290
0
176
1
290
0
176
1
290
0
176
1
 90
50
176
1
 40
0.0
176
1
 40
1.0
176
1
 90
0
176
1
 62
18
420
0
176
1
 90
50
176
1
 90
3
176
1
 62
5
420
255
176
1
290
0
176
1
 90
50
176
1
 90
50
176
1
 90
50
176
1
290
0
176
1
 90
50
176
1
 62
256
176
0
 40
1.0
176
0
 90
2
176
1
  1
strokes_ogs.tif
176
1
290
0
176
1
 40
1.0
176
1
 40
1.0
176
1
  0
VISUALSTYLE
  5
5F
102
{ACAD_REACTORS
330
16
102
}
330
16
100
AcDbVisualStyle
  2
Dim
 70
11
177
3
291
1
 70
58
 90
2
176
1
 90
2
176
1
 90
0
176
1
 90
2
176
1
 40
0.6
176
1
 40
30.0
176
1
 62
7
420
16777215
176
1
 90
1
176
1
 90
4
176
1
 62
7
176
1
 62
257
176
1
 90
1
176
1
 90
1
176
1
 40
1.0
176
1
 90
8
176
1
 62
7
176
1
 40
1.0
176
1
 90
1
176
1
 90
6
176
1
 90
2
176
1
 62
7
176
1
 90
5
176
1
 90
0
176
1
 90
0
176
1
290
0
176
1
 90
1
176
1
 40
0.0
176
1
 90
0
176
1
290
0
176
1
290
1
176
1
290
1
176
1
290
0
176
1
290
0
176
1
290
0
176
1
290
0
176
1
290
0
176
1
290
0
176
1
 90
50
176
1
 40
0.0
176
1
 40
1.0
176
1
 90
0
176
1
 62
18
420
0
176
1
 90
50
176
1
 90
3
176
1
 62
5
420
255
176
1
290
0
176
1
 90
50
176
1
 90
50
176
1
 90
50
176
1
290
0
176
1
 90
50
176
1
 62
256
176
0
 40
1.0
176
0
 90
2
176
1
  1
strokes_ogs.tif
176
1
290
0
176
1
 40
1.0
176
1
 40
1.0
176
1
  0
VISUALSTYLE
  5
60
102
{ACAD_REACTORS
330
16
102
}
330
16
100
AcDbVisualStyle
  2
EdgeColorOff
 70
22
177
3
291
1
 70
58
 90
2
176
1
 90
2
176
1
 90
0
176
1
 90
2
176
1
 40
0.6
176
1
 40
30.0
176
1
 62
7
420
16777215
176
1
 90
1
176
1
 90
4
176
1
 62
7
176
1
 62
257
176
1
 90
1
176
1
 90
1
176
1
 40
1.0
176
1
 90
8
176
1
 62
7
176
1
 40
1.0
176
1
 90
1
176
1
 90
6
176
1
 90
2
176
1
 62
7
176
1
 90
5
176
1
 90
0
176
1
 90
0
176
1
290
0
176
1
 90
1
176
1
 40
0.0
176
1
 90
0
176
1
290
0
176
1
290
1
176
1
290
1
176
1
290
0
176
1
290
0
176
1
290
0
176
1
290
0
176
1
290
0
176
1
290
0
176
1
 90
50
176
1
 40
0.0
176
1
 40
1.0
176
1
 90
0
176
1
 62
18
420
0
176
1
 90
50
176
1
 90
3
176
1
 62
5
420
255
176
1
290
0
176
1
 90
50
176
1
 90
50
176
1
 90
50
176
1
290
0
176
1
 90
50
176
1
 62
256
176
0
 40
1.0
176
0
 90
2
176
1
  1
strokes_ogs.tif
176
1
290
0
176
1
 40
1.0
176
1
 40
1.0
176
1
  0
VISUALSTYLE
  5
61
102
{ACAD_REACTORS
330
16
102
}
330
16
100
AcDbVisualStyle
  2
Facepattern
 70
15
177
3
291
1
 70
58
 90
2
176
1
 90
2
176
1
 90
0
176
1
 90
2
176
1
 40
0.6
176
1
 40
30.0
176
1
 62
7
420
16777215
176
1
 90
1
176
1
 90
4
176
1
 62
7
176
1
 62
257
176
1
 90
1
176
1
 90
1
176
1
 40
1.0
176
1
 90
8
176
1
 62
7
176
1
 40
1.0
176
1
 90
1
176
1
 90
6
176
1
 90
2
176
1
 62
7
176
1
 90
5
176
1
 90
0
176
1
 90
0
176
1
290
0
176
1
 90
1
176
1
 40
0.0
176
1
 90
0
176
1
290
0
176
1
290
1
176
1
290
1
176
1
290
0
176
1
290
0
176
1
290
0
176
1
290
0
176
1
290
0
176
1
290
0
176
1
 90
50
176
1
 40
0.0
176
1
 40
1.0
176
1
 90
0
176
1
 62
18
420
0
176
1
 90
50
176
1
 90
3
176
1
 62
5
420
255
176
1
290
0
176
1
 90
50
176
1
 90
50
176
1
 90
50
176
1
290
0
176
1
 90
50
176
1
 62
256
176
0
 40
1.0
176
0
 90
2
176
1
  1
strokes_ogs.tif
176
1
290
0
176
1
 40
1.0
176
1
 40
1.0
176
1
  0
VISUALSTYLE
  5
62
102
{ACAD_REACTORS
330
16
102
}
330
16
100
AcDbVisualStyle
  2
Flat
 70
0
177
3
291
1
 70
58
 90
2
176
1
 90
2
176
1
 90
0
176
1
 90
2
176
1
 40
0.6
176
1
 40
30.0
176
1
 62
7
420
16777215
176
1
 90
1
176
1
 90
4
176
1
 62
7
176
1
 62
257
176
1
 90
1
176
1
 90
1
176
1
 40
1.0
176
1
 90
8
176
1
 62
7
176
1
 40
1.0
176
1
 90
1
176
1
 90
6
176
1
 90
2
176
1
 62
7
176
1
 90
5
176
1
 90
0
176
1
 90
0
176
1
290
0
176
1
 90
1
176
1
 40
0.0
176
1
 90
0
176
1
290
0
176
1
290
1
176
1
290
1
176
1
290
0
176
1
290
0
176
1
290
0
176
1
290
0
176
1
290
0
176
1
290
0
176
1
 90
50
176
1
 40
0.0
176
1
 40
1.0
176
1
 90
0
176
1
 62
18
420
0
176
1
 90
50
176
1
 90
3
176
1
 62
5
420
255
176
1
290
0
176
1
 90
50
176
1
 90
50
176
1
 90
50
176
1
290
0
176
1
 90
50
176
1
 62
256
176
0
 40
1.0
176
0
 90
2
176
1
  1
strokes_ogs.tif
176
1
290
0
176
1
 40
1.0
176
1
 40
1.0
176
1
  0
VISUALSTYLE
  5
63
102
{ACAD_REACTORS
330
16
102
}
330
16
100
AcDbVisualStyle
  2
FlatWithEdges
 70
1
177
3
291
1
 70
58
 90
2
176
1
 90
2
176
1
 90
0
176
1
 90
2
176
1
 40
0.6
176
1
 40
30.0
176
1
 62
7
420
16777215
176
1
 90
1
176
1
 90
4
176
1
 62
7
176
1
 62
257
176
1
 90
1
176
1
 90
1
176
1
 40
1.0
176
1
 90
8
176
1
 62
7
176
1
 40
1.0
176
1
 90
1
176
1
 90
6
176
1
 90
2
176
1
 62
7
176
1
 90
5
176
1
 90
0
176
1
 90
0
176
1
290
0
176
1
 90
1
176
1
 40
0.0
176
1
 90
0
176
1
290
0
176
1
290
1
176
1
290
1
176
1
290
0
176
1
290
0
176
1
290
0
176
1
290
0
176
1
290
0
176
1
290
0
176
1
 90
50
176
1
 40
0.0
176
1
 40
1.0
176
1
 90
0
176
1
 62
18
420
0
176
1
 90
50
176
1
 90
3
176
1
 62
5
420
255
176
1
290
0
176
1
 90
50
176
1
 90
50
176
1
 90
50
176
1
290
0
176
1
 90
50
176
1
 62
256
176
0
 40
1.0
176
0
 90
2
176
1
  1
strokes_ogs.tif
176
1
290
0
176
1
 40
1.0
176
1
 40
1.0
176
1
  0
VISUALSTYLE
  5
64
102
{ACAD_REACTORS
330
16
102
}
330
16
100
AcDbVisualStyle
  2
Gouraud
 70
2
177
3
291
1
 70
58
 90
2
176
1
 90
2
176
1
 90
0
176
1
 90
2
176
1
 40
0.6
176
1
 40
30.0
176
1
 62
7
420
16777215
176
1
 90
1
176
1
 90
4
176
1
 62
7
176
1
 62
257
176
1
 90
1
176
1
 90
1
176
1
 40
1.0
176
1
 90
8
176
1
 62
7
176
1
 40
1.0
176
1
 90
1
176
1
 90
6
176
1
 90
2
176
1
 62
7
176
1
 90
5
176
1
 90
0
176
1
 90
0
176
1
290
0
176
1
 90
1
176
1
 40
0.0
176
1
 90
0
176
1
290
0
176
1
290
1
176
1
290
1
176
1
290
0
176
1
290
0
176
1
290
0
176
1
290
0
176
1
290
0
176
1
290
0
176
1
 90
50
176
1
 40
0.0
176
1
 40
1.0
176
1
 90
0
176
1
 62
18
420
0
176
1
 90
50
176
1
 90
3
176
1
 62
5
420
255
176
1
290
0
176
1
 90
50
176
1
 90
50
176
1
 90
50
176
1
290
0
176
1
 90
50
176
1
 62
256
176
0
 40
1.0
176
0
 90
2
176
1
  1
strokes_ogs.tif
176
1
290
0
176
1
 40
1.0
176
1
 40
1.0
176
1
  0
VISUALSTYLE
  5
65
102
{ACAD_REACTORS
330
16
102
}
330
16
100
AcDbVisualStyle
  2
GouraudWithEdges
 70
3
177
3
291
1
 70
58
 90
2
176
1
 90
2
176
1
 90
0
176
1
 90
2
176
1
 40
0.6
176
1
 40
30.0
176
1
 62
7
420
16777215
176
1
 90
1
176
1
 90
4
176
1
 62
7
176
1
 62
257
176
1
 90
1
176
1
 90
1
176
1
 40
1.0
176
1
 90
8
176
1
 62
7
176
1
 40
1.0
176
1
 90
1
176
1
 90
6
176
1
 90
2
176
1
 62
7
176
1
 90
5
176
1
 90
0
176
1
 90
0
176
1
290
0
176
1
 90
1
176
1
 40
0.0
176
1
 90
0
176
1
290
0
176
1
290
1
176
1
290
1
176
1
290
0
176
1
290
0
176
1
290
0
176
1
290
0
176
1
290
0
176
1
290
0
176
1
 90
50
176
1
 40
0.0
176
1
 40
1.0
176
1
 90
0
176
1
 62
18
420
0
176
1
 90
50
176
1
 90
3
176
1
 62
5
420
255
176
1
290
0
176
1
 90
50
176
1
 90
50
176
1
 90
50
176
1
290
0
176
1
 90
50
176
1
 62
256
176
0
 40
1.0
176
0
 90
2
176
1
  1
strokes_ogs.tif
176
1
290
0
176
1
 40
1.0
176
1
 40
1.0
176
1
  0
VISUALSTYLE
  5
66
102
{ACAD_REACTORS
330
16
102
}
330
16
100
AcDbVisualStyle
  2
Hidden
 70
6
177
3
291
0
 70
58
 90
2
176
1
 90
2
176
1
 90
0
176
1
 90
1
176
1
 40
0.6
176
1
 40
30.0
176
1
 62
7
420
16777215
176
1
 90
1
176
1
 90
4
176
1
 62
7
176
1
 62
257
176
1
 90
1
176
1
 90
1
176
1
 40
1.0
176
1
 90
8
176
1
 62
7
176
1
 40
1.0
176
1
 90
1
176
1
 90
6
176
1
 90
2
176
1
 62
7
176
1
 90
5
176
1
 90
0
176
1
 90
0
176
1
290
0
176
1
 90
1
176
1
 40
0.0
176
1
 90
0
176
1
290
0
176
1
290
1
176
1
290
1
176
1
290
0
176
1
290
0
176
1
290
0
176
1
290
0
176
1
290
0
176
1
290
0
176
1
 90
50
176
1
 40
0.0
176
1
 40
1.0
176
1
 90
0
176
1
 62
18
420
0
176
1
 90
50
176
1
 90
3
176
1
 62
5
420
255
176
1
290
0
176
1
 90
50
176
1
 90
50
176
1
 90
50
176
1
290
0
176
1
 90
50
176
1
 62
256
176
0
 40
1.0
176
0
 90
2
176
1
  1
strokes_ogs.tif
176
1
290
0
176
1
 40
1.0
176
1
 40
1.0
176
1
  0
VISUALSTYLE
  5
67
102
{ACAD_REACTORS
330
16
102
}
330
16
100
AcDbVisualStyle
  2
JitterOff
 70
20
177
3
291
1
 70
58
 90
2
176
1
 90
2
176
1
 90
0
176
1
 90
2
176
1
 40
0.6
176
1
 40
30.0
176
1
 62
7
420
16777215
176
1
 90
1
176
1
 90
4
176
1
 62
7
176
1
 62
257
176
1
 90
1
176
1
 90
1
176
1
 40
1.0
176
1
 90
8
176
1
 62
7
176
1
 40
1.0
176
1
 90
1
176
1
 90
6
176
1
 90
2
176
1
 62
7
176
1
 90
5
176
1
 90
0
176
1
 90
0
176
1
290
0
176
1
 90
1
176
1
 40
0.0
176
1
 90
0
176
1
290
0
176
1
290
1
176
1
290
1
176
1
290
0
176
1
290
0
176
1
290
0
176
1
290
0
176
1
290
0
176
1
290
0
176
1
 90
50
176
1
 40
0.0
176
1
 40
1.0
176
1
 90
0
176
1
 62
18
420
0
176
1
 90
50
176
1
 90
3
176
1
 62
5
420
255
176
1
290
0
176
1
 90
50
176
1
 90
50
176
1
 90
50
176
1
290
0
176
1
 90
50
176
1
 62
256
176
0
 40
1.0
176
0
 90
2
176
1
  1
strokes_ogs.tif
176
1
290
0
176
1
 40
1.0
176
1
 40
1.0
176
1
  0
VISUALSTYLE
  5
68
102
{ACAD_REACTORS
330
16
102
}
330
16
100
AcDbVisualStyle
  2
Linepattern
 70
14
177
3
291
1
 70
58
 90
2
176
1
 90
2
176
1
 90
0
176
1
 90
2
176
1
 40
0.6
176
1
 40
30.0
176
1
 62
7
420
16777215
176
1
 90
1
176
1
 90
4
176
1
 62
7
176
1
 62
257
176
1
 90
1
176
1
 90
1
176
1
 40
1.0
176
1
 90
8
176
1
 62
7
176
1
 40
1.0
176
1
 90
1
176
1
 90
6
176
1
 90
2
176
1
 62
7
176
1
 90
5
176
1
 90
0
176
1
 90
0
176
1
290
0
176
1
 90
1
176
1
 40
0.0
176
1
 90
0
176
1
290
0
176
1
290
1
176
1
290
1
176
1
290
0
176
1
290
0
176
1
290
0
176
1
290
0
176
1
290
0
176
1
290
0
176
1
 90
50
176
1
 40
0.0
176
1
 40
1.0
176
1
 90
0
176
1
 62
18
420
0
176
1
 90
50
176
1
 90
3
176
1
 62
5
420
255
176
1
290
0
176
1
 90
50
176
1
 90
50
176
1
 90
50
176
1
290
0
176
1
 90
50
176
1
 62
256
176
0
 40
1.0
176
0
 90
2
176
1
  1
strokes_ogs.tif
176
1
290
0
176
1
 40
1.0
176
1
 40
1.0
176
1
  0
VISUALSTYLE
  5
69
102
{ACAD_REACTORS
330
16
102
}
330
16
100
AcDbVisualStyle
  2
Modeling
 70
10
177
3
291
0
 70
58
 90
2
176
1
 90
2
176
1
 90
0
176
1
 90
2
176
1
 40
0.6
176
1
 40
30.0
176
1
 62
7
420
16777215
176
1
 90
1
176
1
 90
4
176
1
 62
7
176
1
 62
257
176
1
 90
1
176
1
 90
1
176
1
 40
1.0
176
1
 90
8
176
1
 62
7
176
1
 40
1.0
176
1
 90
1
176
1
 90
6
176
1
 90
2
176
1
 62
7
176
1
 90
5
176
1
 90
0
176
1
 90
0
176
1
290
0
176
1
 90
1
176
1
 40
0.0
176
1
 90
0
176
1
290
0
176
1
290
1
176
1
290
1
176
1
290
0
176
1
290
0
176
1
290
0
176
1
290
0
176
1
290
0
176
1
290
0
176
1
 90
50
176
1
 40
0.0
176
1
 40
1.0
176
1
 90
0
176
1
 62
18
420
0
176
1
 90
50
176
1
 90
3
176
1
 62
5
420
255
176
1
290
0
176
1
 90
50
176
1
 90
50
176
1
 90
50
176
1
290
0
176
1
 90
50
176
1
 62
256
176
0
 40
1.0
176
0
 90
2
176
1
  1
strokes_ogs.tif
176
1
290
0
176
1
 40
1.0
176
1
 40
1.0
176
1
  0
VISUALSTYLE
  5
6A
102
{ACAD_REACTORS
330
16
102
}
330
16
100
AcDbVisualStyle
  2
OverhangOff
 70
21
177
3
291
1
 70
58
 90
2
176
1
 90
2
176
1
 90
0
176
1
 90
2
176
1
 40
0.6
176
1
 40
30.0
176
1
 62
7
420
16777215
176
1
 90
1
176
1
 90
4
176
1
 62
7
176
1
 62
257
176
1
 90
1
176
1
 90
1
176
1
 40
1.0
176
1
 90
8
176
1
 62
7
176
1
 40
1.0
176
1
 90
1
176
1
 90
6
176
1
 90
2
176
1
 62
7
176
1
 90
5
176
1
 90
0
176
1
 90
0
176
1
290
0
176
1
 90
1
176
1
 40
0.0
176
1
 90
0
176
1
290
0
176
1
290
1
176
1
290
1
176
1
290
0
176
1
290
0
176
1
290
0
176
1
290
0
176
1
290
0
176
1
290
0
176
1
 90
50
176
1
 40
0.0
176
1
 40
1.0
176
1
 90
0
176
1
 62
18
420
0
176
1
 90
50
176
1
 90
3
176
1
 62
5
420
255
176
1
290
0
176
1
 90
50
176
1
 90
50
176
1
 90
50
176
1
290
0
176
1
 90
50
176
1
 62
256
176
0
 40
1.0
176
0
 90
2
176
1
  1
strokes_ogs.tif
176
1
290
0
176
1
 40
1.0
176
1
 40
1.0
176
1
  0
VISUALSTYLE
  5
6B
102
{ACAD_REACTORS
330
16
102
}
330
16
100
AcDbVisualStyle
  2
Realistic
 70
8
177
3
291
0
 70
58
 90
2
176
1
 90
2
176
1
 90
0
176
1
 90
2
176
1
 40
0.6
176
1
 40
30.0
176
1
 62
7
420
16777215
176
1
 90
1
176
1
 90
4
176
1
 62
7
176
1
 62
257
176
1
 90
1
176
1
 90
1
176
1
 40
1.0
176
1
 90
8
176
1
 62
7
176
1
 40
1.0
176
1
 90
1
176
1
 90
6
176
1
 90
2
176
1
 62
7
176
1
 90
5
176
1
 90
0
176
1
 90
0
176
1
290
0
176
1
 90
1
176
1
 40
0.0
176
1
 90
0
176
1
290
0
176
1
290
1
176
1
290
1
176
1
290
0
176
1
290
0
176
1
290
0
176
1
290
0
176
1
290
0
176
1
290
0
176
1
 90
50
176
1
 40
0.0
176
1
 40
1.0
176
1
 90
0
176
1
 62
18
420
0
176
1
 90
50
176
1
 90
3
176
1
 62
5
420
255
176
1
290
0
176
1
 90
50
176
1
 90
50
176
1
 90
50
176
1
290
0
176
1
 90
50
176
1
 62
256
176
0
 40
1.0
176
0
 90
2
176
1
  1
strokes_ogs.tif
176
1
290
0
176
1
 40
1.0
176
1
 40
1.0
176
1
  0
VISUALSTYLE
  5
6C
102
{ACAD_REACTORS
330
16
102
}
330
16
100
AcDbVisualStyle
  2
Shaded
 70
27
177
3
291
0
 70
58
 90
2
176
1
 90
2
176
1
 90
0
176
1
 90
2
176
1
 40
0.6
176
1
 40
30.0
176
1
 62
7
420
16777215
176
1
 90
1
176
1
 90
4
176
1
 62
7
176
1
 62
257
176
1
 90
1
176
1
 90
1
176
1
 40
1.0
176
1
 90
8
176
1
 62
7
176
1
 40
1.0
176
1
 90
1
176
1
 90
6
176
1
 90
2
176
1
 62
7
176
1
 90
5
176
1
 90
0
176
1
 90
0
176
1
290
0
176
1
 90
1
176
1
 40
0.0
176
1
 90
0
176
1
290
0
176
1
290
1
176
1
290
1
176
1
290
0
176
1
290
0
176
1
290
0
176
1
290
0
176
1
290
0
176
1
290
0
176
1
 90
50
176
1
 40
0.0
176
1
 40
1.0
176
1
 90
0
176
1
 62
18
420
0
176
1
 90
50
176
1
 90
3
176
1
 62
5
420
255
176
1
290
0
176
1
 90
50
176
1
 90
50
176
1
 90
50
176
1
290
0
176
1
 90
50
176
1
 62
256
176
0
 40
1.0
176
0
 90
2
176
1
  1
strokes_ogs.tif
176
1
290
0
176
1
 40
1.0
176
1
 40
1.0
176
1
  0
VISUALSTYLE
  5
6D
102
{ACAD_REACTORS
330
16
102
}
330
16
100
AcDbVisualStyle
  2
Shaded with edges
 70
26
177
3
291
0
 70
58
 90
2
176
1
 90
2
176
1
 90
0
176
1
 90
2
176
1
 40
0.6
176
1
 40
30.0
176
1
 62
7
420
16777215
176
1
 90
1
176
1
 90
4
176
1
 62
7
176
1
 62
257
176
1
 90
1
176
1
 90
1
176
1
 40
1.0
176
1
 90
8
176
1
 62
7
176
1
 40
1.0
176
1
 90
1
176
1
 90
6
176
1
 90
2
176
1
 62
7
176
1
 90
5
176
1
 90
0
176
1
 90
0
176
1
290
0
176
1
 90
1
176
1
 40
0.0
176
1
 90
0
176
1
290
0
176
1
290
1
176
1
290
1
176
1
290
0
176
1
290
0
176
1
290
0
176
1
290
0
176
1
290
0
176
1
290
0
176
1
 90
50
176
1
 40
0.0
176
1
 40
1.0
176
1
 90
0
176
1
 62
18
420
0
176
1
 90
50
176
1
 90
3
176
1
 62
5
420
255
176
1
290
0
176
1
 90
50
176
1
 90
50
176
1
 90
50
176
1
290
0
176
1
 90
50
176
1
 62
256
176
0
 40
1.0
176
0
 90
2
176
1
  1
strokes_ogs.tif
176
1
290
0
176
1
 40
1.0
176
1
 40
1.0
176
1
  0
VISUALSTYLE
  5
6E
102
{ACAD_REACTORS
330
16
102
}
330
16
100
AcDbVisualStyle
  2
Shades of Gray
 70
23
177
3
291
0
 70
58
 90
2
176
1
 90
2
176
1
 90
0
176
1
 90
2
176
1
 40
0.6
176
1
 40
30.0
176
1
 62
7
420
16777215
176
1
 90
1
176
1
 90
4
176
1
 62
7
176
1
 62
257
176
1
 90
1
176
1
 90
1
176
1
 40
1.0
176
1
 90
8
176
1
 62
7
176
1
 40
1.0
176
1
 90
1
176
1
 90
6
176
1
 90
2
176
1
 62
7
176
1
 90
5
176
1
 90
0
176
1
 90
0
176
1
290
0
176
1
 90
1
176
1
 40
0.0
176
1
 90
0
176
1
290
0
176
1
290
1
176
1
290
1
176
1
290
0
176
1
290
0
176
1
290
0
176
1
290
0
176
1
290
0
176
1
290
0
176
1
 90
50
176
1
 40
0.0
176
1
 40
1.0
176
1
 90
0
176
1
 62
18
420
0
176
1
 90
50
176
1
 90
3
176
1
 62
5
420
255
176
1
290
0
176
1
 90
50
176
1
 90
50
176
1
 90
50
176
1
290
0
176
1
 90
50
176
1
 62
256
176
0
 40
1.0
176
0
 90
2
176
1
  1
strokes_ogs.tif
176
1
290
0
176
1
 40
1.0
176
1
 40
1.0
176
1
  0
VISUALSTYLE
  5
6F
102
{ACAD_REACTORS
330
16
102
}
330
16
100
AcDbVisualStyle
  2
Sketchy
 70
24
177
3
291
0
 70
58
 90
2
176
1
 90
2
176
1
 90
0
176
1
 90
1
176
1
 40
0.6
176
1
 40
30.0
176
1
 62
7
420
16777215
176
1
 90
1
176
1
 90
4
176
1
 62
7
176
1
 62
257
176
1
 90
1
176
1
 90
1
176
1
 40
1.0
176
1
 90
8
176
1
 62
7
176
1
 40
1.0
176
1
 90
1
176
1
 90
6
176
1
 90
2
176
1
 62
7
176
1
 90
5
176
1
 90
0
176
1
 90
0
176
1
290
0
176
1
 90
1
176
1
 40
0.0
176
1
 90
0
176
1
290
0
176
1
290
1
176
1
290
1
176
1
290
0
176
1
290
0
176
1
290
0
176
1
290
0
176
1
290
0
176
1
290
0
176
1
 90
50
176
1
 40
0.0
176
1
 40
1.0
176
1
 90
0
176
1
 62
18
420
0
176
1
 90
50
176
1
 90
3
176
1
 62
5
420
255
176
1
290
0
176
1
 90
50
176
1
 90
50
176
1
 90
50
176
1
290
0
176
1
 90
50
176
1
 62
256
176
0
 40
1.0
176
0
 90
2
176
1
  1
strokes_ogs.tif
176
1
290
0
176
1
 40
1.0
176
1
 40
1.0
176
1
  0
VISUALSTYLE
  5
70
102
{ACAD_REACTORS
330
16
102
}
330
16
100
AcDbVisualStyle
  2
Thicken
 70
13
177
3
291
1
 70
58
 90
2
176
1
 90
2
176
1
 90
0
176
1
 90
2
176
1
 40
0.6
176
1
 40
30.0
176
1
 62
7
420
16777215
176
1
 90
1
176
1
 90
4
176
1
 62
7
176
1
 62
257
176
1
 90
1
176
1
 90
1
176
1
 40
1.0
176
1
 90
8
176
1
 62
7
176
1
 40
1.0
176
1
 90
1
176
1
 90
6
176
1
 90
2
176
1
 62
7
176
1
 90
5
176
1
 90
0
176
1
 90
0
176
1
290
0
176
1
 90
1
176
1
 40
0.0
176
1
 90
0
176
1
290
0
176
1
290
1
176
1
290
1
176
1
290
0
176
1
290
0
176
1
290
0
176
1
290
0
176
1
290
0
176
1
290
0
176
1
 90
50
176
1
 40
0.0
176
1
 40
1.0
176
1
 90
0
176
1
 62
18
420
0
176
1
 90
50
176
1
 90
3
176
1
 62
5
420
255
176
1
290
0
176
1
 90
50
176
1
 90
50
176
1
 90
50
176
1
290
0
176
1
 90
50
176
1
 62
256
176
0
 40
1.0
176
0
 90
2
176
1
  1
strokes_ogs.tif
176
1
290
0
176
1
 40
1.0
176
1
 40
1.0
176
1
  0
VISUALSTYLE
  5
71
102
{ACAD_REACTORS
330
16
102
}
330
16
100
AcDbVisualStyle
  2
Wireframe
 70
5
177
3
291
0
 70
58
 90
2
176
1
 90
2
176
1
 90
0
176
1
 90
0
176
1
 40
0.6
176
1
 40
30.0
176
1
 62
7
420
16777215
176
1
 90
1
176
1
 90
4
176
1
 62
7
176
1
 62
257
176
1
 90
1
176
1
 90
1
176
1
 40
1.0
176
1
 90
8
176
1
 62
7
176
1
 40
1.0
176
1
 90
1
176
1
 90
6
176
1
 90
2
176
1
 62
7
176
1
 90
5
176
1
 90
0
176
1
 90
0
176
1
290
0
176
1
 90
1
176
1
 40
0.0
176
1
 90
0
176
1
290
0
176
1
290
1
176
1
290
1
176
1
290
0
176
1
290
0
176
1
290
0
176
1
290
0
176
1
290
0
176
1
290
0
176
1
 90
50
176
1
 40
0.0
176
1
 40
1.0
176
1
 90
0
176
1
 62
18
420
0
176
1
 90
50
176
1
 90
3
176
1
 62
5
420
255
176
1
290
0
176
1
 90
50
176
1
 90
50
176
1
 90
50
176
1
290
0
176
1
 90
50
176
1
 62
256
176
0
 40
1.0
176
0
 90
2
176
1
  1
strokes_ogs.tif
176
1
290
0
176
1
 40
1.0
176
1
 40
1.0
176
1
  0
VISUALSTYLE
  5
72
102
{ACAD_REACTORS
330
16
102
}
330
16
100
AcDbVisualStyle
  2
X-Ray
 70
25
177
3
291
0
 70
58
 90
2
176
1
 90
2
176
1
 90
0
176
1
 90
2
176
1
 40
0.5
176
1
 40
30.0
176
1
 62
7
420
16777215
176
1
 90
1
176
1
 90
4
176
1
 62
7
176
1
 62
257
176
1
 90
1
176
1
 90
1
176
1
 40
1.0
176
1
 90
8
176
1
 62
7
176
1
 40
1.0
176
1
 90
1
176
1
 90
6
176
1
 90
2
176
1
 62
7
176
1
 90
5
176
1
 90
0
176
1
 90
0
176
1
290
0
176
1
 90
1
176
1
 40
0.0
176
1
 90
0
176
1
290
0
176
1
290
1
176
1
290
1
176
1
290
0
176
1
290
0
176
1
290
0
176
1
290
0
176
1
290
0
176
1
290
0
176
1
 90
50
176
1
 40
0.0
176
1
 40
1.0
176
1
 90
0
176
1
 62
18
420
0
176
1
 90
50
176
1
 90
3
176
1
 62
5
420
255
176
1
290
0
176
1
 90
50
176
1
 90
50
176
1
 90
50
176
1
290
0
176
1
 90
50
176
1
 62
256
176
0
 40
1.0
176
0
 90
2
176
1
  1
strokes_ogs.tif
176
1
290
0
176
1
 40
1.0
176
1
 40
1.0
176
1
  0
DICTIONARYVAR
  5
192
330
2D
100
DictionaryVariables
280
0
  1
1.4.4 @ 2026-09-28T04:12:06.894914+00:00
  0
ENDSEC
  0
EOF
