  0
SECTION
  2
HEADER
  9
$ACADVER
  1
AC1032
  9
$ACADMAINTVER
 90
4
  9
$DWGCODEPAGE
  3
ANSI_1252
  9
$LASTSAVEDBY
  1
ezdxf
  9
$REQUIREDVERSIONS
160
0
  9
$INSBASE
 10
0.0
 20
0.0
 30
0.0
  9
$EXTMIN
 10
1e+20
 20
1e+20
 30
1e+20
  9
$EXTMAX
 10
-1e+20
 20
-1e+20
 30
-1e+20
  9
$LIMMIN
 10
0.0
 20
0.0
  9
$LIMMAX
 10
420.0
 20
297.0
  9
$ORTHOMODE
 70
0
  9
$REGENMODE
 70
1
  9
$FILLMODE
 70
1
  9
$QTEXTMODE
 70
0
  9
$MIRRTEXT
 70
1
  9
$LTSCALE
 40
1.0
  9
$ATTMODE
 70
1
  9
$TEXTSIZE
 40
2.5
  9
$TRACEWID
 40
1.0
  9
$TEXTSTYLE
  7
OpenSans
  9
$CLAYER
  8
0
  9
$CELTYPE
  6
ByLayer
  9
$CECOLOR
 62
256
  9
$CELTSCALE
 40
1.0
  9
$DISPSILH
 70
0
  9
$DIMSCALE
 40
1.0
  9
$DIMASZ
 40
0.175
  9
$DIMEXO
 40
0.125
  9
$DIMDLI
 40
3.75
  9
$DIMRND
 40
0.0
  9
$DIMDLE
 40
0.0
  9
$DIMEXE
 40
0.375
  9
$DIMTP
 40
0.0
  9
$DIMTM
 40
0.0
  9
$DIMTXT
 40
0.25
  9
$DIMCEN
 40
2.5
  9
$DIMTSZ
 40
0.0
  9
$DIMTOL
 70
0
  9
$DIMLIM
 70
0
  9
$DIMTIH
 70
0
  9
$DIMTOH
 70
0
  9
$DIMSE1
 70
0
  9
$DIMSE2
 70
0
  9
$DIMTAD
 70
1
  9
$DIMZIN
 70
12
  9
$DIMBLK
  1
ARCHTICK
  9
$DIMASO
 70
1
  9
$DIMSHO
 70
1
  9
$DIMPOST
  1

  9
$DIMAPOST
  1

  9
$DIMALT
 70
0
  9
$DIMALTD
 70
3
  9
$DIMALTF
 40
0.03937007874
  9
$DIMLFAC
 40
100.0
  9
$DIMTOFL
 70
1
  9
$DIMTVP
 40
0.0
  9
$DIMTIX
 70
0
  9
$DIMSOXD
 70
0
  9
$DIMSAH
 70
0
  9
$DIMBLK1
  1

  9
$DIMBLK2
  1

  9
$DIMSTYLE
  2
EZDXF
  9
$DIMCLRD
 70
0
  9
$DIMCLRE
 70
0
  9
$DIMCLRT
 70
0
  9
$DIMTFAC
 40
0.5
  9
$DIMGAP
 40
0.1
  9
$DIMJUST
 70
0
  9
$DIMSD1
 70
0
  9
$DIMSD2
 70
0
  9
$DIMTOLJ
 70
0
  9
$DIMTZIN
 70
8
  9
$DIMALTZ
 70
0
  9
$DIMALTTZ
 70
0
  9
$DIMUPT
 70
1
  9
$DIMDEC
 70
2
  9
$DIMTDEC
 70
2
  9
$DIMALTU
 70
2
  9
$DIMALTTD
 70
3
  9
$DIMTXSTY
  7
OpenSansCondensed-Light
  9
$DIMAUNIT
 70
0
  9
$DIMADEC
 70
2
  9
$DIMALTRND
 40
0.0
  9
$DIMAZIN
 70
3
  9
$DIMDSEP
 70
46
  9
$DIMATFIT
 70
3
  9
$DIMFRAC
 70
0
  9
$DIMLDRBLK
  1

  9
$DIMLUNIT
 70
2
  9
$DIMLWD
 70
-2
  9
$DIMLWE
 70
-2
  9
$DIMTMOVE
 70
2
  9
$DIMFXL
 40
1.0
  9
$DIMFXLON
 70
0
  9
$DIMJOGANG
 40
0.785398163397
  9
$DIMTFILL
 70
0
  9
$DIMTFILLCLR
 70
0
  9
$DIMARCSYM
 70
0
  9
$DIMLTYPE
  6

  9
$DIMLTEX1
  6

  9
$DIMLTEX2
  6

  9
$DIMTXTDIRECTION
 70
0
  9
$LUNITS
 70
2
  9
$LUPREC
 70
4
  9
$SKETCHINC
 40
1.0
  9
$FILLETRAD
 40
10.0
  9
$AUNITS
 70
0
  9
$AUPREC
 70
2
  9
$MENU
  1
.
  9
$ELEVATION
 40
0.0
  9
$PELEVATION
 40
0.0
  9
$THICKNESS
 40
0.0
  9
$LIMCHECK
 70
0
  9
$CHAMFERA
 40
0.0
  9
$CHAMFERB
 40
0.0
  9
$CHAMFERC
 40
0.0
  9
$CHAMFERD
 40
0.0
  9
$SKPOLY
 70
0
  9
$TDCREATE
 40
2461312.175104167
  9
$TDUCREATE
 40
2458532.153996898
  9
$TDUPDATE
 40
2461312.175104167
  9
$TDUUPDATE
 40
2458532.1544311
  9
$TDINDWG
 40
0.0
  9
$TDUSRTIMER
 40
0.0
  9
$USRTIMER
 70
1
  9
$ANGBASE
 50
0.0
  9
$ANGDIR
 70
0
  9
$PDMODE
 70
0
  9
$PDSIZE
 40
0.0
  9
$PLINEWID
 40
0.0
  9
$SPLFRAME
 70
0
  9
$SPLINETYPE
 70
6
  9
$SPLINESEGS
 70
8
  9
$HANDSEED
  5
17F
  9
$SURFTAB1
 70
6
  9
$SURFTAB2
 70
6
  9
$SURFTYPE
 70
6
  9
$SURFU
 70
6
  9
$SURFV
 70
6
  9
$UCSBASE
  2

  9
$UCSNAME
  2

  9
$UCSORG
 10
0.0
 20
0.0
 30
0.0
  9
$UCSXDIR
 10
1.0
 20
0.0
 30
0.0
  9
$UCSYDIR
 10
0.0
 20
1.0
 30
0.0
  9
$UCSORTHOREF
  2

  9
$UCSORTHOVIEW
 70
0
  9
$UCSORGTOP
 10
0.0
 20
0.0
 30
0.0
  9
$UCSORGBOTTOM
 10
0.0
 20
0.0
 30
0.0
  9
$UCSORGLEFT
 10
0.0
 20
0.0
 30
0.0
  9
$UCSORGRIGHT
 10
0.0
 20
0.0
 30
0.0
  9
$UCSORGFRONT
 10
0.0
 20
0.0
 30
0.0
  9
$UCSORGBACK
 10
0.0
 20
0.0
 30
0.0
  9
$PUCSBASE
  2

  9
$PUCSNAME
  2

  9
$PUCSORG
 10
0.0
 20
0.0
 30
0.0
  9
$PUCSXDIR
 10
1.0
 20
0.0
 30
0.0
  9
$PUCSYDIR
 10
0.0
 20
1.0
 30
0.0
  9
$PUCSORTHOREF
  2

  9
$PUCSORTHOVIEW
 70
0
  9
$PUCSORGTOP
 10
0.0
 20
0.0
 30
0.0
  9
$PUCSORGBOTTOM
 10
0.0
 20
0.0
 30
0.0
  9
$PUCSORGLEFT
 10
0.0
 20
0.0
 30
0.0
  9
$PUCSORGRIGHT
 10
0.0
 20
0.0
 30
0.0
  9
$PUCSORGFRONT
 10
0.0
 20
0.0
 30
0.0
  9
$PUCSORGBACK
 10
0.0
 20
0.0
 30
0.0
  9
$USERI1
 70
0
  9
$USERI2
 70
0
  9
$USERI3
 70
0
  9
$USERI4
 70
0
  9
$USERI5
 70
0
  9
$USERR1
 40
0.0
  9
$USERR2
 40
0.0
  9
$USERR3
 40
0.0
  9
$USERR4
 40
0.0
  9
$USERR5
 40
0.0
  9
$WORLDVIEW
 70
1
  9
$SHADEDGE
 70
3
  9
$SHADEDIF
 70
70
  9
$TILEMODE
 70
1
  9
$MAXACTVP
 70
64
  9
$PINSBASE
 10
0.0
 20
0.0
 30
0.0
  9
$PLIMCHECK
 70
0
  9
$PEXTMIN
 10
1e+20
 20
1e+20
 30
1e+20
  9
$PEXTMAX
 10
-1e+20
 20
-1e+20
 30
-1e+20
  9
$PLIMMIN
 10
0.0
 20
0.0
  9
$PLIMMAX
 10
420.0
 20
297.0
  9
$UNITMODE
 70
0
  9
$VISRETAIN
 70
1
  9
$PLINEGEN
 70
0
  9
$PSLTSCALE
 70
1
  9
$TREEDEPTH
 70
3020
  9
$CMLSTYLE
  2
Standard
  9
$CMLJUST
 70
0
  9
$CMLSCALE
 40
20.0
  9
$PROXYGRAPHICS
 70
1
  9
$MEASUREMENT
 70
1
  9
$CELWEIGHT
370
-1
  9
$ENDCAPS
280
0
  9
$JOINSTYLE
280
0
  9
$LWDISPLAY
290
0
  9
$INSUNITS
 70
6
  9
$HYPERLINKBASE
  1

  9
$STYLESHEET
  1

  9
$XEDIT
290
1
  9
$CEPSNTYPE
380
0
  9
$PSTYLEMODE
290
1
  9
$FINGERPRINTGUID
  2
{08FDBF1E-320B-47AE-B39F-44459FE5DFC4}
  9
$VERSIONGUID
  2
{AFCB4675-9A70-489C-8FEE-9C2774E3076D}
  9
$EXTNAMES
290
1
  9
$PSVPSCALE
 40
0.0
  9
$OLESTARTUP
290
0
  9
$SORTENTS
280
127
  9
$INDEXCTL
280
0
  9
$HIDETEXT
280
1
  9
$XCLIPFRAME
280
1
  9
$HALOGAP
280
0
  9
$OBSCOLOR
 70
257
  9
$OBSLTYPE
280
0
  9
$INTERSECTIONDISPLAY
280
0
  9
$INTERSECTIONCOLOR
 70
257
  9
$DIMASSOC
280
2
  9
$PROJECTNAME
  1

  9
$CAMERADISPLAY
290
0
  9
$LENSLENGTH
 40
50.0
  9
$CAMERAHEIGHT
 40
0.0
  9
$STEPSPERSEC
 40
24.0
  9
$STEPSIZE
 40
100.0
  9
$3DDWFPREC
 40
2.0
  9
$PSOLWIDTH
 40
0.005
  9
$PSOLHEIGHT
 40
0.08
  9
$LOFTANG1
 40
1.570796326795
  9
$LOFTANG2
 40
1.570796326795
  9
$LOFTMAG1
 40
0.0
  9
$LOFTMAG2
 40
0.0
  9
$LOFTPARAM
 70
7
  9
$LOFTNORMALS
280
1
  9
$LATITUDE
 40
37.795
  9
$LONGITUDE
 40
-122.394
  9
$NORTHDIRECTION
 40
0.0
  9
$TIMEZONE
 70
-8000
  9
$LIGHTGLYPHDISPLAY
280
1
  9
$TILEMODELIGHTSYNCH
280
1
  9
$CMATERIAL
347
20
  9
$SOLIDHIST
280
0
  9
$SHOWHIST
280
1
  9
$DWFFRAME
280
2
  9
$DGNFRAME
280
2
  9
$REALWORLDSCALE
290
1
  9
$INTERFERECOLOR
 62
256
  9
$CSHADOW
280
0
  9
$SHADOWPLANELOCATION
 40
0.0
  0
ENDSEC
  0
SECTION
  2
CLASSES
  0
CLASS
  1
ACDBDICTIONARYWDFLT
  2
AcDbDictionaryWithDefault
  3
ObjectDBX Classes
 90
0
 91
0
280
0
281
0
  0
CLASS
  1
SUN
  2
AcDbSun
  3
SCENEOE
 90
1153
 91
0
280
0
281
0
  0
CLASS
  1
VISUALSTYLE
  2
AcDbVisualStyle
  3
ObjectDBX Classes
 90
4095
 91
0
280
0
281
0
  0
CLASS
  1
MATERIAL
  2
AcDbMaterial
  3
ObjectDBX Classes
 90
1153
 91
0
280
0
281
0
  0
CLASS
  1
SCALE
  2
AcDbScale
  3
ObjectDBX Classes
 90
1153
 91
0
280
0
281
0
  0
CLASS
  1
TABLESTYLE
  2
AcDbTableStyle
  3
ObjectDBX Classes
 90
4095
 91
0
280
0
281
0
  0
CLASS
  1
MLEADERSTYLE
  2
AcDbMLeaderStyle
  3
ACDB_MLEADERSTYLE_CLASS
 90
4095
 91
0
280
0
281
0
  0
CLASS
  1
DICTIONARYVAR
  2
AcDbDictionaryVar
  3
ObjectDBX Classes
 90
0
 91
0
280
0
281
0
  0
CLASS
  1
CELLSTYLEMAP
  2
AcDbCellStyleMap
  3
ObjectDBX Classes
 90
1152
 91
0
280
0
281
0
  0
CLASS
  1
MENTALRAYRENDERSETTINGS
  2
AcDbMentalRayRenderSettings
  3
SCENEOE
 90
1024
 91
0
280
0
281
0
  0
CLASS
  1
ACDBDETAILVIEWSTYLE
  2
AcDbDetailViewStyle
  3
ObjectDBX Classes
 90
1025
 91
0
280
0
281
0
  0
CLASS
  1
ACDBSECTIONVIEWSTYLE
  2
AcDbSectionViewStyle
  3
ObjectDBX Classes
 90
1025
 91
0
280
0
281
0
  0
CLASS
  1
RASTERVARIABLES
  2
AcDbRasterVariables
  3
ISM
 90
0
 91
0
280
0
281
0
  0
CLASS
  1
ACDBPLACEHOLDER
  2
AcDbPlaceHolder
  3
ObjectDBX Classes
 90
0
 91
0
280
0
281
0
  0
CLASS
  1
LAYOUT
  2
AcDbLayout
  3
ObjectDBX Classes
 90
0
 91
0
280
0
281
0
  0
ENDSEC
  0
SECTION
  2
TABLES
  0
TABLE
  2
VPORT
  5
8
330
0
100
AcDbSymbolTable
 70
1
  0
VPORT
  5
23
330
8
100
AcDbSymbolTableRecord
100
AcDbViewportTableRecord
  2
*Active
 70
0
 10
0.0
 20
0.0
 11
1.0
 21
1.0
 12
0.0
 22
0.0
 13
0.0
 23
0.0
 14
0.5
 24
0.5
 15
0.5
 25
0.5
 16
0.0
 26
0.0
 36
1.0
 17
0.0
 27
0.0
 37
0.0
 40
1000.0
 41
1.34
 42
50.0
 43
0.0
 44
0.0
 50
0.0
 51
0.0
 71
0
 72
1000
 73
1
 74
3
 75
0
 76
0
 77
0
 78
0
281
0
 65
0
146
0.0
  0
ENDTAB
  0
TABLE
  2
LTYPE
  5
2
330
0
100
AcDbSymbolTable
 70
21
  0
LTYPE
  5
24
330
2
100
AcDbSymbolTableRecord
100
AcDbLinetypeTableRecord
  2
ByBlock
 70
0
  3

 72
65
 73
0
 40
0.0
  0
LTYPE
  5
25
330
2
100
AcDbSymbolTableRecord
100
AcDbLinetypeTableRecord
  2
ByLayer
 70
0
  3

 72
65
 73
0
 40
0.0
  0
LTYPE
  5
26
330
2
100
AcDbSymbolTableRecord
100
AcDbLinetypeTableRecord
  2
Continuous
 70
0
  3

 72
65
 73
0
 40
0.0
  0
LTYPE
  5
2F
330
2
100
AcDbSymbolTableRecord
100
AcDbLinetypeTableRecord
  2
CENTER
 70
0
  3
Center ____ _ ____ _ ____ _ ____ _ ____ _ ____
 72
65
 73
4
 40
5.08
 49
3.175
 74
0
 49
-0.635
 74
0
 49
0.635
 74
0
 49
-0.635
 74
0
  0
LTYPE
  5
30
330
2
100
AcDbSymbolTableRecord
100
AcDbLinetypeTableRecord
  2
CENTERX2
 70
0
  3
Center (2x) ________  __  ________  __  ________
 72
65
 73
4
 40
8.89
 49
6.35
 74
0
 49
-0.635
 74
0
 49
1.27
 74
0
 49
-0.635
 74
0
  0
LTYPE
  5
31
330
2
100
AcDbSymbolTableRecord
100
AcDbLinetypeTableRecord
  2
CENTER2
 70
0
  3
Center (.5x) ____ _ ____ _ ____ _ ____ _ ____
 72
65
 73
4
 40
2.54
 49
1.587
 74
0
 49
-0.318
 74
0
 49
0.318
 74
0
 49
-0.318
 74
0
  0
LTYPE
  5
32
330
2
100
AcDbSymbolTableRecord
100
AcDbLinetypeTableRecord
  2
DASHED
 70
0
  3
Dashed __ __ __ __ __ __ __ __ __ __ __ __ __ _
 72
65
 73
2
 40
1.524
 49
1.27
 74
0
 49
-0.254
 74
0
  0
LTYPE
  5
33
330
2
100
AcDbSymbolTableRecord
100
AcDbLinetypeTableRecord
  2
DASHEDX2
 70
0
  3
Dashed (2x) ____  ____  ____  ____  ____  ____
 72
65
 73
2
 40
3.048
 49
2.54
 74
0
 49
-0.508
 74
0
  0
LTYPE
  5
34
330
2
100
AcDbSymbolTableRecord
100
AcDbLinetypeTableRecord
  2
DASHED2
 70
0
  3
Dashed (.5x) _ _ _ _ _ _ _ _ _ _ _ _ _ _
 72
65
 73
2
 40
0.762
 49
0.635
 74
0
 49
-0.127
 74
0
  0
LTYPE
  5
35
330
2
100
AcDbSymbolTableRecord
100
AcDbLinetypeTableRecord
  2
PHANTOM
 70
0
  3
Phantom ______  __  __  ______  __  __  ______
 72
65
 73
6
 40
6.35
 49
3.175
 74
0
 49
-0.635
 74
0
 49
0.635
 74
0
 49
-0.635
 74
0
 49
0.635
 74
0
 49
-0.635
 74
0
  0
LTYPE
  5
36
330
2
100
AcDbSymbolTableRecord
100
AcDbLinetypeTableRecord
  2
PHANTOMX2
 70
0
  3
Phantom (2x)____________    ____    ____    ____________
 72
65
 73
6
 40
10.795
 49
6.35
 74
0
 49
-0.635
 74
0
 49
1.27
 74
0
 49
-0.635
 74
0
 49
1.27
 74
0
 49
-0.635
 74
0
  0
LTYPE
  5
37
330
2
100
AcDbSymbolTableRecord
100
AcDbLinetypeTableRecord
  2
PHANTOM2
 70
0
  3
Phantom (.5x) ___ _ _ ___ _ _ ___ _ _ ___ _ _ ___
 72
65
 73
6
 40
3.175
 49
1.587
 74
0
 49
-0.318
 74
0
 49
0.318
 74
0
 49
-0.318
 74
0
 49
0.318
 74
0
 49
-0.318
 74
0
  0
LTYPE
  5
38
330
2
100
AcDbSymbolTableRecord
100
AcDbLinetypeTableRecord
  2
DASHDOT
 70
0
  3
Dash dot __ . __ . __ . __ . __ . __ . __ . __
 72
65
 73
4
 40
3.556
 49
2.54
 74
0
 49
-0.508
 74
0
 49
0.0
 74
0
 49
-0.508
 74
0
  0
LTYPE
  5
39
330
2
100
AcDbSymbolTableRecord
100
AcDbLinetypeTableRecord
  2
DASHDOTX2
 70
0
  3
Dash dot (2x) ____  .  ____  .  ____  .  ____
 72
65
 73
4
 40
6.096
 49
5.08
 74
0
 49
-0.508
 74
0
 49
0.0
 74
0
 49
-0.508
 74
0
  0
LTYPE
  5
3A
330
2
100
AcDbSymbolTableRecord
100
AcDbLinetypeTableRecord
  2
DASHDOT2
 70
0
  3
Dash dot (.5x) _ . _ . _ . _ . _ . _ . _ . _
 72
65
 73
4
 40
1.778
 49
1.27
 74
0
 49
-0.254
 74
0
 49
0.0
 74
0
 49
-0.254
 74
0
  0
LTYPE
  5
3B
330
2
100
AcDbSymbolTableRecord
100
AcDbLinetypeTableRecord
  2
DOT
 70
0
  3
Dot .  .  .  .  .  .  .  .  .  .  .  .  .  .  .  .
 72
65
 73
2
 40
0.508
 49
0.0
 74
0
 49
-0.508
 74
0
  0
LTYPE
  5
3C
330
2
100
AcDbSymbolTableRecord
100
AcDbLinetypeTableRecord
  2
DOTX2
 70
0
  3
Dot (2x) .    .    .    .    .    .    .    . 
 72
65
 73
2
 40
1.016
 49
0.0
 74
0
 49
-1.016
 74
0
  0
LTYPE
  5
3D
330
2
100
AcDbSymbolTableRecord
100
AcDbLinetypeTableRecord
  2
DOT2
 70
0
  3
Dot (.5) . . . . . . . . . . . . . . . . . . . 
 72
65
 73
2
 40
0.254
 49
0.0
 74
0
 49
-0.254
 74
0
  0
LTYPE
  5
3E
330
2
100
AcDbSymbolTableRecord
100
AcDbLinetypeTableRecord
  2
DIVIDE
 70
0
  3
Divide __ . . __ . . __ . . __ . . __ . . __
 72
65
 73
6
 40
4.064
 49
2.54
 74
0
 49
-0.508
 74
0
 49
0.0
 74
0
 49
-0.508
 74
0
 49
0.0
 74
0
 49
-0.508
 74
0
  0
LTYPE
  5
3F
330
2
100
AcDbSymbolTableRecord
100
AcDbLinetypeTableRecord
  2
DIVIDEX2
 70
0
  3
Divide (2x) ____  . .  ____  . .  ____  . .  ____
 72
65
 73
6
 40
6.604
 49
5.08
 74
0
 49
-0.508
 74
0
 49
0.0
 74
0
 49
-0.508
 74
0
 49
0.0
 74
0
 49
-0.508
 74
0
  0
LTYPE
  5
40
330
2
100
AcDbSymbolTableRecord
100
AcDbLinetypeTableRecord
  2
DIVIDE2
 70
0
  3
Divide(.5x) _ . _ . _ . _ . _ . _ . _ . _
 72
65
 73
6
 40
2.032
 49
1.27
 74
0
 49
-0.254
 74
0
 49
0.0
 74
0
 49
-0.254
 74
0
 49
0.0
 74
0
 49
-0.254
 74
0
  0
ENDTAB
  0
TABLE
  2
LAYER
  5
1
330
0
100
AcDbSymbolTable
 70
17
  0
LAYER
  5
27
330
1
100
AcDbSymbolTableRecord
100
AcDbLayerTableRecord
  2
0
 70
0
 62
7
  6
Continuous
370
-3
390
13
347
21
  0
LAYER
  5
28
330
1
100
AcDbSymbolTableRecord
100
AcDbLayerTableRecord
  2
Defpoints
 70
0
 62
7
  6
Continuous
290
0
370
-3
390
13
347
21
  0
LAYER
  5
8A
330
1
100
AcDbSymbolTableRecord
100
AcDbLayerTableRecord
  2
IEC
 70
0
 62
7
  6
Continuous
370
-3
390
13
347
21
  0
LAYER
  5
8B
330
1
100
AcDbSymbolTableRecord
100
AcDbLayerTableRecord
  2
EPC
 70
0
 62
8
  6
Continuous
370
-3
390
13
347
21
  0
LAYER
  5
8C
330
1
100
AcDbSymbolTableRecord
100
AcDbLayerTableRecord
  2
MAINT
 70
0
 62
6
  6
Continuous
370
-3
390
13
347
21
  0
LAYER
  5
8D
330
1
100
AcDbSymbolTableRecord
100
AcDbLayerTableRecord
  2
LAYDOWN
 70
0
 62
3
  6
Continuous
370
-3
390
13
347
21
  0
LAYER
  5
8E
330
1
100
AcDbSymbolTableRecord
100
AcDbLayerTableRecord
  2
CRANE
 70
0
 62
5
  6
Continuous
370
-3
390
13
347
21
  0
LAYER
  5
8F
330
1
100
AcDbSymbolTableRecord
100
AcDbLayerTableRecord
  2
PAD
 70
0
 62
30
  6
Continuous
370
-3
390
13
347
21
  0
LAYER
  5
90
330
1
100
AcDbSymbolTableRecord
100
AcDbLayerTableRecord
  2
ACCESS
 70
0
 62
1
  6
Continuous
370
-3
390
13
347
21
  0
LAYER
  5
91
330
1
100
AcDbSymbolTableRecord
100
AcDbLayerTableRecord
  2
DIM
 70
0
 62
1
  6
Continuous
370
-3
390
13
347
21
  0
LAYER
  5
92
330
1
100
AcDbSymbolTableRecord
100
AcDbLayerTableRecord
  2
ANNO
 70
0
 62
7
  6
Continuous
370
-3
390
13
347
21
  0
LAYER
  5
93
330
1
100
AcDbSymbolTableRecord
100
AcDbLayerTableRecord
  2
TITLE
 70
0
 62
7
  6
Continuous
370
-3
390
13
347
21
  0
LAYER
  5
94
330
1
100
AcDbSymbolTableRecord
100
AcDbLayerTableRecord
  2
PLOT
 70
0
 62
8
  6
Continuous
370
-3
390
13
347
21
  0
LAYER
  5
95
330
1
100
AcDbSymbolTableRecord
100
AcDbLayerTableRecord
  2
TIEIN
 70
0
 62
6
  6
Continuous
370
-3
390
13
347
21
  0
LAYER
  5
96
330
1
100
AcDbSymbolTableRecord
100
AcDbLayerTableRecord
  2
HIDDEN
 70
0
 62
8
  6
Continuous
370
-3
390
13
347
21
  0
LAYER
  5
97
330
1
100
AcDbSymbolTableRecord
100
AcDbLayerTableRecord
  2
SEA
 70
0
 62
4
  6
Continuous
370
-3
390
13
347
21
  0
LAYER
  5
98
330
1
100
AcDbSymbolTableRecord
100
AcDbLayerTableRecord
  2
EXCL
 70
0
 62
1
  6
Continuous
370
-3
390
13
347
21
  0
ENDTAB
  0
TABLE
  2
STYLE
  5
5
330
0
100
AcDbSymbolTable
 70
28
  0
STYLE
  5
29
330
5
100
AcDbSymbolTableRecord
100
AcDbTextStyleTableRecord
  2
Standard
 70
0
 40
0.0
 41
1.0
 50
0.0
 71
0
 42
2.5
  3
txt
  4

  0
STYLE
  5
41
330
5
100
AcDbSymbolTableRecord
100
AcDbTextStyleTableRecord
  2
OpenSans-Light
 70
0
 40
0.0
 41
1.0
 50
0.0
 71
0
 42
2.5
  3
OpenSans-Light.ttf
  4

  0
STYLE
  5
42
330
5
100
AcDbSymbolTableRecord
100
AcDbTextStyleTableRecord
  2
OpenSans-Light-Italic
 70
0
 40
0.0
 41
1.0
 50
0.0
 71
0
 42
2.5
  3
OpenSans-LightItalic.ttf
  4

  0
STYLE
  5
43
330
5
100
AcDbSymbolTableRecord
100
AcDbTextStyleTableRecord
  2
OpenSans
 70
0
 40
0.0
 41
1.0
 50
0.0
 71
0
 42
2.5
  3
OpenSans-Regular.ttf
  4

  0
STYLE
  5
44
330
5
100
AcDbSymbolTableRecord
100
AcDbTextStyleTableRecord
  2
OpenSans-Italic
 70
0
 40
0.0
 41
1.0
 50
0.0
 71
0
 42
2.5
  3
OpenSans-Italic.ttf
  4

  0
STYLE
  5
45
330
5
100
AcDbSymbolTableRecord
100
AcDbTextStyleTableRecord
  2
OpenSans-SemiBold
 70
0
 40
0.0
 41
1.0
 50
0.0
 71
0
 42
2.5
  3
OpenSans-SemiBold.ttf
  4

  0
STYLE
  5
46
330
5
100
AcDbSymbolTableRecord
100
AcDbTextStyleTableRecord
  2
OpenSans-SemiBoldItalic
 70
0
 40
0.0
 41
1.0
 50
0.0
 71
0
 42
2.5
  3
OpenSans-SemiBoldItalic.ttf
  4

  0
STYLE
  5
47
330
5
100
AcDbSymbolTableRecord
100
AcDbTextStyleTableRecord
  2
OpenSans-Bold
 70
0
 40
0.0
 41
1.0
 50
0.0
 71
0
 42
2.5
  3
OpenSans-Bold.ttf
  4

  0
STYLE
  5
48
330
5
100
AcDbSymbolTableRecord
100
AcDbTextStyleTableRecord
  2
OpenSans-BoldItalic
 70
0
 40
0.0
 41
1.0
 50
0.0
 71
0
 42
2.5
  3
OpenSans-BoldItalic.ttf
  4

  0
STYLE
  5
49
330
5
100
AcDbSymbolTableRecord
100
AcDbTextStyleTableRecord
  2
OpenSans-ExtraBold
 70
0
 40
0.0
 41
1.0
 50
0.0
 71
0
 42
2.5
  3
OpenSans-ExtraBold.ttf
  4

  0
STYLE
  5
4A
330
5
100
AcDbSymbolTableRecord
100
AcDbTextStyleTableRecord
  2
OpenSans-ExtraBoldItalic
 70
0
 40
0.0
 41
1.0
 50
0.0
 71
0
 42
2.5
  3
OpenSans-ExtraBoldItalic.ttf
  4

  0
STYLE
  5
4B
330
5
100
AcDbSymbolTableRecord
100
AcDbTextStyleTableRecord
  2
OpenSansCondensed-Bold
 70
0
 40
0.0
 41
1.0
 50
0.0
 71
0
 42
2.5
  3
OpenSansCondensed-Bold.ttf
  4

  0
STYLE
  5
4C
330
5
100
AcDbSymbolTableRecord
100
AcDbTextStyleTableRecord
  2
OpenSansCondensed-Light
 70
0
 40
0.0
 41
1.0
 50
0.0
 71
0
 42
2.5
  3
OpenSansCondensed-Light.ttf
  4

  0
STYLE
  5
4D
330
5
100
AcDbSymbolTableRecord
100
AcDbTextStyleTableRecord
  2
OpenSansCondensed-Italic
 70
0
 40
0.0
 41
1.0
 50
0.0
 71
0
 42
2.5
  3
OpenSansCondensed-LightItalic.ttf
  4

  0
STYLE
  5
4E
330
5
100
AcDbSymbolTableRecord
100
AcDbTextStyleTableRecord
  2
LiberationSans
 70
0
 40
0.0
 41
1.0
 50
0.0
 71
0
 42
2.5
  3
LiberationSans-Regular.ttf
  4

  0
STYLE
  5
4F
330
5
100
AcDbSymbolTableRecord
100
AcDbTextStyleTableRecord
  2
LiberationSans-Bold
 70
0
 40
0.0
 41
1.0
 50
0.0
 71
0
 42
2.5
  3
LiberationSans-Bold.ttf
  4

  0
STYLE
  5
50
330
5
100
AcDbSymbolTableRecord
100
AcDbTextStyleTableRecord
  2
LiberationSans-BoldItalic
 70
0
 40
0.0
 41
1.0
 50
0.0
 71
0
 42
2.5
  3
LiberationSans-BoldItalic.ttf
  4

  0
STYLE
  5
51
330
5
100
AcDbSymbolTableRecord
100
AcDbTextStyleTableRecord
  2
LiberationSans-Italic
 70
0
 40
0.0
 41
1.0
 50
0.0
 71
0
 42
2.5
  3
LiberationSans-Italic.ttf
  4

  0
STYLE
  5
52
330
5
100
AcDbSymbolTableRecord
100
AcDbTextStyleTableRecord
  2
LiberationSerif
 70
0
 40
0.0
 41
1.0
 50
0.0
 71
0
 42
2.5
  3
LiberationSerif-Regular.ttf
  4

  0
STYLE
  5
53
330
5
100
AcDbSymbolTableRecord
100
AcDbTextStyleTableRecord
  2
LiberationSerif-Bold
 70
0
 40
0.0
 41
1.0
 50
0.0
 71
0
 42
2.5
  3
LiberationSerif-Bold.ttf
  4

  0
STYLE
  5
54
330
5
100
AcDbSymbolTableRecord
100
AcDbTextStyleTableRecord
  2
LiberationSerif-BoldItalic
 70
0
 40
0.0
 41
1.0
 50
0.0
 71
0
 42
2.5
  3
LiberationSerif-BoldItalic.ttf
  4

  0
STYLE
  5
55
330
5
100
AcDbSymbolTableRecord
100
AcDbTextStyleTableRecord
  2
LiberationSerif-Italic
 70
0
 40
0.0
 41
1.0
 50
0.0
 71
0
 42
2.5
  3
LiberationSerif-Italic.ttf
  4

  0
STYLE
  5
56
330
5
100
AcDbSymbolTableRecord
100
AcDbTextStyleTableRecord
  2
LiberationMono
 70
0
 40
0.0
 41
1.0
 50
0.0
 71
0
 42
2.5
  3
LiberationMono-Regular.ttf
  4

  0
STYLE
  5
57
330
5
100
AcDbSymbolTableRecord
100
AcDbTextStyleTableRecord
  2
LiberationMono-Bold
 70
0
 40
0.0
 41
1.0
 50
0.0
 71
0
 42
2.5
  3
LiberationMono-Bold.ttf
  4

  0
STYLE
  5
58
330
5
100
AcDbSymbolTableRecord
100
AcDbTextStyleTableRecord
  2
LiberationMono-BoldItalic
 70
0
 40
0.0
 41
1.0
 50
0.0
 71
0
 42
2.5
  3
LiberationMono-BoldItalic.ttf
  4

  0
STYLE
  5
59
330
5
100
AcDbSymbolTableRecord
100
AcDbTextStyleTableRecord
  2
LiberationMono-Italic
 70
0
 40
0.0
 41
1.0
 50
0.0
 71
0
 42
2.5
  3
LiberationMono-Italic.ttf
  4

  0
STYLE
  5
99
330
5
100
AcDbSymbolTableRecord
100
AcDbTextStyleTableRecord
  2
IEC
 70
0
 40
0.0
 41
1.0
 50
0.0
 71
0
 42
2.5
  3
DejaVuSans.ttf
  4

  0
STYLE
  5
9A
330
5
100
AcDbSymbolTableRecord
100
AcDbTextStyleTableRecord
  2
ALPILLA
 70
0
 40
0.0
 41
1.0
 50
0.0
 71
0
 42
2.5
  3
DejaVuSans.ttf
  4

  0
ENDTAB
  0
TABLE
  2
VIEW
  5
7
330
0
100
AcDbSymbolTable
 70
0
  0
ENDTAB
  0
TABLE
  2
UCS
  5
6
330
0
100
AcDbSymbolTable
 70
0
  0
ENDTAB
  0
TABLE
  2
APPID
  5
3
330
0
100
AcDbSymbolTable
 70
3
  0
APPID
  5
2A
330
3
100
AcDbSymbolTableRecord
100
AcDbRegAppTableRecord
  2
ACAD
 70
0
  0
APPID
  5
17C
330
3
100
AcDbSymbolTableRecord
100
AcDbRegAppTableRecord
  2
HATCHBACKGROUNDCOLOR
 70
0
  0
APPID
  5
17D
330
3
100
AcDbSymbolTableRecord
100
AcDbRegAppTableRecord
  2
EZDXF
 70
0
  0
ENDTAB
  0
TABLE
  2
DIMSTYLE
  5
4
330
0
100
AcDbSymbolTable
 70
12
100
AcDbDimStyleTable
  0
DIMSTYLE
105
2B
330
4
100
AcDbSymbolTableRecord
100
AcDbDimStyleTableRecord
  2
Standard
 70
0
 40
1.0
 41
2.5
 42
0.625
 43
3.75
 44
1.25
 45
0.0
 46
0.0
 47
0.0
 48
0.0
 49
2.5
140
2.5
141
2.5
142
0.0
143
0.03937007874
144
1.0
145
0.0
146
1.0
147
0.625
148
0.0
 69
0
 70
0
 71
0
 72
0
 73
0
 74
0
 75
0
 76
0
 77
1
 78
8
 79
3
170
0
171
3
172
1
173
0
174
0
175
0
176
0
177
0
178
0
179
2
271
2
272
2
273
2
274
3
275
0
276
0
277
2
278
44
279
0
280
0
281
0
282
0
283
0
284
8
285
0
286
0
288
0
289
3
290
0
371
-2
372
-2
  0
DIMSTYLE
105
73
330
4
100
AcDbSymbolTableRecord
100
AcDbDimStyleTableRecord
  2
EZDXF
 70
0
 40
1.0
 41
0.175
 42
0.125
 43
3.75
 44
0.375
 45
0.0
 46
0.0
 47
0.0
 48
0.0
 49
2.5
140
0.25
141
2.5
142
0.0
143
0.03937007874
144
100.0
145
0.0
146
0.5
147
0.1
148
0.0
 69
0
 70
0
 71
0
 72
0
 73
0
 74
0
 75
0
 76
0
 77
1
 78
12
 79
3
170
0
171
3
172
1
173
0
174
0
175
0
176
0
177
0
178
0
179
2
271
2
272
2
273
2
274
3
275
0
276
0
277
2
278
46
279
2
280
0
281
0
282
0
283
0
284
8
285
0
286
0
288
1
289
3
290
0
340
4C
342
74
371
-2
372
-2
  0
DIMSTYLE
105
7C
330
4
100
AcDbSymbolTableRecord
100
AcDbDimStyleTableRecord
  2
EZ_M_100_H25_CM
 70
0
 40
1.0
 41
0.25
 42
0.125
 43
3.75
 44
0.375
 45
0.0
 46
0.0
 47
0.0
 48
0.0
 49
2.5
140
0.25
141
2.5
142
0.125
143
0.03937007874
144
100.0
145
0.0
146
0.5
147
0.1
148
0.0
 69
0
 70
0
 71
0
 72
0
 73
0
 74
0
 75
0
 76
0
 77
1
 78
12
 79
3
170
0
171
3
172
1
173
0
174
0
175
0
176
0
177
0
178
0
179
2
271
2
272
2
273
2
274
3
275
0
276
0
277
2
278
46
279
2
280
0
281
0
282
0
283
0
284
8
285
0
286
0
288
1
289
3
290
0
340
4C
371
-2
372
-2
  0
DIMSTYLE
105
7D
330
4
100
AcDbSymbolTableRecord
100
AcDbDimStyleTableRecord
  2
EZ_M_50_H25_CM
 70
0
 40
1.0
 41
0.125
 42
0.0625
 43
3.75
 44
0.1875
 45
0.0
 46
0.0
 47
0.0
 48
0.0
 49
2.5
140
0.125
141
2.5
142
0.0625
143
0.03937007874
144
100.0
145
0.0
146
0.5
147
0.05
148
0.0
 69
0
 70
0
 71
0
 72
0
 73
0
 74
0
 75
0
 76
0
 77
1
 78
12
 79
3
170
0
171
3
172
1
173
0
174
0
175
0
176
0
177
0
178
0
179
2
271
2
272
2
273
2
274
3
275
0
276
0
277
2
278
46
279
2
280
0
281
0
282
0
283
0
284
8
285
0
286
0
288
1
289
3
290
0
340
4C
371
-2
372
-2
  0
DIMSTYLE
105
7E
330
4
100
AcDbSymbolTableRecord
100
AcDbDimStyleTableRecord
  2
EZ_M_25_H25_CM
 70
0
 40
1.0
 41
0.0625
 42
0.03125
 43
3.75
 44
0.09375
 45
0.0
 46
0.0
 47
0.0
 48
0.0
 49
2.5
140
0.0625
141
2.5
142
0.03125
143
0.03937007874
144
100.0
145
0.0
146
0.5
147
0.025
148
0.0
 69
0
 70
0
 71
0
 72
0
 73
0
 74
0
 75
0
 76
0
 77
1
 78
12
 79
3
170
0
171
3
172
1
173
0
174
0
175
0
176
0
177
0
178
0
179
2
271
2
272
2
273
2
274
3
275
0
276
0
277
2
278
46
279
2
280
0
281
0
282
0
283
0
284
8
285
0
286
0
288
1
289
3
290
0
340
4C
371
-2
372
-2
  0
DIMSTYLE
105
7F
330
4
100
AcDbSymbolTableRecord
100
AcDbDimStyleTableRecord
  2
EZ_M_20_H25_CM
 70
0
 40
1.0
 41
0.05
 42
0.025
 43
3.75
 44
0.07500000000000001
 45
0.0
 46
0.0
 47
0.0
 48
0.0
 49
2.5
140
0.05
141
2.5
142
0.025
143
0.03937007874
144
100.0
145
0.0
146
0.5
147
0.020000000000000004
148
0.0
 69
0
 70
0
 71
0
 72
0
 73
0
 74
0
 75
0
 76
0
 77
1
 78
12
 79
3
170
0
171
3
172
1
173
0
174
0
175
0
176
0
177
0
178
0
179
2
271
2
272
2
273
2
274
3
275
0
276
0
277
2
278
46
279
2
280
0
281
0
282
0
283
0
284
8
285
0
286
0
288
1
289
3
290
0
340
4C
371
-2
372
-2
  0
DIMSTYLE
105
80
330
4
100
AcDbSymbolTableRecord
100
AcDbDimStyleTableRecord
  2
EZ_M_10_H25_CM
 70
0
 40
1.0
 41
0.025
 42
0.0125
 43
3.75
 44
0.037500000000000006
 45
0.0
 46
0.0
 47
0.0
 48
0.0
 49
2.5
140
0.025
141
2.5
142
0.0125
143
0.03937007874
144
100.0
145
0.0
146
0.5
147
0.010000000000000002
148
0.0
 69
0
 70
0
 71
0
 72
0
 73
0
 74
0
 75
0
 76
0
 77
1
 78
12
 79
3
170
0
171
3
172
1
173
0
174
0
175
0
176
0
177
0
178
0
179
2
271
2
272
2
273
2
274
3
275
0
276
0
277
2
278
46
279
2
280
0
281
0
282
0
283
0
284
8
285
0
286
0
288
1
289
3
290
0
340
4C
371
-2
372
-2
  0
DIMSTYLE
105
81
330
4
100
AcDbSymbolTableRecord
100
AcDbDimStyleTableRecord
  2
EZ_M_5_H25_CM
 70
0
 40
1.0
 41
0.0125
 42
0.00625
 43
3.75
 44
0.018750000000000003
 45
0.0
 46
0.0
 47
0.0
 48
0.0
 49
2.5
140
0.0125
141
2.5
142
0.00625
143
0.03937007874
144
100.0
145
0.0
146
0.5
147
0.005000000000000001
148
0.0
 69
0
 70
0
 71
0
 72
0
 73
0
 74
0
 75
0
 76
0
 77
1
 78
12
 79
3
170
0
171
3
172
1
173
0
174
0
175
0
176
0
177
0
178
0
179
2
271
2
272
2
273
2
274
3
275
0
276
0
277
2
278
46
279
2
280
0
281
0
282
0
283
0
284
8
285
0
286
0
288
1
289
3
290
0
340
4C
371
-2
372
-2
  0
DIMSTYLE
105
82
330
4
100
AcDbSymbolTableRecord
100
AcDbDimStyleTableRecord
  2
EZ_M_1_H25_CM
 70
0
 40
1.0
 41
0.0025
 42
0.00125
 43
3.75
 44
0.00375
 45
0.0
 46
0.0
 47
0.0
 48
0.0
 49
2.5
140
0.0025
141
2.5
142
0.00125
143
0.03937007874
144
100.0
145
0.0
146
0.5
147
0.001
148
0.0
 69
0
 70
0
 71
0
 72
0
 73
0
 74
0
 75
0
 76
0
 77
1
 78
12
 79
3
170
0
171
3
172
1
173
0
174
0
175
0
176
0
177
0
178
0
179
2
271
2
272
2
273
2
274
3
275
0
276
0
277
2
278
46
279
2
280
0
281
0
282
0
283
0
284
8
285
0
286
0
288
1
289
3
290
0
340
4C
371
-2
372
-2
  0
DIMSTYLE
105
83
330
4
100
AcDbSymbolTableRecord
100
AcDbDimStyleTableRecord
  2
EZ_RADIUS
 70
0
 40
1.0
 41
0.25
 42
0.125
 43
3.75
 44
0.375
 45
0.0
 46
0.0
 47
0.0
 48
0.0
 49
2.5
140
0.25
141
0.0
142
0.0
143
0.03937007874
144
100.0
145
0.0
146
0.5
147
0.1
148
0.0
 69
0
 70
0
 71
0
 72
0
 73
0
 74
0
 75
0
 76
0
 77
1
 78
12
 79
3
170
0
171
3
172
0
173
0
174
0
175
0
176
0
177
0
178
0
179
2
271
2
272
2
273
2
274
3
275
0
276
0
277
2
278
46
279
1
280
0
281
0
282
0
283
0
284
8
285
0
286
0
288
1
289
3
290
0
340
4C
342
84
371
-2
372
-2
  0
DIMSTYLE
105
88
330
4
100
AcDbSymbolTableRecord
100
AcDbDimStyleTableRecord
  2
EZ_RADIUS_INSIDE
 70
0
 40
1.0
 41
0.25
 42
0.125
 43
3.75
 44
0.375
 45
0.0
 46
0.0
 47
0.0
 48
0.0
 49
2.5
140
0.25
141
0.0
142
0.0
143
0.03937007874
144
100.0
145
0.0
146
0.5
147
0.1
148
0.0
 69
0
 70
0
 71
0
 72
0
 73
0
 74
0
 75
0
 76
0
 77
0
 78
12
 79
3
170
0
171
3
172
0
173
0
174
1
175
0
176
0
177
0
178
0
179
2
271
2
272
2
273
2
274
3
275
0
276
0
277
2
278
46
279
0
280
0
281
0
282
0
283
0
284
8
285
0
286
0
288
1
289
0
290
0
340
4C
342
84
371
-2
372
-2
  0
DIMSTYLE
105
89
330
4
100
AcDbSymbolTableRecord
100
AcDbDimStyleTableRecord
  2
EZ_CURVED
 70
0
 40
1.0
 41
0.25
 42
0.125
 43
3.75
 44
0.375
 45
0.0
 46
0.0
 47
0.0
 48
0.0
 49
2.5
140
0.25
141
2.5
142
0.0
143
0.03937007874
144
100.0
145
0.0
146
0.5
147
0.1
148
0.0
 69
0
 70
0
 71
0
 72
0
 73
0
 74
0
 75
0
 76
0
 77
1
 78
12
 79
2
 90
2
170
0
171
3
172
1
173
0
174
0
175
0
176
0
177
0
178
0
179
2
271
2
272
2
273
2
274
3
275
0
276
0
277
2
278
46
279
2
280
0
281
0
282
0
283
0
284
8
285
0
286
0
288
1
289
3
290
0
340
4C
371
-2
372
-2
  0
ENDTAB
  0
TABLE
  2
BLOCK_RECORD
  5
9
330
0
100
AcDbSymbolTable
 70
5
  0
BLOCK_RECORD
  5
17
330
9
100
AcDbSymbolTableRecord
100
AcDbBlockTableRecord
  2
*Model_Space
340
1A
 70
0
280
1
281
0
  0
BLOCK_RECORD
  5
1B
330
9
100
AcDbSymbolTableRecord
100
AcDbBlockTableRecord
  2
*Paper_Space
340
1E
 70
0
280
1
281
0
  0
BLOCK_RECORD
  5
74
330
9
100
AcDbSymbolTableRecord
100
AcDbBlockTableRecord
  2
_ARCHTICK
340
0
 70
0
280
1
281
0
  0
BLOCK_RECORD
  5
78
330
9
100
AcDbSymbolTableRecord
100
AcDbBlockTableRecord
  2
_CLOSEDFILLED
340
0
 70
0
280
1
281
0
  0
BLOCK_RECORD
  5
84
330
9
100
AcDbSymbolTableRecord
100
AcDbBlockTableRecord
  2
_CLOSEDBLANK
340
0
 70
0
280
1
281
0
  0
ENDTAB
  0
ENDSEC
  0
SECTION
  2
BLOCKS
  0
BLOCK
  5
18
330
17
100
AcDbEntity
  8
0
100
AcDbBlockBegin
  2
*Model_Space
 70
0
 10
0.0
 20
0.0
 30
0.0
  3
*Model_Space
  1

  0
ENDBLK
  5
19
330
17
100
AcDbEntity
  8
0
100
AcDbBlockEnd
  0
BLOCK
  5
1C
330
1B
100
AcDbEntity
  8
0
100
AcDbBlockBegin
  2
*Paper_Space
 70
0
 10
0.0
 20
0.0
 30
0.0
  3
*Paper_Space
  1

  0
ENDBLK
  5
1D
330
1B
100
AcDbEntity
  8
0
100
AcDbBlockEnd
  0
BLOCK
  5
75
330
74
100
AcDbEntity
  8
0
100
AcDbBlockBegin
  2
_ARCHTICK
 70
0
 10
0.0
 20
0.0
 30
0.0
  3
_ARCHTICK
  1

  0
LWPOLYLINE
  5
77
330
74
100
AcDbEntity
  8
0
  6
BYBLOCK
 62
0
100
AcDbPolyline
 90
2
 70
0
 43
0.15
 10
-0.5
 20
-0.5
 10
0.5
 20
0.5
  0
ENDBLK
  5
76
330
74
100
AcDbEntity
  8
0
100
AcDbBlockEnd
  0
BLOCK
  5
79
330
78
100
AcDbEntity
  8
0
100
AcDbBlockBegin
  2
_CLOSEDFILLED
 70
0
 10
0.0
 20
0.0
 30
0.0
  3
_CLOSEDFILLED
  1

  0
SOLID
  5
7B
330
78
100
AcDbEntity
  8
0
  6
BYBLOCK
 62
0
100
AcDbTrace
 10
-1.0
 20
0.16439898372402537
 30
0.0
 11
0.0
 21
0.0
 31
0.0
 12
-1.0
 22
-0.16439898372402537
 32
0.0
 13
-1.0
 23
-0.16439898372402537
 33
0.0
  0
ENDBLK
  5
7A
330
78
100
AcDbEntity
  8
0
100
AcDbBlockEnd
  0
BLOCK
  5
85
330
84
100
AcDbEntity
  8
0
100
AcDbBlockBegin
  2
_CLOSEDBLANK
 70
0
 10
0.0
 20
0.0
 30
0.0
  3
_CLOSEDBLANK
  1

  0
LWPOLYLINE
  5
87
330
84
100
AcDbEntity
  8
0
  6
BYBLOCK
 62
0
100
AcDbPolyline
 90
3
 70
1
 10
-1.0
 20
0.16439898372402537
 10
0.0
 20
0.0
 10
-1.0
 20
-0.16439898372402537
  0
ENDBLK
  5
86
330
84
100
AcDbEntity
  8
0
100
AcDbBlockEnd
  0
ENDSEC
  0
SECTION
  2
ENTITIES
  0
LWPOLYLINE
  5
9B
330
17
100
AcDbEntity
  8
TITLE
100
AcDbPolyline
 90
4
 70
1
 10
155.0
 20
0.0
 10
491.40000000000003
 20
0.0
 10
491.40000000000003
 20
237.60000000000002
 10
155.0
 20
237.60000000000002
  0
LWPOLYLINE
  5
9C
330
17
100
AcDbEntity
  8
TITLE
370
70
100
AcDbPolyline
 90
4
 70
1
 10
159.0
 20
4.0
 10
487.40000000000003
 20
4.0
 10
487.40000000000003
 20
233.60000000000002
 10
159.0
 20
233.60000000000002
  0
LWPOLYLINE
  5
9D
330
17
100
AcDbEntity
  8
TITLE
100
AcDbPolyline
 90
4
 70
1
 10
411.40000000000003
 20
4.0
 10
487.40000000000003
 20
4.0
 10
487.40000000000003
 20
27.400000000000002
 10
411.40000000000003
 20
27.400000000000002
  0
TEXT
  5
9E
330
17
100
AcDbEntity
  8
TITLE
100
AcDbText
 10
412.20000000000005
 20
5.3
 30
0.0
 40
0.8
  1
NOTE
  7
ALPILLA
 11
412.20000000000005
 21
5.3
 31
0.0
100
AcDbText
 73
2
  0
TEXT
  5
9F
330
17
100
AcDbEntity
  8
TITLE
100
AcDbText
 10
422.6
 20
5.3
 30
0.0
 40
1.04
  1
CASE STUDY - fictional; IEC proprietary
  7
ALPILLA
 11
422.6
 21
5.3
 31
0.0
100
AcDbText
 73
2
  0
LINE
  5
A0
330
17
100
AcDbEntity
  8
TITLE
100
AcDbLine
 10
411.40000000000003
 20
6.6
 30
0.0
 11
487.40000000000003
 21
6.6
 31
0.0
  0
TEXT
  5
A1
330
17
100
AcDbEntity
  8
TITLE
100
AcDbText
 10
412.20000000000005
 20
7.8999999999999995
 30
0.0
 40
0.8
  1
DATE / STATUS
  7
ALPILLA
 11
412.20000000000005
 21
7.8999999999999995
 31
0.0
100
AcDbText
 73
2
  0
TEXT
  5
A2
330
17
100
AcDbEntity
  8
TITLE
100
AcDbText
 10
422.6
 20
7.8999999999999995
 30
0.0
 40
1.04
  1
2026-09-28  issued for EPC layout (reference)
  7
ALPILLA
 11
422.6
 21
7.8999999999999995
 31
0.0
100
AcDbText
 73
2
  0
LINE
  5
A3
330
17
100
AcDbEntity
  8
TITLE
100
AcDbLine
 10
411.40000000000003
 20
9.2
 30
0.0
 11
487.40000000000003
 21
9.2
 31
0.0
  0
TEXT
  5
A4
330
17
100
AcDbEntity
  8
TITLE
100
AcDbText
 10
412.20000000000005
 20
10.5
 30
0.0
 40
0.8
  1
COORDINATES
  7
ALPILLA
 11
412.20000000000005
 21
10.5
 31
0.0
100
AcDbText
 73
2
  0
TEXT
  5
A5
330
17
100
AcDbEntity
  8
TITLE
100
AcDbText
 10
422.6
 20
10.5
 30
0.0
 40
1.04
  1
plant grid m; levels EL m (grade EL +15.0)
  7
ALPILLA
 11
422.6
 21
10.5
 31
0.0
100
AcDbText
 73
2
  0
LINE
  5
A6
330
17
100
AcDbEntity
  8
TITLE
100
AcDbLine
 10
411.40000000000003
 20
11.8
 30
0.0
 11
487.40000000000003
 21
11.8
 31
0.0
  0
TEXT
  5
A7
330
17
100
AcDbEntity
  8
TITLE
100
AcDbText
 10
412.20000000000005
 20
13.100000000000001
 30
0.0
 40
0.8
  1
SCALE / SHEET
  7
ALPILLA
 11
412.20000000000005
 21
13.100000000000001
 31
0.0
100
AcDbText
 73
2
  0
TEXT
  5
A8
330
17
100
AcDbEntity
  8
TITLE
100
AcDbText
 10
422.6
 20
13.100000000000001
 30
0.0
 40
1.04
  1
1:400 on A1 / 1 of 1
  7
ALPILLA
 11
422.6
 21
13.100000000000001
 31
0.0
100
AcDbText
 73
2
  0
LINE
  5
A9
330
17
100
AcDbEntity
  8
TITLE
100
AcDbLine
 10
411.40000000000003
 20
14.4
 30
0.0
 11
487.40000000000003
 21
14.4
 31
0.0
  0
TEXT
  5
AA
330
17
100
AcDbEntity
  8
TITLE
100
AcDbText
 10
412.20000000000005
 20
15.700000000000001
 30
0.0
 40
0.8
  1
DWG NO / REV
  7
ALPILLA
 11
412.20000000000005
 21
15.700000000000001
 31
0.0
100
AcDbText
 73
2
  0
TEXT
  5
AB
330
17
100
AcDbEntity
  8
TITLE
100
AcDbText
 10
422.6
 20
15.700000000000001
 30
0.0
 40
1.04
  1
IEC-ALP-GA-103  Rev 0
  7
ALPILLA
 11
422.6
 21
15.700000000000001
 31
0.0
100
AcDbText
 73
2
  0
LINE
  5
AC
330
17
100
AcDbEntity
  8
TITLE
100
AcDbLine
 10
411.40000000000003
 20
17.0
 30
0.0
 11
487.40000000000003
 21
17.0
 31
0.0
  0
TEXT
  5
AD
330
17
100
AcDbEntity
  8
TITLE
100
AcDbText
 10
412.20000000000005
 20
18.3
 30
0.0
 40
0.8
  1
TITLE
  7
ALPILLA
 11
412.20000000000005
 21
18.3
 31
0.0
100
AcDbText
 73
2
  0
TEXT
  5
AE
330
17
100
AcDbEntity
  8
TITLE
100
AcDbText
 10
422.6
 20
18.3
 30
0.0
 40
1.04
  1
HRSG IE-HR3 - GA, ERECTION AND MAINTENANCE
  7
ALPILLA
 11
422.6
 21
18.3
 31
0.0
100
AcDbText
 73
2
  0
LINE
  5
AF
330
17
100
AcDbEntity
  8
TITLE
100
AcDbLine
 10
411.40000000000003
 20
19.6
 30
0.0
 11
487.40000000000003
 21
19.6
 31
0.0
  0
TEXT
  5
B0
330
17
100
AcDbEntity
  8
TITLE
100
AcDbText
 10
412.20000000000005
 20
20.900000000000002
 30
0.0
 40
0.8
  1
CLIENT
  7
ALPILLA
 11
412.20000000000005
 21
20.900000000000002
 31
0.0
100
AcDbText
 73
2
  0
TEXT
  5
B1
330
17
100
AcDbEntity
  8
TITLE
100
AcDbText
 10
422.6
 20
20.900000000000002
 30
0.0
 40
1.04
  1
Istanbul EPC (consortium leader) - EPC engineering
  7
ALPILLA
 11
422.6
 21
20.900000000000002
 31
0.0
100
AcDbText
 73
2
  0
LINE
  5
B2
330
17
100
AcDbEntity
  8
TITLE
100
AcDbLine
 10
411.40000000000003
 20
22.2
 30
0.0
 11
487.40000000000003
 21
22.2
 31
0.0
  0
TEXT
  5
B3
330
17
100
AcDbEntity
  8
TITLE
100
AcDbText
 10
412.20000000000005
 20
23.5
 30
0.0
 40
0.8
  1
PROJECT
  7
ALPILLA
 11
412.20000000000005
 21
23.5
 31
0.0
100
AcDbText
 73
2
  0
TEXT
  5
B4
330
17
100
AcDbEntity
  8
TITLE
100
AcDbText
 10
422.6
 20
23.5
 30
0.0
 40
1.04
  1
Alpilla 600 MW CCGT - 1 x IE-9H.02 multi-shaft power island
  7
ALPILLA
 11
422.6
 21
23.5
 31
0.0
100
AcDbText
 73
2
  0
LINE
  5
B5
330
17
100
AcDbEntity
  8
TITLE
100
AcDbLine
 10
411.40000000000003
 20
24.8
 30
0.0
 11
487.40000000000003
 21
24.8
 31
0.0
  0
TEXT
  5
B6
330
17
100
AcDbEntity
  8
TITLE
100
AcDbText
 10
412.20000000000005
 20
26.1
 30
0.0
 40
0.8
  1
VENDOR
  7
ALPILLA
 11
412.20000000000005
 21
26.1
 31
0.0
100
AcDbText
 73
2
  0
TEXT
  5
B7
330
17
100
AcDbEntity
  8
TITLE
100
AcDbText
 10
422.6
 20
26.1
 30
0.0
 40
1.04
  1
Imaginary Electric Company - Power Generation Division (fictional)
  7
ALPILLA
 11
422.6
 21
26.1
 31
0.0
100
AcDbText
 73
2
  0
LINE
  5
B8
330
17
100
AcDbEntity
  8
TITLE
100
AcDbLine
 10
421.8
 20
4.0
 30
0.0
 11
421.8
 21
27.400000000000002
 31
0.0
  0
TEXT
  5
B9
330
17
100
AcDbEntity
  8
ANNO
100
AcDbText
 10
165.0
 20
222.0
 30
0.0
 40
1.2
  1
PLAN (grid E/N m)
  7
IEC
 11
165.0
 21
222.0
 31
0.0
100
AcDbText
  0
LWPOLYLINE
  5
BA
330
17
100
AcDbEntity
  8
IEC
100
AcDbPolyline
 90
4
 70
0
 10
166.5
 20
161.4
 10
180.0
 20
153.0
 10
180.0
 20
177.0
 10
166.5
 20
168.6
  0
LWPOLYLINE
  5
BB
330
17
100
AcDbEntity
  8
IEC
100
AcDbPolyline
 90
4
 70
0
 10
222.0
 20
153.0
 10
230.0
 20
160.4
 10
230.0
 20
169.6
 10
222.0
 20
177.0
  0
LWPOLYLINE
  5
BC
330
17
100
AcDbEntity
  8
IEC
370
50
100
AcDbPolyline
 90
4
 70
1
 10
180.0
 20
153.0
 10
222.0
 20
153.0
 10
222.0
 20
177.0
 10
180.0
 20
177.0
  0
LINE
  5
BD
330
17
100
AcDbEntity
  8
IEC
100
AcDbLine
 10
186.0
 20
153.0
 30
0.0
 11
186.0
 21
177.0
 31
0.0
  0
TEXT
  5
BE
330
17
100
AcDbEntity
  8
IEC
100
AcDbText
 10
183.0
 20
155.0
 30
0.0
 40
0.76
  1
HP SH/RH
 50
90.0
  7
IEC
 11
183.0
 21
155.0
 31
0.0
100
AcDbText
  0
LINE
  5
BF
330
17
100
AcDbEntity
  8
IEC
100
AcDbLine
 10
189.6
 20
153.0
 30
0.0
 11
189.6
 21
177.0
 31
0.0
  0
TEXT
  5
C0
330
17
100
AcDbEntity
  8
IEC
100
AcDbText
 10
187.8
 20
155.0
 30
0.0
 40
0.76
  1
HP EVAP
 50
90.0
  7
IEC
 11
187.8
 21
155.0
 31
0.0
100
AcDbText
  0
LINE
  5
C1
330
17
100
AcDbEntity
  8
IEC
100
AcDbLine
 10
193.79999999999998
 20
153.0
 30
0.0
 11
193.79999999999998
 21
177.0
 31
0.0
  0
TEXT
  5
C2
330
17
100
AcDbEntity
  8
IEC
100
AcDbText
 10
191.7
 20
155.0
 30
0.0
 40
0.76
  1
SCR
 50
90.0
  7
IEC
 11
191.7
 21
155.0
 31
0.0
100
AcDbText
  0
LINE
  5
C3
330
17
100
AcDbEntity
  8
IEC
100
AcDbLine
 10
196.79999999999998
 20
153.0
 30
0.0
 11
196.79999999999998
 21
177.0
 31
0.0
  0
TEXT
  5
C4
330
17
100
AcDbEntity
  8
IEC
100
AcDbText
 10
195.29999999999998
 20
155.0
 30
0.0
 40
0.76
  1
IP SH
 50
90.0
  7
IEC
 11
195.29999999999998
 21
155.0
 31
0.0
100
AcDbText
  0
LINE
  5
C5
330
17
100
AcDbEntity
  8
IEC
100
AcDbLine
 10
200.39999999999998
 20
153.0
 30
0.0
 11
200.39999999999998
 21
177.0
 31
0.0
  0
TEXT
  5
C6
330
17
100
AcDbEntity
  8
IEC
100
AcDbText
 10
198.59999999999997
 20
155.0
 30
0.0
 40
0.76
  1
HP ECO2
 50
90.0
  7
IEC
 11
198.59999999999997
 21
155.0
 31
0.0
100
AcDbText
  0
LINE
  5
C7
330
17
100
AcDbEntity
  8
IEC
100
AcDbLine
 10
203.99999999999997
 20
153.0
 30
0.0
 11
203.99999999999997
 21
177.0
 31
0.0
  0
TEXT
  5
C8
330
17
100
AcDbEntity
  8
IEC
100
AcDbText
 10
202.2
 20
155.0
 30
0.0
 40
0.76
  1
IP EVAP
 50
90.0
  7
IEC
 11
202.2
 21
155.0
 31
0.0
100
AcDbText
  0
LINE
  5
C9
330
17
100
AcDbEntity
  8
IEC
100
AcDbLine
 10
206.99999999999997
 20
153.0
 30
0.0
 11
206.99999999999997
 21
177.0
 31
0.0
  0
TEXT
  5
CA
330
17
100
AcDbEntity
  8
IEC
100
AcDbText
 10
205.49999999999997
 20
155.0
 30
0.0
 40
0.76
  1
LP SH
 50
90.0
  7
IEC
 11
205.49999999999997
 21
155.0
 31
0.0
100
AcDbText
  0
LINE
  5
CB
330
17
100
AcDbEntity
  8
IEC
100
AcDbLine
 10
211.99999999999997
 20
153.0
 30
0.0
 11
211.99999999999997
 21
177.0
 31
0.0
  0
TEXT
  5
CC
330
17
100
AcDbEntity
  8
IEC
100
AcDbText
 10
209.49999999999997
 20
155.0
 30
0.0
 40
0.76
  1
HP ECO1/IP ECO
 50
90.0
  7
IEC
 11
209.49999999999997
 21
155.0
 31
0.0
100
AcDbText
  0
LINE
  5
CD
330
17
100
AcDbEntity
  8
IEC
100
AcDbLine
 10
215.99999999999997
 20
153.0
 30
0.0
 11
215.99999999999997
 21
177.0
 31
0.0
  0
TEXT
  5
CE
330
17
100
AcDbEntity
  8
IEC
100
AcDbText
 10
213.99999999999997
 20
155.0
 30
0.0
 40
0.76
  1
LP EVAP
 50
90.0
  7
IEC
 11
213.99999999999997
 21
155.0
 31
0.0
100
AcDbText
  0
LINE
  5
CF
330
17
100
AcDbEntity
  8
IEC
100
AcDbLine
 10
221.99999999999997
 20
153.0
 30
0.0
 11
221.99999999999997
 21
177.0
 31
0.0
  0
TEXT
  5
D0
330
17
100
AcDbEntity
  8
IEC
100
AcDbText
 10
218.99999999999997
 20
155.0
 30
0.0
 40
0.76
  1
CPH
 50
90.0
  7
IEC
 11
218.99999999999997
 21
155.0
 31
0.0
100
AcDbText
  0
CIRCLE
  5
D1
330
17
100
AcDbEntity
  8
EPC
  6
DASHED
100
AcDbCircle
 10
236.0
 20
165.0
 30
0.0
 40
4.6
  0
TEXT
  5
D2
330
17
100
AcDbEntity
  8
EPC
100
AcDbText
 10
236.0
 20
171.0
 30
0.0
 40
0.76
  1
STACK D 9.2 m (EPC)
  7
IEC
 72
1
 11
236.0
 21
171.0
 31
0.0
100
AcDbText
  0
TEXT
  5
D3
330
17
100
AcDbEntity
  8
IEC
100
AcDbText
 10
190.0
 20
178.2
 30
0.0
 40
0.8
  1
HRSG CASING 42 x 24 m
  7
IEC
 72
1
 11
190.0
 21
178.2
 31
0.0
100
AcDbText
  0
LWPOLYLINE
  5
D4
330
17
100
AcDbEntity
  8
PAD
  6
DASHED
100
AcDbPolyline
 90
4
 70
1
 10
182.0
 20
185.0
 10
222.0
 20
185.0
 10
222.0
 20
213.0
 10
182.0
 20
213.0
  0
TEXT
  5
D5
330
17
100
AcDbEntity
  8
PAD
100
AcDbText
 10
202.0
 20
199.9044
 30
0.0
 40
0.76
  1
CRANE PAD 40 x 28 m
  7
IEC
 72
1
 11
202.0
 21
199.9044
 31
0.0
100
AcDbText
  0
TEXT
  5
D6
330
17
100
AcDbEntity
  8
PAD
100
AcDbText
 10
202.0
 20
198.6124
 30
0.0
 40
0.76
  1
750 t crawler (EPC)
  7
IEC
 72
1
 11
202.0
 21
198.6124
 31
0.0
100
AcDbText
  0
TEXT
  5
D7
330
17
100
AcDbEntity
  8
PAD
100
AcDbText
 10
202.0
 20
197.3204
 30
0.0
 40
0.76
  1
250 kN/m2
  7
IEC
 72
1
 11
202.0
 21
197.3204
 31
0.0
100
AcDbText
  0
HATCH
  5
D8
330
17
100
AcDbEntity
  8
PAD
100
AcDbHatch
 10
0.0
 20
0.0
 30
0.0
210
0.0
220
0.0
230
1.0
  2
ANSI31
 70
0
 71
0
 91
4
 92
3
 72
0
 73
1
 93
4
 10
182.0
 20
185.0
 10
222.0
 20
185.0
 10
222.0
 20
213.0
 10
182.0
 20
213.0
 97
0
 92
18
 72
0
 73
1
 93
4
 10
196.21640000000002
 20
199.7144
 10
207.7836
 20
199.7144
 10
207.7836
 20
200.7784
 10
196.21640000000002
 20
200.7784
 97
0
 92
18
 72
0
 73
1
 93
4
 10
196.21640000000002
 20
198.4224
 10
207.7836
 20
198.4224
 10
207.7836
 20
199.4864
 10
196.21640000000002
 20
199.4864
 97
0
 92
18
 72
0
 73
1
 93
4
 10
199.18040000000002
 20
197.1304
 10
204.81959999999998
 20
197.1304
 10
204.81959999999998
 20
198.1944
 10
199.18040000000002
 20
198.1944
 97
0
 75
0
 76
1
 52
0.0
 41
1.6
 77
0
 78
1
 53
45.0
 43
0.0
 44
0.0
 45
-3.5921024485
 46
3.5921024485
 79
0
 98
0
  0
ARC
  5
D9
330
17
100
AcDbEntity
  8
CRANE
  6
DASHDOT
100
AcDbCircle
 10
202.0
 20
199.0
 30
0.0
 40
42.0
100
AcDbArc
 50
205.0
 51
335.0
  0
LINE
  5
DA
330
17
100
AcDbEntity
  8
CRANE
100
AcDbLine
 10
202.0
 20
199.0
 30
0.0
 11
240.052
 21
181.234
 31
0.0
  0
TEXT
  5
DB
330
17
100
AcDbEntity
  8
CRANE
100
AcDbText
 10
232.0
 20
181.0
 30
0.0
 40
0.76
  1
lift radius 42 m (750 t crawler)
  7
IEC
 11
232.0
 21
181.0
 31
0.0
100
AcDbText
  0
LWPOLYLINE
  5
DC
330
17
100
AcDbEntity
  8
PAD
  6
DASHED
100
AcDbPolyline
 90
4
 70
1
 10
250.0
 20
145.0
 10
290.0
 20
145.0
 10
290.0
 20
195.0
 10
250.0
 20
195.0
  0
TEXT
  5
DD
330
17
100
AcDbEntity
  8
PAD
100
AcDbText
 10
270.0
 20
170.2584
 30
0.0
 40
0.76
  1
MODULE LAYDOWN 40 x 50 m
  7
IEC
 72
1
 11
270.0
 21
170.2584
 31
0.0
100
AcDbText
  0
TEXT
  5
DE
330
17
100
AcDbEntity
  8
PAD
100
AcDbText
 10
270.0
 20
168.9664
 30
0.0
 40
0.76
  1
pre-assembly, 185 t modules
  7
IEC
 72
1
 11
270.0
 21
168.9664
 31
0.0
100
AcDbText
  0
HATCH
  5
DF
330
17
100
AcDbEntity
  8
PAD
100
AcDbHatch
 10
0.0
 20
0.0
 30
0.0
210
0.0
220
0.0
230
1.0
  2
ANSI31
 70
0
 71
0
 91
4
 92
3
 72
0
 73
1
 93
4
 10
250.0
 20
145.0
 10
290.0
 20
145.0
 10
290.0
 20
195.0
 10
250.0
 20
195.0
 97
0
 92
18
 72
0
 73
1
 93
4
 10
250.0
 20
180.81
 10
251.1216
 20
180.81
 10
251.1216
 20
181.874
 10
250.0
 20
181.874
 97
0
 92
18
 72
0
 73
1
 93
4
 10
262.7344
 20
170.0684
 10
277.26559999999995
 20
170.0684
 10
277.26559999999995
 20
171.1324
 10
262.7344
 20
171.1324
 97
0
 92
18
 72
0
 73
1
 93
4
 10
261.84520000000003
 20
168.7764
 10
278.1548
 20
168.7764
 10
278.1548
 20
169.8404
 10
261.84520000000003
 20
169.8404
 97
0
 75
0
 76
1
 52
0.0
 41
1.6
 77
0
 78
1
 53
45.0
 43
0.0
 44
0.0
 45
-3.5921024485
 46
3.5921024485
 79
0
 98
0
  0
LWPOLYLINE
  5
E0
330
17
100
AcDbEntity
  8
LAYDOWN
  6
DASHED
100
AcDbPolyline
 90
4
 70
1
 10
195.0
 20
138.0
 10
215.0
 20
138.0
 10
215.0
 20
148.0
 10
195.0
 20
148.0
  0
TEXT
  5
E1
330
17
100
AcDbEntity
  8
LAYDOWN
100
AcDbText
 10
205.0
 20
143.2584
 30
0.0
 40
0.76
  1
SCR CATALYST
  7
IEC
 72
1
 11
205.0
 21
143.2584
 31
0.0
100
AcDbText
  0
TEXT
  5
E2
330
17
100
AcDbEntity
  8
LAYDOWN
100
AcDbText
 10
205.0
 20
141.9664
 30
0.0
 40
0.76
  1
LAYDOWN 20 x 10
  7
IEC
 72
1
 11
205.0
 21
141.9664
 31
0.0
100
AcDbText
  0
HATCH
  5
E3
330
17
100
AcDbEntity
  8
LAYDOWN
100
AcDbHatch
 10
0.0
 20
0.0
 30
0.0
210
0.0
220
0.0
230
1.0
  2
ANSI31
 70
0
 71
0
 91
3
 92
3
 72
0
 73
1
 93
4
 10
195.0
 20
138.0
 10
215.0
 20
138.0
 10
215.0
 20
148.0
 10
195.0
 20
148.0
 97
0
 92
18
 72
0
 73
1
 93
4
 10
201.2912
 20
143.0684
 10
208.70879999999997
 20
143.0684
 10
208.70879999999997
 20
144.1324
 10
201.2912
 20
144.1324
 97
0
 92
18
 72
0
 73
1
 93
4
 10
200.40200000000002
 20
141.7764
 10
209.59799999999998
 20
141.7764
 10
209.59799999999998
 20
142.8404
 10
200.40200000000002
 20
142.8404
 97
0
 75
0
 76
1
 52
0.0
 41
1.6
 77
0
 78
1
 53
45.0
 43
0.0
 44
0.0
 45
-3.5921024485
 46
3.5921024485
 79
0
 98
0
  0
LINE
  5
E4
330
17
100
AcDbEntity
  8
MAINT
  6
DASHED
370
50
100
AcDbLine
 10
191.7
 20
153.0
 30
0.0
 11
191.7
 21
148.0
 31
0.0
  0
TEXT
  5
E5
330
17
100
AcDbEntity
  8
MAINT
100
AcDbText
 10
192.7
 20
150.5
 30
0.0
 40
0.76
  1
catalyst door + monorail
  7
IEC
 11
192.7
 21
150.5
 31
0.0
100
AcDbText
  0
LWPOLYLINE
  5
E6
330
17
100
AcDbEntity
  8
MAINT
  6
DASHED
100
AcDbPolyline
 90
4
 70
1
 10
166.5
 20
177.5
 10
180.0
 20
177.5
 10
180.0
 20
184.0
 10
166.5
 20
184.0
  0
TEXT
  5
E7
330
17
100
AcDbEntity
  8
MAINT
100
AcDbText
 10
173.25
 20
181.0084
 30
0.0
 40
0.76
  1
INLET DUCT
  7
IEC
 72
1
 11
173.25
 21
181.0084
 31
0.0
100
AcDbText
  0
TEXT
  5
E8
330
17
100
AcDbEntity
  8
MAINT
100
AcDbText
 10
173.25
 20
179.7164
 30
0.0
 40
0.76
  1
manway access
  7
IEC
 72
1
 11
173.25
 21
179.7164
 31
0.0
100
AcDbText
  0
HATCH
  5
E9
330
17
100
AcDbEntity
  8
MAINT
100
AcDbHatch
 10
0.0
 20
0.0
 30
0.0
210
0.0
220
0.0
230
1.0
  2
ANSI31
 70
0
 71
0
 91
3
 92
3
 72
0
 73
1
 93
4
 10
166.5
 20
177.5
 10
180.0
 20
177.5
 10
180.0
 20
184.0
 10
166.5
 20
184.0
 97
0
 92
18
 72
0
 73
1
 93
4
 10
170.13400000000001
 20
180.8184
 10
176.36599999999999
 20
180.8184
 10
176.36599999999999
 20
181.8824
 10
170.13400000000001
 20
181.8824
 97
0
 92
18
 72
0
 73
1
 93
4
 10
169.24480000000003
 20
179.5264
 10
177.2552
 20
179.5264
 10
177.2552
 20
180.5904
 10
169.24480000000003
 20
180.5904
 97
0
 75
0
 76
1
 52
0.0
 41
1.6
 77
0
 78
1
 53
45.0
 43
0.0
 44
0.0
 45
-3.5921024485
 46
3.5921024485
 79
0
 98
0
  0
LWPOLYLINE
  5
EA
330
17
100
AcDbEntity
  8
ACCESS
370
50
100
AcDbPolyline
 90
2
 70
0
 10
265.0
 20
226.0
 10
265.0
 20
196.0
  0
LWPOLYLINE
  5
EB
330
17
100
AcDbEntity
  8
ACCESS
370
50
100
AcDbPolyline
 90
3
 70
0
 10
264.3
 20
197.4
 10
265.0
 20
196.0
 10
265.7
 20
197.4
  0
TEXT
  5
EC
330
17
100
AcDbEntity
  8
ACCESS
100
AcDbText
 10
265.6
 20
211.4
 30
0.0
 40
0.76
  1
SPMT modules
  7
IEC
 11
265.6
 21
211.4
 31
0.0
100
AcDbText
  0
CIRCLE
  5
ED
330
17
100
AcDbEntity
  8
TIEIN
100
AcDbCircle
 10
205.0
 20
177.0
 30
0.0
 40
0.8
  0
TEXT
  5
EE
330
17
100
AcDbEntity
  8
TIEIN
100
AcDbText
 10
206.0
 20
177.5
 30
0.0
 40
0.76
  1
IF-05
  7
IEC
 11
206.0
 21
177.5
 31
0.0
100
AcDbText
  0
CIRCLE
  5
EF
330
17
100
AcDbEntity
  8
TIEIN
100
AcDbCircle
 10
211.0
 20
177.0
 30
0.0
 40
0.8
  0
TEXT
  5
F0
330
17
100
AcDbEntity
  8
TIEIN
100
AcDbText
 10
212.0
 20
177.5
 30
0.0
 40
0.76
  1
IF-09
  7
IEC
 11
212.0
 21
177.5
 31
0.0
100
AcDbText
  0
CIRCLE
  5
F1
330
17
100
AcDbEntity
  8
TIEIN
100
AcDbCircle
 10
217.0
 20
177.0
 30
0.0
 40
0.8
  0
TEXT
  5
F2
330
17
100
AcDbEntity
  8
TIEIN
100
AcDbText
 10
218.0
 20
177.5
 30
0.0
 40
0.76
  1
IF-11
  7
IEC
 11
218.0
 21
177.5
 31
0.0
100
AcDbText
  0
CIRCLE
  5
F3
330
17
100
AcDbEntity
  8
TIEIN
100
AcDbCircle
 10
219.0
 20
153.0
 30
0.0
 40
0.8
  0
TEXT
  5
F4
330
17
100
AcDbEntity
  8
TIEIN
100
AcDbText
 10
220.0
 20
151.4
 30
0.0
 40
0.76
  1
IF-18
  7
IEC
 11
220.0
 21
151.4
 31
0.0
100
AcDbText
  0
CIRCLE
  5
F5
330
17
100
AcDbEntity
  8
TIEIN
100
AcDbCircle
 10
230.0
 20
165.0
 30
0.0
 40
0.8
  0
TEXT
  5
F6
330
17
100
AcDbEntity
  8
TIEIN
100
AcDbText
 10
231.0
 20
163.4
 30
0.0
 40
0.76
  1
IF-26
  7
IEC
 11
231.0
 21
163.4
 31
0.0
100
AcDbText
  0
CIRCLE
  5
F7
330
17
100
AcDbEntity
  8
TIEIN
100
AcDbCircle
 10
190.0
 20
153.0
 30
0.0
 40
0.8
  0
TEXT
  5
F8
330
17
100
AcDbEntity
  8
TIEIN
100
AcDbText
 10
191.0
 20
151.4
 30
0.0
 40
0.76
  1
IF-25
  7
IEC
 11
191.0
 21
151.4
 31
0.0
100
AcDbText
  0
LINE
  5
F9
330
17
100
AcDbEntity
  8
DIM
100
AcDbLine
 10
180.0
 20
153.0
 30
0.0
 11
180.0
 21
144.4
 31
0.0
  0
LINE
  5
FA
330
17
100
AcDbEntity
  8
DIM
100
AcDbLine
 10
222.0
 20
153.0
 30
0.0
 11
222.0
 21
144.4
 31
0.0
  0
LINE
  5
FB
330
17
100
AcDbEntity
  8
DIM
100
AcDbLine
 10
180.0
 20
145.0
 30
0.0
 11
222.0
 21
145.0
 31
0.0
  0
LINE
  5
FC
330
17
100
AcDbEntity
  8
DIM
100
AcDbLine
 10
179.6
 20
144.6
 30
0.0
 11
180.4
 21
145.4
 31
0.0
  0
LINE
  5
FD
330
17
100
AcDbEntity
  8
DIM
100
AcDbLine
 10
221.6
 20
144.6
 30
0.0
 11
222.4
 21
145.4
 31
0.0
  0
TEXT
  5
FE
330
17
100
AcDbEntity
  8
DIM
100
AcDbText
 10
201.0
 20
145.3
 30
0.0
 40
0.8
  1
42.0
  7
IEC
 72
1
 11
201.0
 21
145.3
 31
0.0
100
AcDbText
  0
LINE
  5
FF
330
17
100
AcDbEntity
  8
DIM
100
AcDbLine
 10
222.0
 20
153.0
 30
0.0
 11
225.6
 21
153.0
 31
0.0
  0
LINE
  5
100
330
17
100
AcDbEntity
  8
DIM
100
AcDbLine
 10
222.0
 20
177.0
 30
0.0
 11
225.6
 21
177.0
 31
0.0
  0
LINE
  5
101
330
17
100
AcDbEntity
  8
DIM
100
AcDbLine
 10
225.0
 20
153.0
 30
0.0
 11
225.0
 21
177.0
 31
0.0
  0
LINE
  5
102
330
17
100
AcDbEntity
  8
DIM
100
AcDbLine
 10
224.6
 20
152.6
 30
0.0
 11
225.4
 21
153.4
 31
0.0
  0
LINE
  5
103
330
17
100
AcDbEntity
  8
DIM
100
AcDbLine
 10
224.6
 20
176.6
 30
0.0
 11
225.4
 21
177.4
 31
0.0
  0
TEXT
  5
104
330
17
100
AcDbEntity
  8
DIM
100
AcDbText
 10
224.6
 20
165.0
 30
0.0
 40
0.8
  1
24.0
 50
90.0
  7
IEC
 72
1
 11
224.6
 21
165.0
 31
0.0
100
AcDbText
  0
TEXT
  5
105
330
17
100
AcDbEntity
  8
ANNO
100
AcDbText
 10
165.0
 20
84.0
 30
0.0
 40
1.2
  1
ELEVATION (looking north), EL m
  7
IEC
 11
165.0
 21
84.0
 31
0.0
100
AcDbText
  0
LINE
  5
106
330
17
100
AcDbEntity
  8
ANNO
370
50
100
AcDbLine
 10
163.0
 20
14.0
 30
0.0
 11
300.0
 21
14.0
 31
0.0
  0
TEXT
  5
107
330
17
100
AcDbEntity
  8
ANNO
100
AcDbText
 10
300.5
 20
13.6
 30
0.0
 40
0.76
  1
GRADE EL +15.0
  7
IEC
 11
300.5
 21
13.6
 31
0.0
100
AcDbText
  0
LWPOLYLINE
  5
108
330
17
100
AcDbEntity
  8
IEC
370
50
100
AcDbPolyline
 90
4
 70
1
 10
180.0
 20
14.5
 10
222.0
 20
14.5
 10
222.0
 20
44.0
 10
180.0
 20
44.0
  0
LWPOLYLINE
  5
109
330
17
100
AcDbEntity
  8
IEC
100
AcDbPolyline
 90
4
 70
0
 10
166.5
 20
14.5
 10
180.0
 20
14.5
 10
180.0
 20
44.0
 10
166.5
 20
21.5
  0
LWPOLYLINE
  5
10A
330
17
100
AcDbEntity
  8
IEC
100
AcDbPolyline
 90
4
 70
1
 10
187.0
 20
45.0
 10
189.0
 20
45.0
 10
189.0
 20
47.0
 10
187.0
 20
47.0
  0
TEXT
  5
10B
330
17
100
AcDbEntity
  8
IEC
100
AcDbText
 10
188.0
 20
47.6
 30
0.0
 40
0.76
  1
HP DRUM 96 t
  7
IEC
 72
1
 11
188.0
 21
47.6
 31
0.0
100
AcDbText
  0
LWPOLYLINE
  5
10C
330
17
100
AcDbEntity
  8
IEC
100
AcDbPolyline
 90
4
 70
1
 10
200.0
 20
44.5
 10
202.0
 20
44.5
 10
202.0
 20
46.5
 10
200.0
 20
46.5
  0
TEXT
  5
10D
330
17
100
AcDbEntity
  8
IEC
100
AcDbText
 10
201.0
 20
47.1
 30
0.0
 40
0.76
  1
IP DRUM
  7
IEC
 72
1
 11
201.0
 21
47.1
 31
0.0
100
AcDbText
  0
LWPOLYLINE
  5
10E
330
17
100
AcDbEntity
  8
IEC
100
AcDbPolyline
 90
4
 70
1
 10
210.0
 20
44.5
 10
212.0
 20
44.5
 10
212.0
 20
46.5
 10
210.0
 20
46.5
  0
TEXT
  5
10F
330
17
100
AcDbEntity
  8
IEC
100
AcDbText
 10
211.0
 20
47.1
 30
0.0
 40
0.76
  1
LP DRUM
  7
IEC
 72
1
 11
211.0
 21
47.1
 31
0.0
100
AcDbText
  0
LWPOLYLINE
  5
110
330
17
100
AcDbEntity
  8
EPC
  6
DASHED
100
AcDbPolyline
 90
4
 70
1
 10
231.4
 20
14.0
 10
240.6
 20
14.0
 10
240.6
 20
79.0
 10
231.4
 20
79.0
  0
TEXT
  5
111
330
17
100
AcDbEntity
  8
EPC
100
AcDbText
 10
241.5
 20
77.0
 30
0.0
 40
0.76
  1
STACK EL +80.0 (65 m, EPC)
  7
IEC
 11
241.5
 21
77.0
 31
0.0
100
AcDbText
  0
TEXT
  5
112
330
17
100
AcDbEntity
  8
EPC
100
AcDbText
 10
241.5
 20
44.0
 30
0.0
 40
0.76
  1
CEMS platform (EPC)
  7
IEC
 11
241.5
 21
44.0
 31
0.0
100
AcDbText
  0
LWPOLYLINE
  5
113
330
17
100
AcDbEntity
  8
IEC
100
AcDbPolyline
 90
4
 70
0
 10
222.0
 20
14.5
 10
230.0
 20
21.0
 10
230.0
 20
37.0
 10
222.0
 20
44.0
  0
LWPOLYLINE
  5
114
330
17
100
AcDbEntity
  8
MAINT
  6
DASHED
100
AcDbPolyline
 90
4
 70
1
 10
186.0
 20
14.5
 10
189.6
 20
14.5
 10
189.6
 20
41.0
 10
186.0
 20
41.0
  0
HATCH
  5
115
330
17
100
AcDbEntity
  8
MAINT
100
AcDbHatch
 10
0.0
 20
0.0
 30
0.0
210
0.0
220
0.0
230
1.0
  2
ANSI31
 70
0
 71
0
 91
1
 92
3
 72
0
 73
1
 93
4
 10
186.0
 20
14.5
 10
189.6
 20
14.5
 10
189.6
 20
41.0
 10
186.0
 20
41.0
 97
0
 75
0
 76
1
 52
0.0
 41
1.6
 77
0
 78
1
 53
45.0
 43
0.0
 44
0.0
 45
-3.5921024485
 46
3.5921024485
 79
0
 98
0
  0
TEXT
  5
116
330
17
100
AcDbEntity
  8
MAINT
100
AcDbText
 10
191.0
 20
29.0
 30
0.0
 40
0.76
  1
HP EVAP module 185 t, 24.0 x 3.6 x 26.5 m
  7
IEC
 11
191.0
 21
29.0
 31
0.0
100
AcDbText
  0
LINE
  5
117
330
17
100
AcDbEntity
  8
DIM
100
AcDbLine
 10
180.0
 20
14.0
 30
0.0
 11
176.4
 21
14.0
 31
0.0
  0
LINE
  5
118
330
17
100
AcDbEntity
  8
DIM
100
AcDbLine
 10
180.0
 20
44.0
 30
0.0
 11
176.4
 21
44.0
 31
0.0
  0
LINE
  5
119
330
17
100
AcDbEntity
  8
DIM
100
AcDbLine
 10
177.0
 20
14.0
 30
0.0
 11
177.0
 21
44.0
 31
0.0
  0
LINE
  5
11A
330
17
100
AcDbEntity
  8
DIM
100
AcDbLine
 10
176.6
 20
13.6
 30
0.0
 11
177.4
 21
14.4
 31
0.0
  0
LINE
  5
11B
330
17
100
AcDbEntity
  8
DIM
100
AcDbLine
 10
176.6
 20
43.6
 30
0.0
 11
177.4
 21
44.4
 31
0.0
  0
TEXT
  5
11C
330
17
100
AcDbEntity
  8
DIM
100
AcDbText
 10
176.6
 20
29.0
 30
0.0
 40
0.8
  1
30.0
 50
90.0
  7
IEC
 72
1
 11
176.6
 21
29.0
 31
0.0
100
AcDbText
  0
LINE
  5
11D
330
17
100
AcDbEntity
  8
DIM
100
AcDbLine
 10
250.0
 20
14.0
 30
0.0
 11
253.6
 21
14.0
 31
0.0
  0
LINE
  5
11E
330
17
100
AcDbEntity
  8
DIM
100
AcDbLine
 10
250.0
 20
79.0
 30
0.0
 11
253.6
 21
79.0
 31
0.0
  0
LINE
  5
11F
330
17
100
AcDbEntity
  8
DIM
100
AcDbLine
 10
253.0
 20
14.0
 30
0.0
 11
253.0
 21
79.0
 31
0.0
  0
LINE
  5
120
330
17
100
AcDbEntity
  8
DIM
100
AcDbLine
 10
252.6
 20
13.6
 30
0.0
 11
253.4
 21
14.4
 31
0.0
  0
LINE
  5
121
330
17
100
AcDbEntity
  8
DIM
100
AcDbLine
 10
252.6
 20
78.6
 30
0.0
 11
253.4
 21
79.4
 31
0.0
  0
TEXT
  5
122
330
17
100
AcDbEntity
  8
DIM
100
AcDbText
 10
252.6
 20
46.5
 30
0.0
 40
0.8
  1
65.0
 50
90.0
  7
IEC
 72
1
 11
252.6
 21
46.5
 31
0.0
100
AcDbText
  0
TEXT
  5
123
330
17
100
AcDbEntity
  8
ANNO
100
AcDbText
 10
165.0
 20
10.5
 30
0.0
 40
0.76
  1
access: stairs to all drum and platform levels (IEC); elevator (EPC option)
  7
IEC
 11
165.0
 21
10.5
 31
0.0
100
AcDbText
  0
TEXT
  5
124
330
17
100
AcDbEntity
  8
ANNO
100
AcDbText
 10
357.0
 20
229.40800000000002
 30
0.0
 40
1.05
  1
1. WEIGHTS AND LIFTS
  7
IEC
 11
357.0
 21
229.40800000000002
 31
0.0
100
AcDbText
  0
LWPOLYLINE
  5
125
330
17
100
AcDbEntity
  8
ANNO
100
AcDbPolyline
 90
4
 70
1
 10
357.0
 20
227.01400000000004
 10
385.0
 20
227.01400000000004
 10
385.0
 20
228.64800000000002
 10
357.0
 20
228.64800000000002
  0
TEXT
  5
126
330
17
100
AcDbEntity
  8
ANNO
100
AcDbText
 10
357.456
 20
227.54600000000002
 30
0.0
 40
0.7752
  1
Item
  7
IEC
 11
357.456
 21
227.54600000000002
 31
0.0
100
AcDbText
  0
LWPOLYLINE
  5
127
330
17
100
AcDbEntity
  8
ANNO
100
AcDbPolyline
 90
4
 70
1
 10
385.0
 20
227.01400000000004
 10
397.0
 20
227.01400000000004
 10
397.0
 20
228.64800000000002
 10
385.0
 20
228.64800000000002
  0
TEXT
  5
128
330
17
100
AcDbEntity
  8
ANNO
100
AcDbText
 10
385.456
 20
227.54600000000002
 30
0.0
 40
0.7752
  1
t
  7
IEC
 11
385.456
 21
227.54600000000002
 31
0.0
100
AcDbText
  0
LWPOLYLINE
  5
129
330
17
100
AcDbEntity
  8
ANNO
100
AcDbPolyline
 90
4
 70
1
 10
397.0
 20
227.01400000000004
 10
449.0
 20
227.01400000000004
 10
449.0
 20
228.64800000000002
 10
397.0
 20
228.64800000000002
  0
TEXT
  5
12A
330
17
100
AcDbEntity
  8
ANNO
100
AcDbText
 10
397.456
 20
227.54600000000002
 30
0.0
 40
0.7752
  1
Remark
  7
IEC
 11
397.456
 21
227.54600000000002
 31
0.0
100
AcDbText
  0
LWPOLYLINE
  5
12B
330
17
100
AcDbEntity
  8
ANNO
100
AcDbPolyline
 90
4
 70
1
 10
357.0
 20
225.38000000000005
 10
385.0
 20
225.38000000000005
 10
385.0
 20
227.01400000000004
 10
357.0
 20
227.01400000000004
  0
TEXT
  5
12C
330
17
100
AcDbEntity
  8
ANNO
100
AcDbText
 10
357.456
 20
225.91200000000003
 30
0.0
 40
0.76
  1
Heaviest module (HP evaporator)
  7
IEC
 11
357.456
 21
225.91200000000003
 31
0.0
100
AcDbText
  0
LWPOLYLINE
  5
12D
330
17
100
AcDbEntity
  8
ANNO
100
AcDbPolyline
 90
4
 70
1
 10
385.0
 20
225.38000000000005
 10
397.0
 20
225.38000000000005
 10
397.0
 20
227.01400000000004
 10
385.0
 20
227.01400000000004
  0
TEXT
  5
12E
330
17
100
AcDbEntity
  8
ANNO
100
AcDbText
 10
385.456
 20
225.91200000000003
 30
0.0
 40
0.76
  1
185
  7
IEC
 11
385.456
 21
225.91200000000003
 31
0.0
100
AcDbText
  0
LWPOLYLINE
  5
12F
330
17
100
AcDbEntity
  8
ANNO
100
AcDbPolyline
 90
4
 70
1
 10
397.0
 20
225.38000000000005
 10
449.0
 20
225.38000000000005
 10
449.0
 20
227.01400000000004
 10
397.0
 20
227.01400000000004
  0
TEXT
  5
130
330
17
100
AcDbEntity
  8
ANNO
100
AcDbText
 10
397.456
 20
225.91200000000003
 30
0.0
 40
0.76
  1
24.0 x 3.6 x 26.5 m shipped horizontal; upended on the pad
  7
IEC
 11
397.456
 21
225.91200000000003
 31
0.0
100
AcDbText
  0
LWPOLYLINE
  5
131
330
17
100
AcDbEntity
  8
ANNO
100
AcDbPolyline
 90
4
 70
1
 10
357.0
 20
223.74600000000007
 10
385.0
 20
223.74600000000007
 10
385.0
 20
225.38000000000005
 10
357.0
 20
225.38000000000005
  0
TEXT
  5
132
330
17
100
AcDbEntity
  8
ANNO
100
AcDbText
 10
357.456
 20
224.27800000000005
 30
0.0
 40
0.76
  1
HP drum
  7
IEC
 11
357.456
 21
224.27800000000005
 31
0.0
100
AcDbText
  0
LWPOLYLINE
  5
133
330
17
100
AcDbEntity
  8
ANNO
100
AcDbPolyline
 90
4
 70
1
 10
385.0
 20
223.74600000000007
 10
397.0
 20
223.74600000000007
 10
397.0
 20
225.38000000000005
 10
385.0
 20
225.38000000000005
  0
TEXT
  5
134
330
17
100
AcDbEntity
  8
ANNO
100
AcDbText
 10
385.456
 20
224.27800000000005
 30
0.0
 40
0.76
  1
96
  7
IEC
 11
385.456
 21
224.27800000000005
 31
0.0
100
AcDbText
  0
LWPOLYLINE
  5
135
330
17
100
AcDbEntity
  8
ANNO
100
AcDbPolyline
 90
4
 70
1
 10
397.0
 20
223.74600000000007
 10
449.0
 20
223.74600000000007
 10
449.0
 20
225.38000000000005
 10
397.0
 20
225.38000000000005
  0
TEXT
  5
136
330
17
100
AcDbEntity
  8
ANNO
100
AcDbText
 10
397.456
 20
224.27800000000005
 30
0.0
 40
0.76
  1
14.0 m, OD 1.9 m; lifted onto the drum supports
  7
IEC
 11
397.456
 21
224.27800000000005
 31
0.0
100
AcDbText
  0
LWPOLYLINE
  5
137
330
17
100
AcDbEntity
  8
ANNO
100
AcDbPolyline
 90
4
 70
1
 10
357.0
 20
221.01000000000008
 10
385.0
 20
221.01000000000008
 10
385.0
 20
223.74600000000007
 10
357.0
 20
223.74600000000007
  0
TEXT
  5
138
330
17
100
AcDbEntity
  8
ANNO
100
AcDbText
 10
357.456
 20
222.64400000000006
 30
0.0
 40
0.76
  1
Total HRSG (pressure parts, casing, steel,
  7
IEC
 11
357.456
 21
222.64400000000006
 31
0.0
100
AcDbText
  0
TEXT
  5
139
330
17
100
AcDbEntity
  8
ANNO
100
AcDbText
 10
357.456
 20
221.54200000000006
 30
0.0
 40
0.76
  1
catalyst)
  7
IEC
 11
357.456
 21
221.54200000000006
 31
0.0
100
AcDbText
  0
LWPOLYLINE
  5
13A
330
17
100
AcDbEntity
  8
ANNO
100
AcDbPolyline
 90
4
 70
1
 10
385.0
 20
221.01000000000008
 10
397.0
 20
221.01000000000008
 10
397.0
 20
223.74600000000007
 10
385.0
 20
223.74600000000007
  0
TEXT
  5
13B
330
17
100
AcDbEntity
  8
ANNO
100
AcDbText
 10
385.456
 20
222.64400000000006
 30
0.0
 40
0.76
  1
6,400
  7
IEC
 11
385.456
 21
222.64400000000006
 31
0.0
100
AcDbText
  0
LWPOLYLINE
  5
13C
330
17
100
AcDbEntity
  8
ANNO
100
AcDbPolyline
 90
4
 70
1
 10
397.0
 20
221.01000000000008
 10
449.0
 20
221.01000000000008
 10
449.0
 20
223.74600000000007
 10
397.0
 20
223.74600000000007
  0
TEXT
  5
13D
330
17
100
AcDbEntity
  8
ANNO
100
AcDbText
 10
397.456
 20
222.64400000000006
 30
0.0
 40
0.76
  1
DS-104; operating 7,800 t on the base plates
  7
IEC
 11
397.456
 21
222.64400000000006
 31
0.0
100
AcDbText
  0
LWPOLYLINE
  5
13E
330
17
100
AcDbEntity
  8
ANNO
100
AcDbPolyline
 90
4
 70
1
 10
357.0
 20
219.3760000000001
 10
385.0
 20
219.3760000000001
 10
385.0
 20
221.01000000000008
 10
357.0
 20
221.01000000000008
  0
TEXT
  5
13F
330
17
100
AcDbEntity
  8
ANNO
100
AcDbText
 10
357.456
 20
219.90800000000007
 30
0.0
 40
0.76
  1
SCR catalyst modules
  7
IEC
 11
357.456
 21
219.90800000000007
 31
0.0
100
AcDbText
  0
LWPOLYLINE
  5
140
330
17
100
AcDbEntity
  8
ANNO
100
AcDbPolyline
 90
4
 70
1
 10
385.0
 20
219.3760000000001
 10
397.0
 20
219.3760000000001
 10
397.0
 20
221.01000000000008
 10
385.0
 20
221.01000000000008
  0
TEXT
  5
141
330
17
100
AcDbEntity
  8
ANNO
100
AcDbText
 10
385.456
 20
219.90800000000007
 30
0.0
 40
0.76
  1
<= 1.5
  7
IEC
 11
385.456
 21
219.90800000000007
 31
0.0
100
AcDbText
  0
LWPOLYLINE
  5
142
330
17
100
AcDbEntity
  8
ANNO
100
AcDbPolyline
 90
4
 70
1
 10
397.0
 20
219.3760000000001
 10
449.0
 20
219.3760000000001
 10
449.0
 20
221.01000000000008
 10
397.0
 20
221.01000000000008
  0
TEXT
  5
143
330
17
100
AcDbEntity
  8
ANNO
100
AcDbText
 10
397.456
 20
219.90800000000007
 30
0.0
 40
0.76
  1
replacement every 4-5 years through the side door with monorail
  7
IEC
 11
397.456
 21
219.90800000000007
 31
0.0
100
AcDbText
  0
TEXT
  5
144
330
17
100
AcDbEntity
  8
ANNO
100
AcDbText
 10
357.0
 20
215.9840000000001
 30
0.0
 40
1.05
  1
2. ERECTION AND MAINTENANCE REQUIREMENTS
  7
IEC
 11
357.0
 21
215.9840000000001
 31
0.0
100
AcDbText
  0
LWPOLYLINE
  5
145
330
17
100
AcDbEntity
  8
ANNO
100
AcDbPolyline
 90
4
 70
1
 10
357.0
 20
213.59000000000012
 10
381.8
 20
213.59000000000012
 10
381.8
 20
215.2240000000001
 10
357.0
 20
215.2240000000001
  0
TEXT
  5
146
330
17
100
AcDbEntity
  8
ANNO
100
AcDbText
 10
357.456
 20
214.1220000000001
 30
0.0
 40
0.7752
  1
Requirement
  7
IEC
 11
357.456
 21
214.1220000000001
 31
0.0
100
AcDbText
  0
LWPOLYLINE
  5
147
330
17
100
AcDbEntity
  8
ANNO
100
AcDbPolyline
 90
4
 70
1
 10
381.8
 20
213.59000000000012
 10
449.0
 20
213.59000000000012
 10
449.0
 20
215.2240000000001
 10
381.8
 20
215.2240000000001
  0
TEXT
  5
148
330
17
100
AcDbEntity
  8
ANNO
100
AcDbText
 10
382.25600000000003
 20
214.1220000000001
 30
0.0
 40
0.7752
  1
IEC requirement (EPC to provide)
  7
IEC
 11
382.25600000000003
 21
214.1220000000001
 31
0.0
100
AcDbText
  0
LWPOLYLINE
  5
149
330
17
100
AcDbEntity
  8
ANNO
100
AcDbPolyline
 90
4
 70
1
 10
357.0
 20
210.85400000000013
 10
381.8
 20
210.85400000000013
 10
381.8
 20
213.59000000000012
 10
357.0
 20
213.59000000000012
  0
TEXT
  5
14A
330
17
100
AcDbEntity
  8
ANNO
100
AcDbText
 10
357.456
 20
212.4880000000001
 30
0.0
 40
0.76
  1
Erection crane
  7
IEC
 11
357.456
 21
212.4880000000001
 31
0.0
100
AcDbText
  0
LWPOLYLINE
  5
14B
330
17
100
AcDbEntity
  8
ANNO
100
AcDbPolyline
 90
4
 70
1
 10
381.8
 20
210.85400000000013
 10
449.0
 20
210.85400000000013
 10
449.0
 20
213.59000000000012
 10
381.8
 20
213.59000000000012
  0
TEXT
  5
14C
330
17
100
AcDbEntity
  8
ANNO
100
AcDbText
 10
382.25600000000003
 20
212.4880000000001
 30
0.0
 40
0.76
  1
750 t crawler with superlift on the crane pad north of the HRSG; module lift radius <= 42 m; pad 40 x 28 m,
  7
IEC
 11
382.25600000000003
 21
212.4880000000001
 31
0.0
100
AcDbText
  0
TEXT
  5
14D
330
17
100
AcDbEntity
  8
ANNO
100
AcDbText
 10
382.25600000000003
 20
211.3860000000001
 30
0.0
 40
0.76
  1
250 kN/m2 (EPC to verify with the geotechnical data).
  7
IEC
 11
382.25600000000003
 21
211.3860000000001
 31
0.0
100
AcDbText
  0
LWPOLYLINE
  5
14E
330
17
100
AcDbEntity
  8
ANNO
100
AcDbPolyline
 90
4
 70
1
 10
357.0
 20
209.22000000000014
 10
381.8
 20
209.22000000000014
 10
381.8
 20
210.85400000000013
 10
357.0
 20
210.85400000000013
  0
TEXT
  5
14F
330
17
100
AcDbEntity
  8
ANNO
100
AcDbText
 10
357.456
 20
209.75200000000012
 30
0.0
 40
0.76
  1
Module laydown
  7
IEC
 11
357.456
 21
209.75200000000012
 31
0.0
100
AcDbText
  0
LWPOLYLINE
  5
150
330
17
100
AcDbEntity
  8
ANNO
100
AcDbPolyline
 90
4
 70
1
 10
381.8
 20
209.22000000000014
 10
449.0
 20
209.22000000000014
 10
449.0
 20
210.85400000000013
 10
381.8
 20
210.85400000000013
  0
TEXT
  5
151
330
17
100
AcDbEntity
  8
ANNO
100
AcDbText
 10
382.25600000000003
 20
209.75200000000012
 30
0.0
 40
0.76
  1
40 x 50 m east of the stack for upending and pre-assembly; SPMT access from the north road.
  7
IEC
 11
382.25600000000003
 21
209.75200000000012
 31
0.0
100
AcDbText
  0
LWPOLYLINE
  5
152
330
17
100
AcDbEntity
  8
ANNO
100
AcDbPolyline
 90
4
 70
1
 10
357.0
 20
207.58600000000015
 10
381.8
 20
207.58600000000015
 10
381.8
 20
209.22000000000014
 10
357.0
 20
209.22000000000014
  0
TEXT
  5
153
330
17
100
AcDbEntity
  8
ANNO
100
AcDbText
 10
357.456
 20
208.11800000000014
 30
0.0
 40
0.76
  1
Catalyst
  7
IEC
 11
357.456
 21
208.11800000000014
 31
0.0
100
AcDbText
  0
LWPOLYLINE
  5
154
330
17
100
AcDbEntity
  8
ANNO
100
AcDbPolyline
 90
4
 70
1
 10
381.8
 20
207.58600000000015
 10
449.0
 20
207.58600000000015
 10
449.0
 20
209.22000000000014
 10
381.8
 20
209.22000000000014
  0
TEXT
  5
155
330
17
100
AcDbEntity
  8
ANNO
100
AcDbText
 10
382.25600000000003
 20
208.11800000000014
 30
0.0
 40
0.76
  1
20 x 10 m laydown at the south side below the catalyst door; 5 t monorail at the catalyst section.
  7
IEC
 11
382.25600000000003
 21
208.11800000000014
 31
0.0
100
AcDbText
  0
LWPOLYLINE
  5
156
330
17
100
AcDbEntity
  8
ANNO
100
AcDbPolyline
 90
4
 70
1
 10
357.0
 20
205.95200000000017
 10
381.8
 20
205.95200000000017
 10
381.8
 20
207.58600000000015
 10
357.0
 20
207.58600000000015
  0
TEXT
  5
157
330
17
100
AcDbEntity
  8
ANNO
100
AcDbText
 10
357.456
 20
206.48400000000015
 30
0.0
 40
0.76
  1
Inspection access
  7
IEC
 11
357.456
 21
206.48400000000015
 31
0.0
100
AcDbText
  0
LWPOLYLINE
  5
158
330
17
100
AcDbEntity
  8
ANNO
100
AcDbPolyline
 90
4
 70
1
 10
381.8
 20
205.95200000000017
 10
449.0
 20
205.95200000000017
 10
449.0
 20
207.58600000000015
 10
381.8
 20
207.58600000000015
  0
TEXT
  5
159
330
17
100
AcDbEntity
  8
ANNO
100
AcDbText
 10
382.25600000000003
 20
206.48400000000015
 30
0.0
 40
0.76
  1
inlet duct manway, access doors per section, 2.5 m clear at all doors and headers.
  7
IEC
 11
382.25600000000003
 21
206.48400000000015
 31
0.0
100
AcDbText
  0
LWPOLYLINE
  5
15A
330
17
100
AcDbEntity
  8
ANNO
100
AcDbPolyline
 90
4
 70
1
 10
357.0
 20
204.31800000000018
 10
381.8
 20
204.31800000000018
 10
381.8
 20
205.95200000000017
 10
357.0
 20
205.95200000000017
  0
TEXT
  5
15B
330
17
100
AcDbEntity
  8
ANNO
100
AcDbText
 10
357.456
 20
204.85000000000016
 30
0.0
 40
0.76
  1
Stack interface
  7
IEC
 11
357.456
 21
204.85000000000016
 31
0.0
100
AcDbText
  0
LWPOLYLINE
  5
15C
330
17
100
AcDbEntity
  8
ANNO
100
AcDbPolyline
 90
4
 70
1
 10
381.8
 20
204.31800000000018
 10
449.0
 20
204.31800000000018
 10
449.0
 20
205.95200000000017
 10
381.8
 20
205.95200000000017
  0
TEXT
  5
15D
330
17
100
AcDbEntity
  8
ANNO
100
AcDbText
 10
382.25600000000003
 20
204.85000000000016
 30
0.0
 40
0.76
  1
IF-26 outlet flange; fabric expansion joint by EPC; stack 65 m (TQ-029 pending on SC-011).
  7
IEC
 11
382.25600000000003
 21
204.85000000000016
 31
0.0
100
AcDbText
  0
TEXT
  5
15E
330
17
100
AcDbEntity
  8
ANNO
100
AcDbText
 10
357.0
 20
200.31800000000018
 30
0.0
 40
1.1
  1
LEGEND
  7
IEC
 11
357.0
 21
200.31800000000018
 31
0.0
100
AcDbText
  0
LINE
  5
15F
330
17
100
AcDbEntity
  8
IEC
  6
CONTINUOUS
370
60
100
AcDbLine
 10
357.0
 20
198.41800000000018
 30
0.0
 11
361.0
 21
198.41800000000018
 31
0.0
  0
TEXT
  5
160
330
17
100
AcDbEntity
  8
ANNO
100
AcDbText
 10
362.2
 20
198.01800000000017
 30
0.0
 40
0.8
  1
IEC supply (equipment outline)
  7
IEC
 11
362.2
 21
198.01800000000017
 31
0.0
100
AcDbText
  0
LINE
  5
161
330
17
100
AcDbEntity
  8
EPC
  6
DASHED
370
60
100
AcDbLine
 10
357.0
 20
196.1180000000002
 30
0.0
 11
361.0
 21
196.1180000000002
 31
0.0
  0
TEXT
  5
162
330
17
100
AcDbEntity
  8
ANNO
100
AcDbText
 10
362.2
 20
195.7180000000002
 30
0.0
 40
0.8
  1
EPC item, shown as IEC space requirement
  7
IEC
 11
362.2
 21
195.7180000000002
 31
0.0
100
AcDbText
  0
LINE
  5
163
330
17
100
AcDbEntity
  8
MAINT
  6
DASHED
370
60
100
AcDbLine
 10
357.0
 20
193.81800000000018
 30
0.0
 11
361.0
 21
193.81800000000018
 31
0.0
  0
TEXT
  5
164
330
17
100
AcDbEntity
  8
ANNO
100
AcDbText
 10
362.2
 20
193.41800000000018
 30
0.0
 40
0.8
  1
maintenance / withdrawal space (keep free)
  7
IEC
 11
362.2
 21
193.41800000000018
 31
0.0
100
AcDbText
  0
LINE
  5
165
330
17
100
AcDbEntity
  8
LAYDOWN
  6
DASHED
370
60
100
AcDbLine
 10
357.0
 20
191.5180000000002
 30
0.0
 11
361.0
 21
191.5180000000002
 31
0.0
  0
TEXT
  5
166
330
17
100
AcDbEntity
  8
ANNO
100
AcDbText
 10
362.2
 20
191.1180000000002
 30
0.0
 40
0.8
  1
laydown area
  7
IEC
 11
362.2
 21
191.1180000000002
 31
0.0
100
AcDbText
  0
LINE
  5
167
330
17
100
AcDbEntity
  8
CRANE
  6
DASHDOT
370
60
100
AcDbLine
 10
357.0
 20
189.2180000000002
 30
0.0
 11
361.0
 21
189.2180000000002
 31
0.0
  0
TEXT
  5
168
330
17
100
AcDbEntity
  8
ANNO
100
AcDbText
 10
362.2
 20
188.81800000000018
 30
0.0
 40
0.8
  1
crane hook coverage / crane
  7
IEC
 11
362.2
 21
188.81800000000018
 31
0.0
100
AcDbText
  0
LINE
  5
169
330
17
100
AcDbEntity
  8
PAD
  6
DASHED
370
60
100
AcDbLine
 10
357.0
 20
186.91800000000018
 30
0.0
 11
361.0
 21
186.91800000000018
 31
0.0
  0
TEXT
  5
16A
330
17
100
AcDbEntity
  8
ANNO
100
AcDbText
 10
362.2
 20
186.51800000000017
 30
0.0
 40
0.8
  1
crane pad / pre-assembly area (temporary)
  7
IEC
 11
362.2
 21
186.51800000000017
 31
0.0
100
AcDbText
  0
LINE
  5
16B
330
17
100
AcDbEntity
  8
ACCESS
  6
CONTINUOUS
370
60
100
AcDbLine
 10
357.0
 20
184.6180000000002
 30
0.0
 11
361.0
 21
184.6180000000002
 31
0.0
  0
TEXT
  5
16C
330
17
100
AcDbEntity
  8
ANNO
100
AcDbText
 10
362.2
 20
184.2180000000002
 30
0.0
 40
0.8
  1
vehicle / heavy-haul access (SPMT)
  7
IEC
 11
362.2
 21
184.2180000000002
 31
0.0
100
AcDbText
  0
LINE
  5
16D
330
17
100
AcDbEntity
  8
DIM
  6
CONTINUOUS
370
60
100
AcDbLine
 10
357.0
 20
182.31800000000018
 30
0.0
 11
361.0
 21
182.31800000000018
 31
0.0
  0
TEXT
  5
16E
330
17
100
AcDbEntity
  8
ANNO
100
AcDbText
 10
362.2
 20
181.91800000000018
 30
0.0
 40
0.8
  1
dimension (m)
  7
IEC
 11
362.2
 21
181.91800000000018
 31
0.0
100
AcDbText
  0
LWPOLYLINE
  5
16F
330
17
100
AcDbEntity
  8
ANNO
100
AcDbPolyline
 90
4
 70
1
 10
290.0
 20
222.0
 10
288.8
 20
218.16
 10
290.0
 20
219.12
 10
291.2
 20
218.16
  0
TEXT
  5
170
330
17
100
AcDbEntity
  8
ANNO
100
AcDbText
 10
290.0
 20
222.72
 30
0.0
 40
1.4
  1
N
  7
IEC
 72
1
 11
290.0
 21
222.72
 31
0.0
100
AcDbText
  0
LWPOLYLINE
  5
171
330
17
100
AcDbEntity
  8
ANNO
100
AcDbPolyline
 90
4
 70
1
 10
165.0
 20
7.0
 10
175.0
 20
7.0
 10
175.0
 20
7.5
 10
165.0
 20
7.5
  0
HATCH
  5
172
330
17
100
AcDbEntity
  8
ANNO
100
AcDbHatch
 10
0.0
 20
0.0
 30
0.0
210
0.0
220
0.0
230
1.0
  2
SOLID
 70
1
 71
0
 91
1
 92
3
 72
0
 73
1
 93
4
 10
165.0
 20
7.0
 10
175.0
 20
7.0
 10
175.0
 20
7.5
 10
165.0
 20
7.5
 97
0
 75
1
 76
1
 98
0
  0
TEXT
  5
173
330
17
100
AcDbEntity
  8
ANNO
100
AcDbText
 10
165.0
 20
5.5
 30
0.0
 40
0.8
  1
0
  7
IEC
 72
1
 11
165.0
 21
5.5
 31
0.0
100
AcDbText
  0
LWPOLYLINE
  5
174
330
17
100
AcDbEntity
  8
ANNO
100
AcDbPolyline
 90
4
 70
1
 10
175.0
 20
7.0
 10
185.0
 20
7.0
 10
185.0
 20
7.5
 10
175.0
 20
7.5
  0
TEXT
  5
175
330
17
100
AcDbEntity
  8
ANNO
100
AcDbText
 10
175.0
 20
5.5
 30
0.0
 40
0.8
  1
10
  7
IEC
 72
1
 11
175.0
 21
5.5
 31
0.0
100
AcDbText
  0
LWPOLYLINE
  5
176
330
17
100
AcDbEntity
  8
ANNO
100
AcDbPolyline
 90
4
 70
1
 10
185.0
 20
7.0
 10
195.0
 20
7.0
 10
195.0
 20
7.5
 10
185.0
 20
7.5
  0
HATCH
  5
177
330
17
100
AcDbEntity
  8
ANNO
100
AcDbHatch
 10
0.0
 20
0.0
 30
0.0
210
0.0
220
0.0
230
1.0
  2
SOLID
 70
1
 71
0
 91
1
 92
3
 72
0
 73
1
 93
4
 10
185.0
 20
7.0
 10
195.0
 20
7.0
 10
195.0
 20
7.5
 10
185.0
 20
7.5
 97
0
 75
1
 76
1
 98
0
  0
TEXT
  5
178
330
17
100
AcDbEntity
  8
ANNO
100
AcDbText
 10
185.0
 20
5.5
 30
0.0
 40
0.8
  1
20
  7
IEC
 72
1
 11
185.0
 21
5.5
 31
0.0
100
AcDbText
  0
LWPOLYLINE
  5
179
330
17
100
AcDbEntity
  8
ANNO
100
AcDbPolyline
 90
4
 70
1
 10
195.0
 20
7.0
 10
205.0
 20
7.0
 10
205.0
 20
7.5
 10
195.0
 20
7.5
  0
TEXT
  5
17A
330
17
100
AcDbEntity
  8
ANNO
100
AcDbText
 10
195.0
 20
5.5
 30
0.0
 40
0.8
  1
30
  7
IEC
 72
1
 11
195.0
 21
5.5
 31
0.0
100
AcDbText
  0
TEXT
  5
17B
330
17
100
AcDbEntity
  8
ANNO
100
AcDbText
 10
205.0
 20
5.5
 30
0.0
 40
0.8
  1
40 m
  7
IEC
 72
1
 11
205.0
 21
5.5
 31
0.0
100
AcDbText
  0
ENDSEC
  0
SECTION
  2
OBJECTS
  0
DICTIONARY
  5
A
330
0
100
AcDbDictionary
281
1
  3
ACAD_COLOR
350
B
  3
ACAD_GROUP
350
C
  3
ACAD_LAYOUT
350
D
  3
ACAD_MATERIAL
350
E
  3
ACAD_MLEADERSTYLE
350
F
  3
ACAD_MLINESTYLE
350
10
  3
ACAD_PLOTSETTINGS
350
11
  3
ACAD_PLOTSTYLENAME
350
12
  3
ACAD_SCALELIST
350
14
  3
ACAD_TABLESTYLE
350
15
  3
ACAD_VISUALSTYLE
350
16
  3
EZDXF_META
350
2D
  0
DICTIONARY
  5
B
330
A
100
AcDbDictionary
281
1
  0
DICTIONARY
  5
C
330
A
100
AcDbDictionary
281
1
  0
DICTIONARY
  5
D
330
A
100
AcDbDictionary
281
1
  3
Model
350
1A
  3
Layout1
350
1E
  0
DICTIONARY
  5
E
330
A
100
AcDbDictionary
281
1
  3
ByBlock
350
1F
  3
ByLayer
350
20
  3
Global
350
21
  0
DICTIONARY
  5
F
330
A
100
AcDbDictionary
281
1
  3
Standard
350
2C
  0
DICTIONARY
  5
10
330
A
100
AcDbDictionary
281
1
  3
Standard
350
22
  0
DICTIONARY
  5
11
330
A
100
AcDbDictionary
281
1
  0
ACDBDICTIONARYWDFLT
  5
12
330
A
100
AcDbDictionary
281
1
  3
Normal
350
13
100
AcDbDictionaryWithDefault
340
13
  0
ACDBPLACEHOLDER
  5
13
330
12
  0
DICTIONARY
  5
14
330
A
100
AcDbDictionary
281
1
  0
DICTIONARY
  5
15
330
A
100
AcDbDictionary
281
1
  0
DICTIONARY
  5
16
330
A
100
AcDbDictionary
281
1
  3
2dWireframe
350
5A
  3
Basic
350
5B
  3
Brighten
350
5C
  3
ColorChange
350
5D
  3
Conceptual
350
5E
  3
Dim
350
5F
  3
EdgeColorOff
350
60
  3
Facepattern
350
61
  3
Flat
350
62
  3
FlatWithEdges
350
63
  3
Gouraud
350
64
  3
GouraudWithEdges
350
65
  3
Hidden
350
66
  3
JitterOff
350
67
  3
Linepattern
350
68
  3
Modeling
350
69
  3
OverhangOff
350
6A
  3
Realistic
350
6B
  3
Shaded
350
6C
  3
Shaded with edges
350
6D
  3
Shades of Gray
350
6E
  3
Sketchy
350
6F
  3
Thicken
350
70
  3
Wireframe
350
71
  3
X-Ray
350
72
  0
LAYOUT
  5
1A
330
D
100
AcDbPlotSettings
  1

  4
A3
  6

 40
7.5
 41
20.0
 42
7.5
 43
20.0
 44
420.0
 45
297.0
 46
0.0
 47
0.0
 48
0.0
 49
0.0
140
0.0
141
0.0
142
1.0
143
1.0
 70
1024
 72
1
 73
0
 74
5
  7

 75
16
 76
0
 77
2
 78
300
147
1.0
148
0.0
149
0.0
100
AcDbLayout
  1
Model
 70
1
 71
0
 10
0.0
 20
0.0
 11
420.0
 21
297.0
 12
0.0
 22
0.0
 32
0.0
 14
1e+20
 24
1e+20
 34
1e+20
 15
-1e+20
 25
-1e+20
 35
-1e+20
146
0.0
 13
0.0
 23
0.0
 33
0.0
 16
1.0
 26
0.0
 36
0.0
 17
0.0
 27
1.0
 37
0.0
 76
1
330
17
  0
LAYOUT
  5
1E
330
D
100
AcDbPlotSettings
  1

  4
A3
  6

 40
7.5
 41
20.0
 42
7.5
 43
20.0
 44
420.0
 45
297.0
 46
0.0
 47
0.0
 48
0.0
 49
0.0
140
0.0
141
0.0
142
1.0
143
1.0
 70
0
 72
1
 73
0
 74
5
  7

 75
16
 76
0
 77
2
 78
300
147
1.0
148
0.0
149
0.0
100
AcDbLayout
  1
Layout1
 70
1
 71
1
 10
0.0
 20
0.0
 11
420.0
 21
297.0
 12
0.0
 22
0.0
 32
0.0
 14
1e+20
 24
1e+20
 34
1e+20
 15
-1e+20
 25
-1e+20
 35
-1e+20
146
0.0
 13
0.0
 23
0.0
 33
0.0
 16
1.0
 26
0.0
 36
0.0
 17
0.0
 27
1.0
 37
0.0
 76
1
330
1B
  0
MATERIAL
  5
1F
102
{ACAD_REACTORS
330
E
102
}
330
E
100
AcDbMaterial
  1
ByBlock
  2

 70
0
 40
1.0
 71
1
 41
1.0
 91
-1023410177
 42
1.0
 72
1
  3

 73
1
 74
1
 75
1
 44
0.5
 73
0
 45
1.0
 46
1.0
 77
1
  4

 78
1
 79
1
170
1
 48
1.0
171
1
  6

172
1
173
1
174
1
140
1.0
141
1.0
175
1
  7

176
1
177
1
178
1
143
1.0
179
1
  8

270
1
271
1
272
1
145
1.0
146
1.0
273
1
  9

274
1
275
1
276
1
 42
1.0
 72
1
  3

 73
1
 74
1
 75
1
 94
63
  0
MATERIAL
  5
20
102
{ACAD_REACTORS
330
E
102
}
330
E
100
AcDbMaterial
  1
ByLayer
  2

 70
0
 40
1.0
 71
1
 41
1.0
 91
-1023410177
 42
1.0
 72
1
  3

 73
1
 74
1
 75
1
 44
0.5
 73
0
 45
1.0
 46
1.0
 77
1
  4

 78
1
 79
1
170
1
 48
1.0
171
1
  6

172
1
173
1
174
1
140
1.0
141
1.0
175
1
  7

176
1
177
1
178
1
143
1.0
179
1
  8

270
1
271
1
272
1
145
1.0
146
1.0
273
1
  9

274
1
275
1
276
1
 42
1.0
 72
1
  3

 73
1
 74
1
 75
1
 94
63
  0
MATERIAL
  5
21
102
{ACAD_REACTORS
330
E
102
}
330
E
100
AcDbMaterial
  1
Global
  2

 70
0
 40
1.0
 71
1
 41
1.0
 91
-1023410177
 42
1.0
 72
1
  3

 73
1
 74
1
 75
1
 44
0.5
 73
0
 45
1.0
 46
1.0
 77
1
  4

 78
1
 79
1
170
1
 48
1.0
171
1
  6

172
1
173
1
174
1
140
1.0
141
1.0
175
1
  7

176
1
177
1
178
1
143
1.0
179
1
  8

270
1
271
1
272
1
145
1.0
146
1.0
273
1
  9

274
1
275
1
276
1
 42
1.0
 72
1
  3

 73
1
 74
1
 75
1
 94
63
  0
MLINESTYLE
  5
22
102
{ACAD_REACTORS
330
10
102
}
330
10
100
AcDbMlineStyle
  2
Standard
 70
0
  3

 62
256
 51
90.0
 52
90.0
 71
2
 49
0.5
 62
256
  6
BYLAYER
 49
-0.5
 62
256
  6
BYLAYER
  0
MLEADERSTYLE
  5
2C
102
{ACAD_REACTORS
330
F
102
}
330
F
100
AcDbMLeaderStyle
179
2
170
2
171
1
172
0
 90
2
 40
0.0
 41
0.0
173
1
 91
-1056964608
 92
-2
290
1
 42
2.0
291
1
 43
8.0
  3
Standard
 44
4.0
300

342
29
174
1
175
1
176
0
178
1
 93
-1056964608
 45
4.0
292
0
297
0
 46
4.0
 94
-1056964608
 47
1.0
 49
1.0
140
1.0
294
1
141
0.0
177
0
142
1.0
295
0
296
0
143
3.75
271
0
272
9
273
9
  0
DICTIONARY
  5
2D
330
A
100
AcDbDictionary
280
1
281
1
  3
CREATED_BY_EZDXF
350
2E
  3
WRITTEN_BY_EZDXF
350
17E
  0
DICTIONARYVAR
  5
2E
330
2D
100
DictionaryVariables
280
0
  1
1.4.4 @ 2026-09-28T04:12:09.235759+00:00
  0
VISUALSTYLE
  5
5A
102
{ACAD_REACTORS
330
16
102
}
330
16
100
AcDbVisualStyle
  2
2dWireframe
 70
4
177
3
291
0
 70
58
 90
2
176
1
 90
2
176
1
 90
0
176
1
 90
0
176
1
 40
0.6
176
1
 40
30.0
176
1
 62
7
420
16777215
176
1
 90
1
176
1
 90
4
176
1
 62
7
176
1
 62
257
176
1
 90
1
176
1
 90
1
176
1
 40
1.0
176
1
 90
8
176
1
 62
7
176
1
 40
1.0
176
1
 90
1
176
1
 90
6
176
1
 90
2
176
1
 62
7
176
1
 90
5
176
1
 90
0
176
1
 90
0
176
1
290
0
176
1
 90
1
176
1
 40
0.0
176
1
 90
0
176
1
290
1
176
1
290
1
176
1
290
0
176
1
290
0
176
1
290
0
176
1
290
0
176
1
290
0
176
1
290
0
176
1
290
0
176
1
 90
50
176
1
 40
0.0
176
1
 40
1.0
176
1
 90
0
176
1
 62
18
420
0
176
1
 90
50
176
1
 90
3
176
1
 62
5
420
255
176
1
290
0
176
1
 90
50
176
1
 90
50
176
1
 90
50
176
1
290
0
176
1
 90
50
176
1
 62
256
176
0
 40
1.0
176
0
 90
2
176
1
  1
strokes_ogs.tif
176
1
290
0
176
1
 40
1.0
176
1
 40
1.0
176
1
  0
VISUALSTYLE
  5
5B
102
{ACAD_REACTORS
330
16
102
}
330
16
100
AcDbVisualStyle
  2
Basic
 70
7
177
3
291
1
 70
58
 90
2
176
1
 90
2
176
1
 90
0
176
1
 90
1
176
1
 40
0.6
176
1
 40
30.0
176
1
 62
7
420
16777215
176
1
 90
1
176
1
 90
4
176
1
 62
7
176
1
 62
257
176
1
 90
1
176
1
 90
1
176
1
 40
1.0
176
1
 90
8
176
1
 62
7
176
1
 40
1.0
176
1
 90
1
176
1
 90
6
176
1
 90
2
176
1
 62
7
176
1
 90
5
176
1
 90
0
176
1
 90
0
176
1
290
0
176
1
 90
1
176
1
 40
0.0
176
1
 90
0
176
1
290
0
176
1
290
1
176
1
290
1
176
1
290
0
176
1
290
0
176
1
290
0
176
1
290
0
176
1
290
0
176
1
290
0
176
1
 90
50
176
1
 40
0.0
176
1
 40
1.0
176
1
 90
0
176
1
 62
18
420
0
176
1
 90
50
176
1
 90
3
176
1
 62
5
420
255
176
1
290
0
176
1
 90
50
176
1
 90
50
176
1
 90
50
176
1
290
0
176
1
 90
50
176
1
 62
256
176
0
 40
1.0
176
0
 90
2
176
1
  1
strokes_ogs.tif
176
1
290
0
176
1
 40
1.0
176
1
 40
1.0
176
1
  0
VISUALSTYLE
  5
5C
102
{ACAD_REACTORS
330
16
102
}
330
16
100
AcDbVisualStyle
  2
Brighten
 70
12
177
3
291
1
 70
58
 90
2
176
1
 90
2
176
1
 90
0
176
1
 90
2
176
1
 40
0.6
176
1
 40
30.0
176
1
 62
7
420
16777215
176
1
 90
1
176
1
 90
4
176
1
 62
7
176
1
 62
257
176
1
 90
1
176
1
 90
1
176
1
 40
1.0
176
1
 90
8
176
1
 62
7
176
1
 40
1.0
176
1
 90
1
176
1
 90
6
176
1
 90
2
176
1
 62
7
176
1
 90
5
176
1
 90
0
176
1
 90
0
176
1
290
0
176
1
 90
1
176
1
 40
0.0
176
1
 90
0
176
1
290
0
176
1
290
1
176
1
290
1
176
1
290
0
176
1
290
0
176
1
290
0
176
1
290
0
176
1
290
0
176
1
290
0
176
1
 90
50
176
1
 40
0.0
176
1
 40
1.0
176
1
 90
0
176
1
 62
18
420
0
176
1
 90
50
176
1
 90
3
176
1
 62
5
420
255
176
1
290
0
176
1
 90
50
176
1
 90
50
176
1
 90
50
176
1
290
0
176
1
 90
50
176
1
 62
256
176
0
 40
1.0
176
0
 90
2
176
1
  1
strokes_ogs.tif
176
1
290
0
176
1
 40
1.0
176
1
 40
1.0
176
1
  0
VISUALSTYLE
  5
5D
102
{ACAD_REACTORS
330
16
102
}
330
16
100
AcDbVisualStyle
  2
ColorChange
 70
16
177
3
291
1
 70
58
 90
2
176
1
 90
2
176
1
 90
0
176
1
 90
2
176
1
 40
0.6
176
1
 40
30.0
176
1
 62
7
420
16777215
176
1
 90
1
176
1
 90
4
176
1
 62
7
176
1
 62
257
176
1
 90
1
176
1
 90
1
176
1
 40
1.0
176
1
 90
8
176
1
 62
7
176
1
 40
1.0
176
1
 90
1
176
1
 90
6
176
1
 90
2
176
1
 62
7
176
1
 90
5
176
1
 90
0
176
1
 90
0
176
1
290
0
176
1
 90
1
176
1
 40
0.0
176
1
 90
0
176
1
290
0
176
1
290
1
176
1
290
1
176
1
290
0
176
1
290
0
176
1
290
0
176
1
290
0
176
1
290
0
176
1
290
0
176
1
 90
50
176
1
 40
0.0
176
1
 40
1.0
176
1
 90
0
176
1
 62
18
420
0
176
1
 90
50
176
1
 90
3
176
1
 62
5
420
255
176
1
290
0
176
1
 90
50
176
1
 90
50
176
1
 90
50
176
1
290
0
176
1
 90
50
176
1
 62
256
176
0
 40
1.0
176
0
 90
2
176
1
  1
strokes_ogs.tif
176
1
290
0
176
1
 40
1.0
176
1
 40
1.0
176
1
  0
VISUALSTYLE
  5
5E
102
{ACAD_REACTORS
330
16
102
}
330
16
100
AcDbVisualStyle
  2
Conceptual
 70
9
177
3
291
0
 70
58
 90
2
176
1
 90
2
176
1
 90
0
176
1
 90
3
176
1
 40
0.6
176
1
 40
30.0
176
1
 62
7
420
16777215
176
1
 90
1
176
1
 90
4
176
1
 62
7
176
1
 62
257
176
1
 90
1
176
1
 90
1
176
1
 40
1.0
176
1
 90
8
176
1
 62
7
176
1
 40
1.0
176
1
 90
1
176
1
 90
6
176
1
 90
2
176
1
 62
7
176
1
 90
5
176
1
 90
0
176
1
 90
0
176
1
290
0
176
1
 90
1
176
1
 40
0.0
176
1
 90
0
176
1
290
0
176
1
290
1
176
1
290
1
176
1
290
0
176
1
290
0
176
1
290
0
176
1
290
0
176
1
290
0
176
1
290
0
176
1
 90
50
176
1
 40
0.0
176
1
 40
1.0
176
1
 90
0
176
1
 62
18
420
0
176
1
 90
50
176
1
 90
3
176
1
 62
5
420
255
176
1
290
0
176
1
 90
50
176
1
 90
50
176
1
 90
50
176
1
290
0
176
1
 90
50
176
1
 62
256
176
0
 40
1.0
176
0
 90
2
176
1
  1
strokes_ogs.tif
176
1
290
0
176
1
 40
1.0
176
1
 40
1.0
176
1
  0
VISUALSTYLE
  5
5F
102
{ACAD_REACTORS
330
16
102
}
330
16
100
AcDbVisualStyle
  2
Dim
 70
11
177
3
291
1
 70
58
 90
2
176
1
 90
2
176
1
 90
0
176
1
 90
2
176
1
 40
0.6
176
1
 40
30.0
176
1
 62
7
420
16777215
176
1
 90
1
176
1
 90
4
176
1
 62
7
176
1
 62
257
176
1
 90
1
176
1
 90
1
176
1
 40
1.0
176
1
 90
8
176
1
 62
7
176
1
 40
1.0
176
1
 90
1
176
1
 90
6
176
1
 90
2
176
1
 62
7
176
1
 90
5
176
1
 90
0
176
1
 90
0
176
1
290
0
176
1
 90
1
176
1
 40
0.0
176
1
 90
0
176
1
290
0
176
1
290
1
176
1
290
1
176
1
290
0
176
1
290
0
176
1
290
0
176
1
290
0
176
1
290
0
176
1
290
0
176
1
 90
50
176
1
 40
0.0
176
1
 40
1.0
176
1
 90
0
176
1
 62
18
420
0
176
1
 90
50
176
1
 90
3
176
1
 62
5
420
255
176
1
290
0
176
1
 90
50
176
1
 90
50
176
1
 90
50
176
1
290
0
176
1
 90
50
176
1
 62
256
176
0
 40
1.0
176
0
 90
2
176
1
  1
strokes_ogs.tif
176
1
290
0
176
1
 40
1.0
176
1
 40
1.0
176
1
  0
VISUALSTYLE
  5
60
102
{ACAD_REACTORS
330
16
102
}
330
16
100
AcDbVisualStyle
  2
EdgeColorOff
 70
22
177
3
291
1
 70
58
 90
2
176
1
 90
2
176
1
 90
0
176
1
 90
2
176
1
 40
0.6
176
1
 40
30.0
176
1
 62
7
420
16777215
176
1
 90
1
176
1
 90
4
176
1
 62
7
176
1
 62
257
176
1
 90
1
176
1
 90
1
176
1
 40
1.0
176
1
 90
8
176
1
 62
7
176
1
 40
1.0
176
1
 90
1
176
1
 90
6
176
1
 90
2
176
1
 62
7
176
1
 90
5
176
1
 90
0
176
1
 90
0
176
1
290
0
176
1
 90
1
176
1
 40
0.0
176
1
 90
0
176
1
290
0
176
1
290
1
176
1
290
1
176
1
290
0
176
1
290
0
176
1
290
0
176
1
290
0
176
1
290
0
176
1
290
0
176
1
 90
50
176
1
 40
0.0
176
1
 40
1.0
176
1
 90
0
176
1
 62
18
420
0
176
1
 90
50
176
1
 90
3
176
1
 62
5
420
255
176
1
290
0
176
1
 90
50
176
1
 90
50
176
1
 90
50
176
1
290
0
176
1
 90
50
176
1
 62
256
176
0
 40
1.0
176
0
 90
2
176
1
  1
strokes_ogs.tif
176
1
290
0
176
1
 40
1.0
176
1
 40
1.0
176
1
  0
VISUALSTYLE
  5
61
102
{ACAD_REACTORS
330
16
102
}
330
16
100
AcDbVisualStyle
  2
Facepattern
 70
15
177
3
291
1
 70
58
 90
2
176
1
 90
2
176
1
 90
0
176
1
 90
2
176
1
 40
0.6
176
1
 40
30.0
176
1
 62
7
420
16777215
176
1
 90
1
176
1
 90
4
176
1
 62
7
176
1
 62
257
176
1
 90
1
176
1
 90
1
176
1
 40
1.0
176
1
 90
8
176
1
 62
7
176
1
 40
1.0
176
1
 90
1
176
1
 90
6
176
1
 90
2
176
1
 62
7
176
1
 90
5
176
1
 90
0
176
1
 90
0
176
1
290
0
176
1
 90
1
176
1
 40
0.0
176
1
 90
0
176
1
290
0
176
1
290
1
176
1
290
1
176
1
290
0
176
1
290
0
176
1
290
0
176
1
290
0
176
1
290
0
176
1
290
0
176
1
 90
50
176
1
 40
0.0
176
1
 40
1.0
176
1
 90
0
176
1
 62
18
420
0
176
1
 90
50
176
1
 90
3
176
1
 62
5
420
255
176
1
290
0
176
1
 90
50
176
1
 90
50
176
1
 90
50
176
1
290
0
176
1
 90
50
176
1
 62
256
176
0
 40
1.0
176
0
 90
2
176
1
  1
strokes_ogs.tif
176
1
290
0
176
1
 40
1.0
176
1
 40
1.0
176
1
  0
VISUALSTYLE
  5
62
102
{ACAD_REACTORS
330
16
102
}
330
16
100
AcDbVisualStyle
  2
Flat
 70
0
177
3
291
1
 70
58
 90
2
176
1
 90
2
176
1
 90
0
176
1
 90
2
176
1
 40
0.6
176
1
 40
30.0
176
1
 62
7
420
16777215
176
1
 90
1
176
1
 90
4
176
1
 62
7
176
1
 62
257
176
1
 90
1
176
1
 90
1
176
1
 40
1.0
176
1
 90
8
176
1
 62
7
176
1
 40
1.0
176
1
 90
1
176
1
 90
6
176
1
 90
2
176
1
 62
7
176
1
 90
5
176
1
 90
0
176
1
 90
0
176
1
290
0
176
1
 90
1
176
1
 40
0.0
176
1
 90
0
176
1
290
0
176
1
290
1
176
1
290
1
176
1
290
0
176
1
290
0
176
1
290
0
176
1
290
0
176
1
290
0
176
1
290
0
176
1
 90
50
176
1
 40
0.0
176
1
 40
1.0
176
1
 90
0
176
1
 62
18
420
0
176
1
 90
50
176
1
 90
3
176
1
 62
5
420
255
176
1
290
0
176
1
 90
50
176
1
 90
50
176
1
 90
50
176
1
290
0
176
1
 90
50
176
1
 62
256
176
0
 40
1.0
176
0
 90
2
176
1
  1
strokes_ogs.tif
176
1
290
0
176
1
 40
1.0
176
1
 40
1.0
176
1
  0
VISUALSTYLE
  5
63
102
{ACAD_REACTORS
330
16
102
}
330
16
100
AcDbVisualStyle
  2
FlatWithEdges
 70
1
177
3
291
1
 70
58
 90
2
176
1
 90
2
176
1
 90
0
176
1
 90
2
176
1
 40
0.6
176
1
 40
30.0
176
1
 62
7
420
16777215
176
1
 90
1
176
1
 90
4
176
1
 62
7
176
1
 62
257
176
1
 90
1
176
1
 90
1
176
1
 40
1.0
176
1
 90
8
176
1
 62
7
176
1
 40
1.0
176
1
 90
1
176
1
 90
6
176
1
 90
2
176
1
 62
7
176
1
 90
5
176
1
 90
0
176
1
 90
0
176
1
290
0
176
1
 90
1
176
1
 40
0.0
176
1
 90
0
176
1
290
0
176
1
290
1
176
1
290
1
176
1
290
0
176
1
290
0
176
1
290
0
176
1
290
0
176
1
290
0
176
1
290
0
176
1
 90
50
176
1
 40
0.0
176
1
 40
1.0
176
1
 90
0
176
1
 62
18
420
0
176
1
 90
50
176
1
 90
3
176
1
 62
5
420
255
176
1
290
0
176
1
 90
50
176
1
 90
50
176
1
 90
50
176
1
290
0
176
1
 90
50
176
1
 62
256
176
0
 40
1.0
176
0
 90
2
176
1
  1
strokes_ogs.tif
176
1
290
0
176
1
 40
1.0
176
1
 40
1.0
176
1
  0
VISUALSTYLE
  5
64
102
{ACAD_REACTORS
330
16
102
}
330
16
100
AcDbVisualStyle
  2
Gouraud
 70
2
177
3
291
1
 70
58
 90
2
176
1
 90
2
176
1
 90
0
176
1
 90
2
176
1
 40
0.6
176
1
 40
30.0
176
1
 62
7
420
16777215
176
1
 90
1
176
1
 90
4
176
1
 62
7
176
1
 62
257
176
1
 90
1
176
1
 90
1
176
1
 40
1.0
176
1
 90
8
176
1
 62
7
176
1
 40
1.0
176
1
 90
1
176
1
 90
6
176
1
 90
2
176
1
 62
7
176
1
 90
5
176
1
 90
0
176
1
 90
0
176
1
290
0
176
1
 90
1
176
1
 40
0.0
176
1
 90
0
176
1
290
0
176
1
290
1
176
1
290
1
176
1
290
0
176
1
290
0
176
1
290
0
176
1
290
0
176
1
290
0
176
1
290
0
176
1
 90
50
176
1
 40
0.0
176
1
 40
1.0
176
1
 90
0
176
1
 62
18
420
0
176
1
 90
50
176
1
 90
3
176
1
 62
5
420
255
176
1
290
0
176
1
 90
50
176
1
 90
50
176
1
 90
50
176
1
290
0
176
1
 90
50
176
1
 62
256
176
0
 40
1.0
176
0
 90
2
176
1
  1
strokes_ogs.tif
176
1
290
0
176
1
 40
1.0
176
1
 40
1.0
176
1
  0
VISUALSTYLE
  5
65
102
{ACAD_REACTORS
330
16
102
}
330
16
100
AcDbVisualStyle
  2
GouraudWithEdges
 70
3
177
3
291
1
 70
58
 90
2
176
1
 90
2
176
1
 90
0
176
1
 90
2
176
1
 40
0.6
176
1
 40
30.0
176
1
 62
7
420
16777215
176
1
 90
1
176
1
 90
4
176
1
 62
7
176
1
 62
257
176
1
 90
1
176
1
 90
1
176
1
 40
1.0
176
1
 90
8
176
1
 62
7
176
1
 40
1.0
176
1
 90
1
176
1
 90
6
176
1
 90
2
176
1
 62
7
176
1
 90
5
176
1
 90
0
176
1
 90
0
176
1
290
0
176
1
 90
1
176
1
 40
0.0
176
1
 90
0
176
1
290
0
176
1
290
1
176
1
290
1
176
1
290
0
176
1
290
0
176
1
290
0
176
1
290
0
176
1
290
0
176
1
290
0
176
1
 90
50
176
1
 40
0.0
176
1
 40
1.0
176
1
 90
0
176
1
 62
18
420
0
176
1
 90
50
176
1
 90
3
176
1
 62
5
420
255
176
1
290
0
176
1
 90
50
176
1
 90
50
176
1
 90
50
176
1
290
0
176
1
 90
50
176
1
 62
256
176
0
 40
1.0
176
0
 90
2
176
1
  1
strokes_ogs.tif
176
1
290
0
176
1
 40
1.0
176
1
 40
1.0
176
1
  0
VISUALSTYLE
  5
66
102
{ACAD_REACTORS
330
16
102
}
330
16
100
AcDbVisualStyle
  2
Hidden
 70
6
177
3
291
0
 70
58
 90
2
176
1
 90
2
176
1
 90
0
176
1
 90
1
176
1
 40
0.6
176
1
 40
30.0
176
1
 62
7
420
16777215
176
1
 90
1
176
1
 90
4
176
1
 62
7
176
1
 62
257
176
1
 90
1
176
1
 90
1
176
1
 40
1.0
176
1
 90
8
176
1
 62
7
176
1
 40
1.0
176
1
 90
1
176
1
 90
6
176
1
 90
2
176
1
 62
7
176
1
 90
5
176
1
 90
0
176
1
 90
0
176
1
290
0
176
1
 90
1
176
1
 40
0.0
176
1
 90
0
176
1
290
0
176
1
290
1
176
1
290
1
176
1
290
0
176
1
290
0
176
1
290
0
176
1
290
0
176
1
290
0
176
1
290
0
176
1
 90
50
176
1
 40
0.0
176
1
 40
1.0
176
1
 90
0
176
1
 62
18
420
0
176
1
 90
50
176
1
 90
3
176
1
 62
5
420
255
176
1
290
0
176
1
 90
50
176
1
 90
50
176
1
 90
50
176
1
290
0
176
1
 90
50
176
1
 62
256
176
0
 40
1.0
176
0
 90
2
176
1
  1
strokes_ogs.tif
176
1
290
0
176
1
 40
1.0
176
1
 40
1.0
176
1
  0
VISUALSTYLE
  5
67
102
{ACAD_REACTORS
330
16
102
}
330
16
100
AcDbVisualStyle
  2
JitterOff
 70
20
177
3
291
1
 70
58
 90
2
176
1
 90
2
176
1
 90
0
176
1
 90
2
176
1
 40
0.6
176
1
 40
30.0
176
1
 62
7
420
16777215
176
1
 90
1
176
1
 90
4
176
1
 62
7
176
1
 62
257
176
1
 90
1
176
1
 90
1
176
1
 40
1.0
176
1
 90
8
176
1
 62
7
176
1
 40
1.0
176
1
 90
1
176
1
 90
6
176
1
 90
2
176
1
 62
7
176
1
 90
5
176
1
 90
0
176
1
 90
0
176
1
290
0
176
1
 90
1
176
1
 40
0.0
176
1
 90
0
176
1
290
0
176
1
290
1
176
1
290
1
176
1
290
0
176
1
290
0
176
1
290
0
176
1
290
0
176
1
290
0
176
1
290
0
176
1
 90
50
176
1
 40
0.0
176
1
 40
1.0
176
1
 90
0
176
1
 62
18
420
0
176
1
 90
50
176
1
 90
3
176
1
 62
5
420
255
176
1
290
0
176
1
 90
50
176
1
 90
50
176
1
 90
50
176
1
290
0
176
1
 90
50
176
1
 62
256
176
0
 40
1.0
176
0
 90
2
176
1
  1
strokes_ogs.tif
176
1
290
0
176
1
 40
1.0
176
1
 40
1.0
176
1
  0
VISUALSTYLE
  5
68
102
{ACAD_REACTORS
330
16
102
}
330
16
100
AcDbVisualStyle
  2
Linepattern
 70
14
177
3
291
1
 70
58
 90
2
176
1
 90
2
176
1
 90
0
176
1
 90
2
176
1
 40
0.6
176
1
 40
30.0
176
1
 62
7
420
16777215
176
1
 90
1
176
1
 90
4
176
1
 62
7
176
1
 62
257
176
1
 90
1
176
1
 90
1
176
1
 40
1.0
176
1
 90
8
176
1
 62
7
176
1
 40
1.0
176
1
 90
1
176
1
 90
6
176
1
 90
2
176
1
 62
7
176
1
 90
5
176
1
 90
0
176
1
 90
0
176
1
290
0
176
1
 90
1
176
1
 40
0.0
176
1
 90
0
176
1
290
0
176
1
290
1
176
1
290
1
176
1
290
0
176
1
290
0
176
1
290
0
176
1
290
0
176
1
290
0
176
1
290
0
176
1
 90
50
176
1
 40
0.0
176
1
 40
1.0
176
1
 90
0
176
1
 62
18
420
0
176
1
 90
50
176
1
 90
3
176
1
 62
5
420
255
176
1
290
0
176
1
 90
50
176
1
 90
50
176
1
 90
50
176
1
290
0
176
1
 90
50
176
1
 62
256
176
0
 40
1.0
176
0
 90
2
176
1
  1
strokes_ogs.tif
176
1
290
0
176
1
 40
1.0
176
1
 40
1.0
176
1
  0
VISUALSTYLE
  5
69
102
{ACAD_REACTORS
330
16
102
}
330
16
100
AcDbVisualStyle
  2
Modeling
 70
10
177
3
291
0
 70
58
 90
2
176
1
 90
2
176
1
 90
0
176
1
 90
2
176
1
 40
0.6
176
1
 40
30.0
176
1
 62
7
420
16777215
176
1
 90
1
176
1
 90
4
176
1
 62
7
176
1
 62
257
176
1
 90
1
176
1
 90
1
176
1
 40
1.0
176
1
 90
8
176
1
 62
7
176
1
 40
1.0
176
1
 90
1
176
1
 90
6
176
1
 90
2
176
1
 62
7
176
1
 90
5
176
1
 90
0
176
1
 90
0
176
1
290
0
176
1
 90
1
176
1
 40
0.0
176
1
 90
0
176
1
290
0
176
1
290
1
176
1
290
1
176
1
290
0
176
1
290
0
176
1
290
0
176
1
290
0
176
1
290
0
176
1
290
0
176
1
 90
50
176
1
 40
0.0
176
1
 40
1.0
176
1
 90
0
176
1
 62
18
420
0
176
1
 90
50
176
1
 90
3
176
1
 62
5
420
255
176
1
290
0
176
1
 90
50
176
1
 90
50
176
1
 90
50
176
1
290
0
176
1
 90
50
176
1
 62
256
176
0
 40
1.0
176
0
 90
2
176
1
  1
strokes_ogs.tif
176
1
290
0
176
1
 40
1.0
176
1
 40
1.0
176
1
  0
VISUALSTYLE
  5
6A
102
{ACAD_REACTORS
330
16
102
}
330
16
100
AcDbVisualStyle
  2
OverhangOff
 70
21
177
3
291
1
 70
58
 90
2
176
1
 90
2
176
1
 90
0
176
1
 90
2
176
1
 40
0.6
176
1
 40
30.0
176
1
 62
7
420
16777215
176
1
 90
1
176
1
 90
4
176
1
 62
7
176
1
 62
257
176
1
 90
1
176
1
 90
1
176
1
 40
1.0
176
1
 90
8
176
1
 62
7
176
1
 40
1.0
176
1
 90
1
176
1
 90
6
176
1
 90
2
176
1
 62
7
176
1
 90
5
176
1
 90
0
176
1
 90
0
176
1
290
0
176
1
 90
1
176
1
 40
0.0
176
1
 90
0
176
1
290
0
176
1
290
1
176
1
290
1
176
1
290
0
176
1
290
0
176
1
290
0
176
1
290
0
176
1
290
0
176
1
290
0
176
1
 90
50
176
1
 40
0.0
176
1
 40
1.0
176
1
 90
0
176
1
 62
18
420
0
176
1
 90
50
176
1
 90
3
176
1
 62
5
420
255
176
1
290
0
176
1
 90
50
176
1
 90
50
176
1
 90
50
176
1
290
0
176
1
 90
50
176
1
 62
256
176
0
 40
1.0
176
0
 90
2
176
1
  1
strokes_ogs.tif
176
1
290
0
176
1
 40
1.0
176
1
 40
1.0
176
1
  0
VISUALSTYLE
  5
6B
102
{ACAD_REACTORS
330
16
102
}
330
16
100
AcDbVisualStyle
  2
Realistic
 70
8
177
3
291
0
 70
58
 90
2
176
1
 90
2
176
1
 90
0
176
1
 90
2
176
1
 40
0.6
176
1
 40
30.0
176
1
 62
7
420
16777215
176
1
 90
1
176
1
 90
4
176
1
 62
7
176
1
 62
257
176
1
 90
1
176
1
 90
1
176
1
 40
1.0
176
1
 90
8
176
1
 62
7
176
1
 40
1.0
176
1
 90
1
176
1
 90
6
176
1
 90
2
176
1
 62
7
176
1
 90
5
176
1
 90
0
176
1
 90
0
176
1
290
0
176
1
 90
1
176
1
 40
0.0
176
1
 90
0
176
1
290
0
176
1
290
1
176
1
290
1
176
1
290
0
176
1
290
0
176
1
290
0
176
1
290
0
176
1
290
0
176
1
290
0
176
1
 90
50
176
1
 40
0.0
176
1
 40
1.0
176
1
 90
0
176
1
 62
18
420
0
176
1
 90
50
176
1
 90
3
176
1
 62
5
420
255
176
1
290
0
176
1
 90
50
176
1
 90
50
176
1
 90
50
176
1
290
0
176
1
 90
50
176
1
 62
256
176
0
 40
1.0
176
0
 90
2
176
1
  1
strokes_ogs.tif
176
1
290
0
176
1
 40
1.0
176
1
 40
1.0
176
1
  0
VISUALSTYLE
  5
6C
102
{ACAD_REACTORS
330
16
102
}
330
16
100
AcDbVisualStyle
  2
Shaded
 70
27
177
3
291
0
 70
58
 90
2
176
1
 90
2
176
1
 90
0
176
1
 90
2
176
1
 40
0.6
176
1
 40
30.0
176
1
 62
7
420
16777215
176
1
 90
1
176
1
 90
4
176
1
 62
7
176
1
 62
257
176
1
 90
1
176
1
 90
1
176
1
 40
1.0
176
1
 90
8
176
1
 62
7
176
1
 40
1.0
176
1
 90
1
176
1
 90
6
176
1
 90
2
176
1
 62
7
176
1
 90
5
176
1
 90
0
176
1
 90
0
176
1
290
0
176
1
 90
1
176
1
 40
0.0
176
1
 90
0
176
1
290
0
176
1
290
1
176
1
290
1
176
1
290
0
176
1
290
0
176
1
290
0
176
1
290
0
176
1
290
0
176
1
290
0
176
1
 90
50
176
1
 40
0.0
176
1
 40
1.0
176
1
 90
0
176
1
 62
18
420
0
176
1
 90
50
176
1
 90
3
176
1
 62
5
420
255
176
1
290
0
176
1
 90
50
176
1
 90
50
176
1
 90
50
176
1
290
0
176
1
 90
50
176
1
 62
256
176
0
 40
1.0
176
0
 90
2
176
1
  1
strokes_ogs.tif
176
1
290
0
176
1
 40
1.0
176
1
 40
1.0
176
1
  0
VISUALSTYLE
  5
6D
102
{ACAD_REACTORS
330
16
102
}
330
16
100
AcDbVisualStyle
  2
Shaded with edges
 70
26
177
3
291
0
 70
58
 90
2
176
1
 90
2
176
1
 90
0
176
1
 90
2
176
1
 40
0.6
176
1
 40
30.0
176
1
 62
7
420
16777215
176
1
 90
1
176
1
 90
4
176
1
 62
7
176
1
 62
257
176
1
 90
1
176
1
 90
1
176
1
 40
1.0
176
1
 90
8
176
1
 62
7
176
1
 40
1.0
176
1
 90
1
176
1
 90
6
176
1
 90
2
176
1
 62
7
176
1
 90
5
176
1
 90
0
176
1
 90
0
176
1
290
0
176
1
 90
1
176
1
 40
0.0
176
1
 90
0
176
1
290
0
176
1
290
1
176
1
290
1
176
1
290
0
176
1
290
0
176
1
290
0
176
1
290
0
176
1
290
0
176
1
290
0
176
1
 90
50
176
1
 40
0.0
176
1
 40
1.0
176
1
 90
0
176
1
 62
18
420
0
176
1
 90
50
176
1
 90
3
176
1
 62
5
420
255
176
1
290
0
176
1
 90
50
176
1
 90
50
176
1
 90
50
176
1
290
0
176
1
 90
50
176
1
 62
256
176
0
 40
1.0
176
0
 90
2
176
1
  1
strokes_ogs.tif
176
1
290
0
176
1
 40
1.0
176
1
 40
1.0
176
1
  0
VISUALSTYLE
  5
6E
102
{ACAD_REACTORS
330
16
102
}
330
16
100
AcDbVisualStyle
  2
Shades of Gray
 70
23
177
3
291
0
 70
58
 90
2
176
1
 90
2
176
1
 90
0
176
1
 90
2
176
1
 40
0.6
176
1
 40
30.0
176
1
 62
7
420
16777215
176
1
 90
1
176
1
 90
4
176
1
 62
7
176
1
 62
257
176
1
 90
1
176
1
 90
1
176
1
 40
1.0
176
1
 90
8
176
1
 62
7
176
1
 40
1.0
176
1
 90
1
176
1
 90
6
176
1
 90
2
176
1
 62
7
176
1
 90
5
176
1
 90
0
176
1
 90
0
176
1
290
0
176
1
 90
1
176
1
 40
0.0
176
1
 90
0
176
1
290
0
176
1
290
1
176
1
290
1
176
1
290
0
176
1
290
0
176
1
290
0
176
1
290
0
176
1
290
0
176
1
290
0
176
1
 90
50
176
1
 40
0.0
176
1
 40
1.0
176
1
 90
0
176
1
 62
18
420
0
176
1
 90
50
176
1
 90
3
176
1
 62
5
420
255
176
1
290
0
176
1
 90
50
176
1
 90
50
176
1
 90
50
176
1
290
0
176
1
 90
50
176
1
 62
256
176
0
 40
1.0
176
0
 90
2
176
1
  1
strokes_ogs.tif
176
1
290
0
176
1
 40
1.0
176
1
 40
1.0
176
1
  0
VISUALSTYLE
  5
6F
102
{ACAD_REACTORS
330
16
102
}
330
16
100
AcDbVisualStyle
  2
Sketchy
 70
24
177
3
291
0
 70
58
 90
2
176
1
 90
2
176
1
 90
0
176
1
 90
1
176
1
 40
0.6
176
1
 40
30.0
176
1
 62
7
420
16777215
176
1
 90
1
176
1
 90
4
176
1
 62
7
176
1
 62
257
176
1
 90
1
176
1
 90
1
176
1
 40
1.0
176
1
 90
8
176
1
 62
7
176
1
 40
1.0
176
1
 90
1
176
1
 90
6
176
1
 90
2
176
1
 62
7
176
1
 90
5
176
1
 90
0
176
1
 90
0
176
1
290
0
176
1
 90
1
176
1
 40
0.0
176
1
 90
0
176
1
290
0
176
1
290
1
176
1
290
1
176
1
290
0
176
1
290
0
176
1
290
0
176
1
290
0
176
1
290
0
176
1
290
0
176
1
 90
50
176
1
 40
0.0
176
1
 40
1.0
176
1
 90
0
176
1
 62
18
420
0
176
1
 90
50
176
1
 90
3
176
1
 62
5
420
255
176
1
290
0
176
1
 90
50
176
1
 90
50
176
1
 90
50
176
1
290
0
176
1
 90
50
176
1
 62
256
176
0
 40
1.0
176
0
 90
2
176
1
  1
strokes_ogs.tif
176
1
290
0
176
1
 40
1.0
176
1
 40
1.0
176
1
  0
VISUALSTYLE
  5
70
102
{ACAD_REACTORS
330
16
102
}
330
16
100
AcDbVisualStyle
  2
Thicken
 70
13
177
3
291
1
 70
58
 90
2
176
1
 90
2
176
1
 90
0
176
1
 90
2
176
1
 40
0.6
176
1
 40
30.0
176
1
 62
7
420
16777215
176
1
 90
1
176
1
 90
4
176
1
 62
7
176
1
 62
257
176
1
 90
1
176
1
 90
1
176
1
 40
1.0
176
1
 90
8
176
1
 62
7
176
1
 40
1.0
176
1
 90
1
176
1
 90
6
176
1
 90
2
176
1
 62
7
176
1
 90
5
176
1
 90
0
176
1
 90
0
176
1
290
0
176
1
 90
1
176
1
 40
0.0
176
1
 90
0
176
1
290
0
176
1
290
1
176
1
290
1
176
1
290
0
176
1
290
0
176
1
290
0
176
1
290
0
176
1
290
0
176
1
290
0
176
1
 90
50
176
1
 40
0.0
176
1
 40
1.0
176
1
 90
0
176
1
 62
18
420
0
176
1
 90
50
176
1
 90
3
176
1
 62
5
420
255
176
1
290
0
176
1
 90
50
176
1
 90
50
176
1
 90
50
176
1
290
0
176
1
 90
50
176
1
 62
256
176
0
 40
1.0
176
0
 90
2
176
1
  1
strokes_ogs.tif
176
1
290
0
176
1
 40
1.0
176
1
 40
1.0
176
1
  0
VISUALSTYLE
  5
71
102
{ACAD_REACTORS
330
16
102
}
330
16
100
AcDbVisualStyle
  2
Wireframe
 70
5
177
3
291
0
 70
58
 90
2
176
1
 90
2
176
1
 90
0
176
1
 90
0
176
1
 40
0.6
176
1
 40
30.0
176
1
 62
7
420
16777215
176
1
 90
1
176
1
 90
4
176
1
 62
7
176
1
 62
257
176
1
 90
1
176
1
 90
1
176
1
 40
1.0
176
1
 90
8
176
1
 62
7
176
1
 40
1.0
176
1
 90
1
176
1
 90
6
176
1
 90
2
176
1
 62
7
176
1
 90
5
176
1
 90
0
176
1
 90
0
176
1
290
0
176
1
 90
1
176
1
 40
0.0
176
1
 90
0
176
1
290
0
176
1
290
1
176
1
290
1
176
1
290
0
176
1
290
0
176
1
290
0
176
1
290
0
176
1
290
0
176
1
290
0
176
1
 90
50
176
1
 40
0.0
176
1
 40
1.0
176
1
 90
0
176
1
 62
18
420
0
176
1
 90
50
176
1
 90
3
176
1
 62
5
420
255
176
1
290
0
176
1
 90
50
176
1
 90
50
176
1
 90
50
176
1
290
0
176
1
 90
50
176
1
 62
256
176
0
 40
1.0
176
0
 90
2
176
1
  1
strokes_ogs.tif
176
1
290
0
176
1
 40
1.0
176
1
 40
1.0
176
1
  0
VISUALSTYLE
  5
72
102
{ACAD_REACTORS
330
16
102
}
330
16
100
AcDbVisualStyle
  2
X-Ray
 70
25
177
3
291
0
 70
58
 90
2
176
1
 90
2
176
1
 90
0
176
1
 90
2
176
1
 40
0.5
176
1
 40
30.0
176
1
 62
7
420
16777215
176
1
 90
1
176
1
 90
4
176
1
 62
7
176
1
 62
257
176
1
 90
1
176
1
 90
1
176
1
 40
1.0
176
1
 90
8
176
1
 62
7
176
1
 40
1.0
176
1
 90
1
176
1
 90
6
176
1
 90
2
176
1
 62
7
176
1
 90
5
176
1
 90
0
176
1
 90
0
176
1
290
0
176
1
 90
1
176
1
 40
0.0
176
1
 90
0
176
1
290
0
176
1
290
1
176
1
290
1
176
1
290
0
176
1
290
0
176
1
290
0
176
1
290
0
176
1
290
0
176
1
290
0
176
1
 90
50
176
1
 40
0.0
176
1
 40
1.0
176
1
 90
0
176
1
 62
18
420
0
176
1
 90
50
176
1
 90
3
176
1
 62
5
420
255
176
1
290
0
176
1
 90
50
176
1
 90
50
176
1
 90
50
176
1
290
0
176
1
 90
50
176
1
 62
256
176
0
 40
1.0
176
0
 90
2
176
1
  1
strokes_ogs.tif
176
1
290
0
176
1
 40
1.0
176
1
 40
1.0
176
1
  0
DICTIONARYVAR
  5
17E
330
2D
100
DictionaryVariables
280
0
  1
1.4.4 @ 2026-09-28T04:12:09.256815+00:00
  0
ENDSEC
  0
EOF
